G04 EAGLE Gerber RS-274X export*
G75*
%MOMM*%
%FSLAX34Y34*%
%LPD*%
%INTop Copper*%
%IPPOS*%
%AMOC8*
5,1,8,0,0,1.08239X$1,22.5*%
G01*
%ADD10R,1.508000X1.508000*%
%ADD11C,1.508000*%
%ADD12R,1.524000X1.524000*%
%ADD13C,1.524000*%
%ADD14C,2.000000*%
%ADD15C,1.676400*%
%ADD16P,1.732040X8X292.500000*%
%ADD17C,1.600200*%
%ADD18C,1.498600*%
%ADD19R,2.540000X1.270000*%
%ADD20R,1.676400X1.676400*%
%ADD21C,1.676400*%
%ADD22C,1.320800*%
%ADD23C,1.879600*%
%ADD24P,1.429621X8X112.500000*%
%ADD25C,0.406400*%
%ADD26P,6.598249X8X22.500000*%
%ADD27C,0.609600*%
%ADD28C,0.756400*%
%ADD29C,0.508000*%

G36*
X813842Y10164D02*
X813842Y10164D01*
X813868Y10162D01*
X814015Y10184D01*
X814162Y10201D01*
X814187Y10209D01*
X814213Y10213D01*
X814351Y10268D01*
X814490Y10318D01*
X814512Y10332D01*
X814537Y10342D01*
X814658Y10427D01*
X814783Y10507D01*
X814801Y10526D01*
X814823Y10541D01*
X814922Y10651D01*
X815025Y10758D01*
X815039Y10780D01*
X815056Y10800D01*
X815128Y10930D01*
X815204Y11057D01*
X815212Y11082D01*
X815225Y11105D01*
X815265Y11248D01*
X815310Y11389D01*
X815312Y11415D01*
X815320Y11440D01*
X815339Y11684D01*
X815339Y496317D01*
X815336Y496343D01*
X815338Y496369D01*
X815316Y496517D01*
X815299Y496664D01*
X815291Y496688D01*
X815287Y496714D01*
X815232Y496852D01*
X815182Y496992D01*
X815168Y497014D01*
X815158Y497038D01*
X815074Y497160D01*
X814993Y497285D01*
X814974Y497303D01*
X814959Y497324D01*
X814849Y497423D01*
X814742Y497527D01*
X814720Y497540D01*
X814700Y497558D01*
X814571Y497629D01*
X814443Y497706D01*
X814418Y497714D01*
X814395Y497726D01*
X814252Y497767D01*
X814111Y497812D01*
X814085Y497814D01*
X814060Y497821D01*
X813816Y497841D01*
X11684Y497938D01*
X11658Y497935D01*
X11632Y497937D01*
X11485Y497915D01*
X11338Y497898D01*
X11313Y497889D01*
X11287Y497885D01*
X11149Y497831D01*
X11010Y497781D01*
X10988Y497766D01*
X10963Y497757D01*
X10842Y497672D01*
X10717Y497592D01*
X10699Y497573D01*
X10677Y497558D01*
X10578Y497448D01*
X10475Y497341D01*
X10461Y497318D01*
X10444Y497299D01*
X10372Y497169D01*
X10296Y497042D01*
X10288Y497017D01*
X10275Y496994D01*
X10235Y496851D01*
X10190Y496710D01*
X10188Y496684D01*
X10180Y496658D01*
X10161Y496415D01*
X10161Y11684D01*
X10164Y11658D01*
X10162Y11632D01*
X10184Y11485D01*
X10201Y11338D01*
X10209Y11313D01*
X10213Y11287D01*
X10268Y11149D01*
X10318Y11010D01*
X10332Y10988D01*
X10342Y10963D01*
X10427Y10842D01*
X10507Y10717D01*
X10526Y10699D01*
X10541Y10677D01*
X10651Y10578D01*
X10758Y10475D01*
X10780Y10461D01*
X10800Y10444D01*
X10930Y10372D01*
X11057Y10296D01*
X11082Y10288D01*
X11105Y10275D01*
X11248Y10235D01*
X11389Y10190D01*
X11415Y10188D01*
X11440Y10180D01*
X11684Y10161D01*
X813816Y10161D01*
X813842Y10164D01*
G37*
%LPC*%
G36*
X201381Y22351D02*
X201381Y22351D01*
X198020Y23744D01*
X195448Y26316D01*
X194055Y29677D01*
X194055Y46523D01*
X195448Y49884D01*
X198181Y52618D01*
X198260Y52717D01*
X198344Y52811D01*
X198368Y52853D01*
X198398Y52891D01*
X198452Y53005D01*
X198513Y53116D01*
X198526Y53162D01*
X198547Y53206D01*
X198573Y53329D01*
X198608Y53451D01*
X198613Y53512D01*
X198620Y53547D01*
X198619Y53595D01*
X198627Y53695D01*
X198627Y58435D01*
X198613Y58560D01*
X198606Y58687D01*
X198593Y58733D01*
X198587Y58781D01*
X198545Y58900D01*
X198510Y59022D01*
X198486Y59064D01*
X198470Y59109D01*
X198401Y59215D01*
X198340Y59326D01*
X198300Y59372D01*
X198281Y59402D01*
X198246Y59436D01*
X198181Y59512D01*
X197180Y60513D01*
X197081Y60592D01*
X196987Y60676D01*
X196945Y60700D01*
X196907Y60730D01*
X196793Y60784D01*
X196682Y60845D01*
X196636Y60858D01*
X196592Y60879D01*
X196469Y60905D01*
X196347Y60940D01*
X196286Y60945D01*
X196251Y60952D01*
X196203Y60951D01*
X196103Y60959D01*
X95553Y60959D01*
X93872Y61655D01*
X56575Y98952D01*
X55879Y100633D01*
X55879Y108724D01*
X55868Y108824D01*
X55866Y108924D01*
X55848Y108996D01*
X55839Y109070D01*
X55806Y109165D01*
X55781Y109262D01*
X55747Y109328D01*
X55722Y109398D01*
X55667Y109483D01*
X55621Y109572D01*
X55573Y109629D01*
X55533Y109691D01*
X55461Y109761D01*
X55396Y109837D01*
X55336Y109882D01*
X55282Y109933D01*
X55196Y109985D01*
X55115Y110044D01*
X55047Y110074D01*
X54983Y110112D01*
X54887Y110143D01*
X54795Y110182D01*
X54722Y110196D01*
X54651Y110218D01*
X54551Y110226D01*
X54452Y110244D01*
X54378Y110240D01*
X54304Y110246D01*
X54204Y110231D01*
X54104Y110226D01*
X54033Y110206D01*
X53959Y110195D01*
X53866Y110158D01*
X53769Y110130D01*
X53704Y110093D01*
X53635Y110066D01*
X53553Y110009D01*
X53465Y109960D01*
X53389Y109894D01*
X53349Y109867D01*
X53325Y109840D01*
X53279Y109801D01*
X50451Y106973D01*
X46063Y105155D01*
X41313Y105155D01*
X36925Y106973D01*
X33567Y110331D01*
X31749Y114719D01*
X31749Y119469D01*
X33567Y123857D01*
X36925Y127215D01*
X41313Y129033D01*
X46063Y129033D01*
X50451Y127215D01*
X53279Y124387D01*
X53357Y124325D01*
X53430Y124255D01*
X53494Y124217D01*
X53552Y124170D01*
X53643Y124127D01*
X53729Y124076D01*
X53800Y124053D01*
X53867Y124021D01*
X53965Y124000D01*
X54061Y123970D01*
X54135Y123964D01*
X54208Y123948D01*
X54308Y123950D01*
X54408Y123942D01*
X54482Y123953D01*
X54556Y123954D01*
X54653Y123979D01*
X54753Y123993D01*
X54822Y124021D01*
X54894Y124039D01*
X54983Y124085D01*
X55077Y124122D01*
X55138Y124165D01*
X55204Y124199D01*
X55280Y124264D01*
X55363Y124321D01*
X55413Y124376D01*
X55469Y124425D01*
X55529Y124505D01*
X55596Y124580D01*
X55632Y124645D01*
X55677Y124705D01*
X55716Y124797D01*
X55765Y124885D01*
X55785Y124957D01*
X55815Y125025D01*
X55832Y125124D01*
X55860Y125220D01*
X55868Y125320D01*
X55876Y125368D01*
X55874Y125404D01*
X55879Y125464D01*
X55879Y153936D01*
X55868Y154036D01*
X55866Y154136D01*
X55848Y154208D01*
X55839Y154282D01*
X55806Y154377D01*
X55781Y154474D01*
X55747Y154540D01*
X55722Y154610D01*
X55667Y154695D01*
X55621Y154784D01*
X55573Y154841D01*
X55533Y154903D01*
X55461Y154973D01*
X55396Y155049D01*
X55336Y155094D01*
X55282Y155145D01*
X55196Y155197D01*
X55115Y155256D01*
X55047Y155286D01*
X54983Y155324D01*
X54887Y155355D01*
X54795Y155394D01*
X54722Y155408D01*
X54651Y155430D01*
X54551Y155438D01*
X54452Y155456D01*
X54378Y155452D01*
X54304Y155458D01*
X54204Y155443D01*
X54104Y155438D01*
X54033Y155418D01*
X53959Y155407D01*
X53866Y155370D01*
X53769Y155342D01*
X53704Y155305D01*
X53635Y155278D01*
X53553Y155221D01*
X53465Y155172D01*
X53389Y155106D01*
X53349Y155079D01*
X53325Y155052D01*
X53279Y155013D01*
X50451Y152185D01*
X46063Y150367D01*
X41313Y150367D01*
X36925Y152185D01*
X33567Y155543D01*
X31749Y159931D01*
X31749Y164681D01*
X33567Y169069D01*
X36925Y172427D01*
X41313Y174245D01*
X46063Y174245D01*
X50451Y172427D01*
X53279Y169599D01*
X53357Y169537D01*
X53430Y169467D01*
X53494Y169429D01*
X53552Y169382D01*
X53643Y169339D01*
X53729Y169288D01*
X53800Y169265D01*
X53867Y169233D01*
X53965Y169212D01*
X54061Y169182D01*
X54135Y169176D01*
X54208Y169160D01*
X54308Y169162D01*
X54408Y169154D01*
X54482Y169165D01*
X54556Y169166D01*
X54653Y169191D01*
X54753Y169205D01*
X54822Y169233D01*
X54894Y169251D01*
X54983Y169297D01*
X55077Y169334D01*
X55138Y169377D01*
X55204Y169411D01*
X55280Y169476D01*
X55363Y169533D01*
X55413Y169588D01*
X55469Y169637D01*
X55529Y169717D01*
X55596Y169792D01*
X55632Y169857D01*
X55677Y169917D01*
X55716Y170009D01*
X55765Y170097D01*
X55785Y170169D01*
X55815Y170237D01*
X55832Y170336D01*
X55860Y170432D01*
X55868Y170532D01*
X55876Y170580D01*
X55874Y170616D01*
X55879Y170676D01*
X55879Y198625D01*
X55874Y198675D01*
X55876Y198726D01*
X55854Y198848D01*
X55839Y198971D01*
X55822Y199019D01*
X55813Y199068D01*
X55764Y199183D01*
X55722Y199300D01*
X55695Y199342D01*
X55675Y199388D01*
X55600Y199488D01*
X55533Y199592D01*
X55497Y199627D01*
X55467Y199668D01*
X55372Y199748D01*
X55282Y199835D01*
X55239Y199860D01*
X55201Y199893D01*
X55090Y199950D01*
X54983Y200013D01*
X54935Y200029D01*
X54890Y200052D01*
X54770Y200082D01*
X54651Y200120D01*
X54601Y200124D01*
X54552Y200136D01*
X54428Y200138D01*
X54304Y200148D01*
X54254Y200140D01*
X54204Y200141D01*
X54082Y200114D01*
X53959Y200096D01*
X53912Y200077D01*
X53863Y200067D01*
X53751Y200013D01*
X53635Y199967D01*
X53594Y199938D01*
X53548Y199917D01*
X53451Y199839D01*
X53349Y199768D01*
X53315Y199731D01*
X53276Y199699D01*
X53199Y199602D01*
X53116Y199509D01*
X53091Y199465D01*
X53060Y199426D01*
X52949Y199208D01*
X52457Y198020D01*
X49884Y195448D01*
X46523Y194055D01*
X29677Y194055D01*
X26316Y195448D01*
X23744Y198020D01*
X22351Y201381D01*
X22351Y205019D01*
X23744Y208380D01*
X26316Y210952D01*
X29677Y212345D01*
X46523Y212345D01*
X49884Y210952D01*
X52457Y208380D01*
X52949Y207192D01*
X52973Y207148D01*
X52990Y207100D01*
X53058Y206996D01*
X53118Y206887D01*
X53152Y206850D01*
X53179Y206808D01*
X53269Y206721D01*
X53352Y206629D01*
X53394Y206600D01*
X53430Y206565D01*
X53537Y206502D01*
X53639Y206431D01*
X53686Y206412D01*
X53729Y206387D01*
X53847Y206349D01*
X53963Y206303D01*
X54013Y206296D01*
X54061Y206280D01*
X54185Y206270D01*
X54308Y206252D01*
X54358Y206256D01*
X54408Y206252D01*
X54531Y206271D01*
X54655Y206281D01*
X54703Y206297D01*
X54753Y206304D01*
X54868Y206350D01*
X54987Y206388D01*
X55030Y206414D01*
X55077Y206433D01*
X55179Y206504D01*
X55285Y206568D01*
X55322Y206603D01*
X55363Y206632D01*
X55446Y206724D01*
X55535Y206811D01*
X55563Y206853D01*
X55596Y206891D01*
X55656Y206999D01*
X55724Y207104D01*
X55741Y207151D01*
X55765Y207196D01*
X55799Y207315D01*
X55840Y207432D01*
X55846Y207482D01*
X55860Y207531D01*
X55879Y207775D01*
X55879Y224025D01*
X55874Y224075D01*
X55876Y224126D01*
X55854Y224248D01*
X55839Y224371D01*
X55822Y224419D01*
X55813Y224468D01*
X55764Y224583D01*
X55722Y224700D01*
X55695Y224742D01*
X55675Y224788D01*
X55600Y224888D01*
X55533Y224992D01*
X55497Y225027D01*
X55467Y225068D01*
X55372Y225148D01*
X55282Y225235D01*
X55239Y225260D01*
X55201Y225293D01*
X55090Y225350D01*
X54983Y225413D01*
X54935Y225429D01*
X54890Y225452D01*
X54770Y225482D01*
X54651Y225520D01*
X54601Y225524D01*
X54552Y225536D01*
X54428Y225538D01*
X54304Y225548D01*
X54254Y225540D01*
X54204Y225541D01*
X54082Y225514D01*
X53959Y225496D01*
X53912Y225477D01*
X53863Y225467D01*
X53751Y225413D01*
X53635Y225367D01*
X53594Y225338D01*
X53548Y225317D01*
X53451Y225239D01*
X53349Y225168D01*
X53315Y225131D01*
X53276Y225099D01*
X53199Y225002D01*
X53116Y224909D01*
X53091Y224865D01*
X53060Y224826D01*
X52949Y224608D01*
X52457Y223420D01*
X49884Y220848D01*
X46523Y219455D01*
X29677Y219455D01*
X26316Y220848D01*
X23744Y223420D01*
X22351Y226781D01*
X22351Y230419D01*
X23744Y233780D01*
X26316Y236352D01*
X29677Y237745D01*
X46523Y237745D01*
X49884Y236352D01*
X52457Y233780D01*
X52949Y232592D01*
X52973Y232548D01*
X52990Y232500D01*
X53058Y232396D01*
X53118Y232287D01*
X53152Y232250D01*
X53179Y232208D01*
X53269Y232121D01*
X53352Y232029D01*
X53394Y232000D01*
X53430Y231965D01*
X53537Y231902D01*
X53639Y231831D01*
X53686Y231812D01*
X53729Y231787D01*
X53847Y231749D01*
X53963Y231703D01*
X54013Y231696D01*
X54061Y231680D01*
X54185Y231670D01*
X54308Y231652D01*
X54358Y231656D01*
X54408Y231652D01*
X54531Y231671D01*
X54655Y231681D01*
X54703Y231697D01*
X54753Y231704D01*
X54868Y231750D01*
X54987Y231788D01*
X55030Y231814D01*
X55077Y231833D01*
X55179Y231904D01*
X55285Y231968D01*
X55322Y232003D01*
X55363Y232032D01*
X55446Y232124D01*
X55535Y232211D01*
X55563Y232253D01*
X55596Y232291D01*
X55656Y232399D01*
X55724Y232504D01*
X55741Y232551D01*
X55765Y232596D01*
X55799Y232715D01*
X55840Y232832D01*
X55846Y232882D01*
X55860Y232931D01*
X55879Y233175D01*
X55879Y249425D01*
X55874Y249475D01*
X55876Y249526D01*
X55854Y249648D01*
X55839Y249771D01*
X55822Y249819D01*
X55813Y249868D01*
X55764Y249983D01*
X55722Y250100D01*
X55695Y250142D01*
X55675Y250188D01*
X55600Y250288D01*
X55533Y250392D01*
X55497Y250427D01*
X55467Y250468D01*
X55372Y250548D01*
X55282Y250635D01*
X55239Y250660D01*
X55201Y250693D01*
X55090Y250750D01*
X54983Y250813D01*
X54935Y250829D01*
X54890Y250852D01*
X54770Y250882D01*
X54651Y250920D01*
X54601Y250924D01*
X54552Y250936D01*
X54428Y250938D01*
X54304Y250948D01*
X54254Y250940D01*
X54204Y250941D01*
X54082Y250914D01*
X53959Y250896D01*
X53912Y250877D01*
X53863Y250867D01*
X53751Y250813D01*
X53635Y250767D01*
X53594Y250738D01*
X53548Y250717D01*
X53451Y250639D01*
X53349Y250568D01*
X53315Y250531D01*
X53276Y250499D01*
X53199Y250402D01*
X53116Y250309D01*
X53091Y250265D01*
X53060Y250226D01*
X52949Y250008D01*
X52457Y248820D01*
X49884Y246248D01*
X46523Y244855D01*
X29677Y244855D01*
X26316Y246248D01*
X23744Y248820D01*
X22351Y252181D01*
X22351Y255819D01*
X23744Y259180D01*
X26316Y261752D01*
X29677Y263145D01*
X46523Y263145D01*
X49884Y261752D01*
X52457Y259180D01*
X52949Y257992D01*
X52973Y257948D01*
X52990Y257900D01*
X53058Y257796D01*
X53118Y257687D01*
X53152Y257650D01*
X53179Y257608D01*
X53269Y257521D01*
X53352Y257429D01*
X53394Y257400D01*
X53430Y257365D01*
X53537Y257302D01*
X53639Y257231D01*
X53686Y257212D01*
X53729Y257187D01*
X53847Y257149D01*
X53963Y257103D01*
X54013Y257096D01*
X54061Y257080D01*
X54185Y257070D01*
X54308Y257052D01*
X54358Y257056D01*
X54408Y257052D01*
X54531Y257071D01*
X54655Y257081D01*
X54703Y257097D01*
X54753Y257104D01*
X54868Y257150D01*
X54987Y257188D01*
X55030Y257214D01*
X55077Y257233D01*
X55179Y257304D01*
X55285Y257368D01*
X55322Y257403D01*
X55363Y257432D01*
X55446Y257524D01*
X55535Y257611D01*
X55563Y257653D01*
X55596Y257691D01*
X55656Y257799D01*
X55724Y257904D01*
X55741Y257951D01*
X55765Y257996D01*
X55799Y258115D01*
X55840Y258232D01*
X55846Y258282D01*
X55860Y258331D01*
X55879Y258575D01*
X55879Y274825D01*
X55874Y274875D01*
X55876Y274926D01*
X55854Y275048D01*
X55839Y275172D01*
X55822Y275219D01*
X55813Y275268D01*
X55764Y275382D01*
X55722Y275500D01*
X55695Y275542D01*
X55674Y275588D01*
X55600Y275688D01*
X55533Y275792D01*
X55497Y275827D01*
X55467Y275868D01*
X55372Y275948D01*
X55282Y276035D01*
X55239Y276060D01*
X55201Y276093D01*
X55090Y276150D01*
X54983Y276213D01*
X54935Y276229D01*
X54890Y276252D01*
X54770Y276282D01*
X54651Y276320D01*
X54601Y276324D01*
X54552Y276336D01*
X54428Y276338D01*
X54304Y276348D01*
X54254Y276340D01*
X54204Y276341D01*
X54082Y276314D01*
X53959Y276296D01*
X53912Y276277D01*
X53863Y276267D01*
X53751Y276213D01*
X53635Y276167D01*
X53594Y276139D01*
X53548Y276117D01*
X53451Y276039D01*
X53349Y275968D01*
X53316Y275931D01*
X53276Y275900D01*
X53199Y275802D01*
X53116Y275710D01*
X53091Y275665D01*
X53060Y275626D01*
X52949Y275408D01*
X52457Y274220D01*
X49884Y271648D01*
X46523Y270255D01*
X29677Y270255D01*
X26316Y271648D01*
X23744Y274220D01*
X22351Y277581D01*
X22351Y281219D01*
X23744Y284580D01*
X26316Y287152D01*
X29677Y288545D01*
X46523Y288545D01*
X49884Y287152D01*
X52457Y284580D01*
X52949Y283392D01*
X52973Y283348D01*
X52990Y283300D01*
X53058Y283196D01*
X53118Y283087D01*
X53152Y283050D01*
X53179Y283008D01*
X53269Y282921D01*
X53352Y282829D01*
X53394Y282800D01*
X53430Y282765D01*
X53537Y282702D01*
X53639Y282631D01*
X53686Y282612D01*
X53729Y282587D01*
X53847Y282549D01*
X53963Y282503D01*
X54013Y282496D01*
X54061Y282480D01*
X54185Y282470D01*
X54308Y282452D01*
X54358Y282456D01*
X54408Y282452D01*
X54531Y282471D01*
X54655Y282481D01*
X54703Y282497D01*
X54753Y282504D01*
X54869Y282550D01*
X54987Y282588D01*
X55030Y282614D01*
X55077Y282633D01*
X55179Y282704D01*
X55285Y282768D01*
X55322Y282803D01*
X55363Y282832D01*
X55446Y282924D01*
X55535Y283011D01*
X55563Y283053D01*
X55596Y283090D01*
X55656Y283199D01*
X55724Y283304D01*
X55741Y283352D01*
X55765Y283396D01*
X55799Y283515D01*
X55840Y283632D01*
X55846Y283682D01*
X55860Y283731D01*
X55879Y283975D01*
X55879Y300225D01*
X55874Y300275D01*
X55876Y300326D01*
X55854Y300448D01*
X55839Y300571D01*
X55822Y300619D01*
X55813Y300668D01*
X55764Y300783D01*
X55722Y300900D01*
X55695Y300942D01*
X55675Y300988D01*
X55600Y301088D01*
X55533Y301192D01*
X55497Y301227D01*
X55467Y301268D01*
X55372Y301348D01*
X55282Y301435D01*
X55239Y301460D01*
X55201Y301493D01*
X55090Y301550D01*
X54983Y301613D01*
X54935Y301629D01*
X54890Y301652D01*
X54770Y301682D01*
X54651Y301720D01*
X54601Y301724D01*
X54552Y301736D01*
X54428Y301738D01*
X54304Y301748D01*
X54254Y301740D01*
X54204Y301741D01*
X54082Y301714D01*
X53959Y301696D01*
X53912Y301677D01*
X53863Y301667D01*
X53751Y301613D01*
X53635Y301567D01*
X53594Y301538D01*
X53548Y301517D01*
X53451Y301439D01*
X53349Y301368D01*
X53315Y301331D01*
X53276Y301299D01*
X53199Y301202D01*
X53116Y301109D01*
X53091Y301065D01*
X53060Y301026D01*
X52949Y300808D01*
X52457Y299620D01*
X49884Y297048D01*
X46523Y295655D01*
X29677Y295655D01*
X26316Y297048D01*
X23744Y299620D01*
X22351Y302981D01*
X22351Y306619D01*
X23744Y309980D01*
X26316Y312552D01*
X29677Y313945D01*
X46523Y313945D01*
X49884Y312552D01*
X52457Y309980D01*
X52949Y308792D01*
X52973Y308748D01*
X52990Y308700D01*
X53058Y308596D01*
X53118Y308487D01*
X53152Y308450D01*
X53179Y308408D01*
X53269Y308321D01*
X53352Y308229D01*
X53394Y308200D01*
X53430Y308165D01*
X53537Y308102D01*
X53639Y308031D01*
X53686Y308012D01*
X53729Y307987D01*
X53847Y307949D01*
X53963Y307903D01*
X54013Y307896D01*
X54061Y307880D01*
X54185Y307870D01*
X54308Y307852D01*
X54358Y307856D01*
X54408Y307852D01*
X54531Y307871D01*
X54655Y307881D01*
X54703Y307897D01*
X54753Y307904D01*
X54868Y307950D01*
X54987Y307988D01*
X55030Y308014D01*
X55077Y308033D01*
X55179Y308104D01*
X55285Y308168D01*
X55322Y308203D01*
X55363Y308232D01*
X55446Y308324D01*
X55535Y308411D01*
X55563Y308453D01*
X55596Y308491D01*
X55656Y308599D01*
X55724Y308704D01*
X55741Y308751D01*
X55765Y308796D01*
X55799Y308915D01*
X55840Y309032D01*
X55846Y309082D01*
X55860Y309131D01*
X55879Y309375D01*
X55879Y325625D01*
X55874Y325675D01*
X55876Y325726D01*
X55854Y325848D01*
X55839Y325971D01*
X55822Y326019D01*
X55813Y326068D01*
X55764Y326183D01*
X55722Y326300D01*
X55695Y326342D01*
X55675Y326388D01*
X55600Y326488D01*
X55533Y326592D01*
X55497Y326627D01*
X55467Y326668D01*
X55372Y326748D01*
X55282Y326835D01*
X55239Y326860D01*
X55201Y326893D01*
X55090Y326950D01*
X54983Y327013D01*
X54935Y327029D01*
X54890Y327052D01*
X54770Y327082D01*
X54651Y327120D01*
X54601Y327124D01*
X54552Y327136D01*
X54428Y327138D01*
X54304Y327148D01*
X54254Y327140D01*
X54204Y327141D01*
X54082Y327114D01*
X53959Y327096D01*
X53912Y327077D01*
X53863Y327067D01*
X53751Y327013D01*
X53635Y326967D01*
X53594Y326938D01*
X53548Y326917D01*
X53451Y326839D01*
X53349Y326768D01*
X53315Y326731D01*
X53276Y326699D01*
X53199Y326602D01*
X53116Y326509D01*
X53091Y326465D01*
X53060Y326426D01*
X52949Y326208D01*
X52457Y325020D01*
X49884Y322448D01*
X46523Y321055D01*
X29677Y321055D01*
X26316Y322448D01*
X23744Y325020D01*
X22351Y328381D01*
X22351Y332019D01*
X23744Y335380D01*
X26316Y337952D01*
X29677Y339345D01*
X46523Y339345D01*
X49884Y337952D01*
X52457Y335380D01*
X52949Y334192D01*
X52973Y334148D01*
X52990Y334100D01*
X53058Y333996D01*
X53118Y333887D01*
X53152Y333850D01*
X53179Y333808D01*
X53269Y333721D01*
X53352Y333629D01*
X53394Y333600D01*
X53430Y333565D01*
X53537Y333502D01*
X53639Y333431D01*
X53686Y333412D01*
X53729Y333387D01*
X53847Y333349D01*
X53963Y333303D01*
X54013Y333296D01*
X54061Y333280D01*
X54185Y333270D01*
X54308Y333252D01*
X54358Y333256D01*
X54408Y333252D01*
X54531Y333271D01*
X54655Y333281D01*
X54703Y333297D01*
X54753Y333304D01*
X54868Y333350D01*
X54987Y333388D01*
X55030Y333414D01*
X55077Y333433D01*
X55179Y333504D01*
X55285Y333568D01*
X55322Y333603D01*
X55363Y333632D01*
X55446Y333724D01*
X55535Y333811D01*
X55563Y333853D01*
X55596Y333891D01*
X55656Y333999D01*
X55724Y334104D01*
X55741Y334151D01*
X55765Y334196D01*
X55799Y334315D01*
X55840Y334432D01*
X55846Y334482D01*
X55860Y334531D01*
X55879Y334775D01*
X55879Y340762D01*
X56575Y342442D01*
X99039Y384906D01*
X99127Y384948D01*
X99164Y384978D01*
X99207Y385001D01*
X99300Y385086D01*
X99399Y385165D01*
X99429Y385203D01*
X99465Y385235D01*
X99537Y385339D01*
X99615Y385439D01*
X99643Y385493D01*
X99663Y385522D01*
X99681Y385567D01*
X99727Y385656D01*
X99943Y386180D01*
X102516Y388752D01*
X105877Y390145D01*
X122723Y390145D01*
X126084Y388752D01*
X128818Y386019D01*
X128917Y385940D01*
X129011Y385856D01*
X129053Y385832D01*
X129091Y385802D01*
X129205Y385748D01*
X129316Y385687D01*
X129362Y385674D01*
X129406Y385653D01*
X129529Y385627D01*
X129651Y385592D01*
X129712Y385587D01*
X129747Y385580D01*
X129795Y385581D01*
X129895Y385573D01*
X141454Y385573D01*
X141529Y385581D01*
X141606Y385580D01*
X141702Y385601D01*
X141800Y385613D01*
X141872Y385638D01*
X141946Y385655D01*
X142035Y385697D01*
X142128Y385730D01*
X142192Y385772D01*
X142261Y385804D01*
X142338Y385866D01*
X142421Y385919D01*
X142474Y385974D01*
X142534Y386022D01*
X142594Y386099D01*
X142663Y386170D01*
X142702Y386235D01*
X142749Y386295D01*
X142818Y386428D01*
X142842Y386469D01*
X142848Y386487D01*
X142861Y386513D01*
X143140Y387187D01*
X146213Y390260D01*
X150227Y391923D01*
X154573Y391923D01*
X158587Y390260D01*
X161660Y387187D01*
X163323Y383173D01*
X163323Y378827D01*
X161660Y374813D01*
X158587Y371740D01*
X154573Y370077D01*
X150227Y370077D01*
X146213Y371740D01*
X143140Y374813D01*
X142861Y375487D01*
X142824Y375554D01*
X142796Y375625D01*
X142739Y375706D01*
X142692Y375792D01*
X142640Y375848D01*
X142597Y375911D01*
X142524Y375977D01*
X142457Y376050D01*
X142395Y376093D01*
X142338Y376144D01*
X142252Y376192D01*
X142171Y376248D01*
X142100Y376276D01*
X142033Y376313D01*
X141938Y376340D01*
X141847Y376376D01*
X141771Y376387D01*
X141697Y376408D01*
X141549Y376420D01*
X141502Y376427D01*
X141483Y376425D01*
X141454Y376427D01*
X129895Y376427D01*
X129769Y376413D01*
X129643Y376406D01*
X129597Y376393D01*
X129549Y376387D01*
X129430Y376345D01*
X129308Y376310D01*
X129266Y376286D01*
X129221Y376270D01*
X129114Y376201D01*
X129004Y376140D01*
X128958Y376100D01*
X128928Y376081D01*
X128894Y376046D01*
X128818Y375981D01*
X126084Y373248D01*
X122723Y371855D01*
X105877Y371855D01*
X102516Y373247D01*
X102492Y373271D01*
X102472Y373287D01*
X102455Y373307D01*
X102336Y373396D01*
X102219Y373488D01*
X102195Y373499D01*
X102174Y373515D01*
X102038Y373573D01*
X101904Y373637D01*
X101878Y373642D01*
X101854Y373653D01*
X101708Y373679D01*
X101564Y373710D01*
X101537Y373710D01*
X101511Y373714D01*
X101363Y373707D01*
X101215Y373704D01*
X101189Y373698D01*
X101163Y373696D01*
X101021Y373655D01*
X100877Y373619D01*
X100854Y373607D01*
X100828Y373600D01*
X100699Y373528D01*
X100567Y373460D01*
X100547Y373443D01*
X100524Y373430D01*
X100338Y373271D01*
X65471Y338404D01*
X65392Y338305D01*
X65308Y338211D01*
X65284Y338169D01*
X65254Y338131D01*
X65200Y338017D01*
X65139Y337906D01*
X65126Y337860D01*
X65105Y337816D01*
X65079Y337693D01*
X65044Y337571D01*
X65039Y337510D01*
X65032Y337475D01*
X65033Y337427D01*
X65025Y337327D01*
X65025Y329169D01*
X65036Y329069D01*
X65038Y328969D01*
X65056Y328897D01*
X65065Y328823D01*
X65098Y328728D01*
X65123Y328631D01*
X65157Y328565D01*
X65182Y328495D01*
X65237Y328410D01*
X65283Y328321D01*
X65331Y328264D01*
X65371Y328202D01*
X65443Y328132D01*
X65508Y328056D01*
X65568Y328011D01*
X65622Y327960D01*
X65708Y327908D01*
X65789Y327848D01*
X65857Y327819D01*
X65921Y327781D01*
X66017Y327750D01*
X66109Y327710D01*
X66182Y327697D01*
X66253Y327675D01*
X66353Y327667D01*
X66452Y327649D01*
X66526Y327653D01*
X66600Y327647D01*
X66700Y327662D01*
X66800Y327667D01*
X66871Y327687D01*
X66945Y327698D01*
X67038Y327735D01*
X67135Y327763D01*
X67200Y327800D01*
X67269Y327827D01*
X67351Y327884D01*
X67439Y327933D01*
X67515Y327999D01*
X67555Y328026D01*
X67579Y328052D01*
X67625Y328092D01*
X99039Y359506D01*
X99127Y359548D01*
X99164Y359578D01*
X99207Y359601D01*
X99300Y359686D01*
X99399Y359765D01*
X99429Y359803D01*
X99465Y359835D01*
X99537Y359939D01*
X99615Y360039D01*
X99643Y360093D01*
X99663Y360122D01*
X99681Y360167D01*
X99727Y360256D01*
X99943Y360780D01*
X102516Y363352D01*
X105877Y364745D01*
X122723Y364745D01*
X126084Y363353D01*
X128818Y360619D01*
X128917Y360540D01*
X129011Y360456D01*
X129053Y360432D01*
X129091Y360402D01*
X129205Y360348D01*
X129316Y360287D01*
X129362Y360274D01*
X129406Y360253D01*
X129529Y360227D01*
X129651Y360192D01*
X129712Y360187D01*
X129746Y360180D01*
X129795Y360181D01*
X129895Y360173D01*
X141454Y360173D01*
X141529Y360181D01*
X141606Y360180D01*
X141702Y360201D01*
X141800Y360213D01*
X141872Y360238D01*
X141946Y360255D01*
X142035Y360297D01*
X142128Y360330D01*
X142192Y360372D01*
X142261Y360404D01*
X142338Y360466D01*
X142421Y360519D01*
X142474Y360574D01*
X142534Y360622D01*
X142594Y360699D01*
X142663Y360770D01*
X142702Y360835D01*
X142749Y360895D01*
X142818Y361028D01*
X142842Y361069D01*
X142848Y361087D01*
X142861Y361113D01*
X143140Y361787D01*
X146213Y364860D01*
X150227Y366523D01*
X154573Y366523D01*
X158587Y364860D01*
X161660Y361787D01*
X163323Y357773D01*
X163323Y353427D01*
X161660Y349413D01*
X158587Y346340D01*
X154573Y344677D01*
X150227Y344677D01*
X146213Y346340D01*
X143140Y349413D01*
X142861Y350087D01*
X142824Y350154D01*
X142796Y350225D01*
X142739Y350306D01*
X142692Y350392D01*
X142640Y350448D01*
X142597Y350511D01*
X142524Y350577D01*
X142457Y350650D01*
X142395Y350693D01*
X142338Y350744D01*
X142252Y350792D01*
X142171Y350848D01*
X142100Y350876D01*
X142033Y350913D01*
X141938Y350940D01*
X141847Y350976D01*
X141771Y350987D01*
X141697Y351008D01*
X141549Y351020D01*
X141502Y351027D01*
X141483Y351025D01*
X141454Y351027D01*
X129895Y351027D01*
X129769Y351013D01*
X129643Y351006D01*
X129597Y350993D01*
X129549Y350987D01*
X129430Y350945D01*
X129308Y350910D01*
X129266Y350886D01*
X129220Y350870D01*
X129114Y350801D01*
X129004Y350740D01*
X128958Y350700D01*
X128928Y350681D01*
X128894Y350646D01*
X128818Y350581D01*
X126084Y347847D01*
X122723Y346455D01*
X105877Y346455D01*
X102516Y347847D01*
X102492Y347871D01*
X102472Y347887D01*
X102455Y347907D01*
X102336Y347996D01*
X102219Y348088D01*
X102195Y348099D01*
X102174Y348115D01*
X102038Y348173D01*
X101904Y348237D01*
X101878Y348242D01*
X101854Y348253D01*
X101708Y348279D01*
X101564Y348310D01*
X101537Y348310D01*
X101511Y348314D01*
X101363Y348307D01*
X101215Y348304D01*
X101189Y348298D01*
X101163Y348296D01*
X101021Y348255D01*
X100877Y348219D01*
X100854Y348207D01*
X100828Y348200D01*
X100699Y348128D01*
X100567Y348060D01*
X100547Y348043D01*
X100524Y348030D01*
X100338Y347871D01*
X73599Y321132D01*
X73520Y321033D01*
X73436Y320939D01*
X73412Y320897D01*
X73382Y320859D01*
X73328Y320745D01*
X73267Y320634D01*
X73254Y320588D01*
X73233Y320544D01*
X73207Y320421D01*
X73172Y320299D01*
X73167Y320238D01*
X73160Y320203D01*
X73161Y320155D01*
X73153Y320055D01*
X73153Y311897D01*
X73164Y311797D01*
X73166Y311697D01*
X73184Y311625D01*
X73193Y311551D01*
X73226Y311456D01*
X73251Y311359D01*
X73285Y311293D01*
X73310Y311223D01*
X73365Y311138D01*
X73411Y311049D01*
X73459Y310992D01*
X73499Y310930D01*
X73571Y310860D01*
X73636Y310784D01*
X73696Y310739D01*
X73750Y310688D01*
X73836Y310636D01*
X73917Y310576D01*
X73985Y310547D01*
X74049Y310509D01*
X74145Y310478D01*
X74237Y310438D01*
X74310Y310425D01*
X74381Y310403D01*
X74481Y310395D01*
X74580Y310377D01*
X74654Y310381D01*
X74728Y310375D01*
X74828Y310390D01*
X74928Y310395D01*
X74999Y310415D01*
X75073Y310426D01*
X75166Y310463D01*
X75263Y310491D01*
X75328Y310528D01*
X75397Y310555D01*
X75479Y310612D01*
X75567Y310661D01*
X75643Y310727D01*
X75683Y310754D01*
X75707Y310780D01*
X75753Y310820D01*
X99039Y334106D01*
X99127Y334148D01*
X99164Y334178D01*
X99207Y334201D01*
X99300Y334286D01*
X99399Y334365D01*
X99429Y334403D01*
X99465Y334435D01*
X99537Y334539D01*
X99615Y334639D01*
X99643Y334693D01*
X99663Y334722D01*
X99681Y334767D01*
X99727Y334856D01*
X99943Y335380D01*
X102516Y337952D01*
X105877Y339345D01*
X122723Y339345D01*
X126084Y337953D01*
X128818Y335219D01*
X128917Y335140D01*
X129011Y335056D01*
X129053Y335032D01*
X129091Y335002D01*
X129205Y334948D01*
X129316Y334887D01*
X129362Y334874D01*
X129406Y334853D01*
X129529Y334827D01*
X129651Y334792D01*
X129712Y334787D01*
X129746Y334780D01*
X129795Y334781D01*
X129895Y334773D01*
X141454Y334773D01*
X141529Y334781D01*
X141606Y334780D01*
X141702Y334801D01*
X141800Y334813D01*
X141872Y334838D01*
X141946Y334855D01*
X142035Y334897D01*
X142128Y334930D01*
X142192Y334972D01*
X142261Y335004D01*
X142338Y335066D01*
X142421Y335119D01*
X142474Y335174D01*
X142534Y335222D01*
X142594Y335299D01*
X142663Y335370D01*
X142702Y335435D01*
X142749Y335495D01*
X142818Y335628D01*
X142842Y335669D01*
X142848Y335687D01*
X142861Y335713D01*
X143140Y336387D01*
X146213Y339460D01*
X150227Y341123D01*
X154573Y341123D01*
X158587Y339460D01*
X161660Y336387D01*
X163323Y332373D01*
X163323Y328027D01*
X161660Y324013D01*
X158587Y320940D01*
X154573Y319277D01*
X150227Y319277D01*
X146213Y320940D01*
X143140Y324013D01*
X142861Y324687D01*
X142824Y324754D01*
X142796Y324825D01*
X142739Y324906D01*
X142692Y324992D01*
X142640Y325048D01*
X142597Y325111D01*
X142524Y325177D01*
X142457Y325250D01*
X142395Y325293D01*
X142338Y325344D01*
X142252Y325392D01*
X142171Y325448D01*
X142100Y325476D01*
X142033Y325513D01*
X141938Y325540D01*
X141847Y325576D01*
X141771Y325587D01*
X141697Y325608D01*
X141549Y325620D01*
X141502Y325627D01*
X141483Y325625D01*
X141454Y325627D01*
X129895Y325627D01*
X129769Y325613D01*
X129643Y325606D01*
X129597Y325593D01*
X129549Y325587D01*
X129430Y325545D01*
X129308Y325510D01*
X129266Y325486D01*
X129220Y325470D01*
X129114Y325401D01*
X129004Y325340D01*
X128958Y325300D01*
X128928Y325281D01*
X128894Y325246D01*
X128818Y325181D01*
X126084Y322447D01*
X122723Y321055D01*
X105877Y321055D01*
X102516Y322447D01*
X102492Y322471D01*
X102472Y322487D01*
X102455Y322507D01*
X102336Y322596D01*
X102219Y322688D01*
X102195Y322699D01*
X102174Y322715D01*
X102038Y322773D01*
X101904Y322837D01*
X101878Y322842D01*
X101854Y322853D01*
X101708Y322879D01*
X101564Y322910D01*
X101537Y322910D01*
X101511Y322914D01*
X101363Y322907D01*
X101215Y322904D01*
X101189Y322898D01*
X101163Y322896D01*
X101021Y322855D01*
X100877Y322819D01*
X100854Y322807D01*
X100828Y322800D01*
X100699Y322728D01*
X100567Y322660D01*
X100547Y322643D01*
X100524Y322630D01*
X100338Y322471D01*
X81727Y303860D01*
X81648Y303761D01*
X81564Y303667D01*
X81540Y303625D01*
X81510Y303587D01*
X81456Y303473D01*
X81395Y303362D01*
X81382Y303316D01*
X81361Y303272D01*
X81335Y303149D01*
X81300Y303027D01*
X81295Y302966D01*
X81288Y302931D01*
X81289Y302883D01*
X81281Y302783D01*
X81281Y294625D01*
X81292Y294525D01*
X81294Y294425D01*
X81312Y294353D01*
X81321Y294279D01*
X81354Y294184D01*
X81379Y294087D01*
X81413Y294021D01*
X81438Y293951D01*
X81493Y293866D01*
X81539Y293777D01*
X81587Y293720D01*
X81627Y293658D01*
X81699Y293588D01*
X81764Y293512D01*
X81824Y293467D01*
X81878Y293416D01*
X81964Y293364D01*
X82045Y293304D01*
X82113Y293275D01*
X82177Y293237D01*
X82273Y293206D01*
X82365Y293166D01*
X82438Y293153D01*
X82509Y293131D01*
X82609Y293123D01*
X82708Y293105D01*
X82782Y293109D01*
X82856Y293103D01*
X82956Y293118D01*
X83056Y293123D01*
X83127Y293143D01*
X83201Y293154D01*
X83294Y293191D01*
X83391Y293219D01*
X83456Y293256D01*
X83525Y293283D01*
X83607Y293340D01*
X83695Y293389D01*
X83771Y293455D01*
X83811Y293482D01*
X83835Y293508D01*
X83881Y293548D01*
X99039Y308706D01*
X99127Y308748D01*
X99164Y308778D01*
X99207Y308801D01*
X99300Y308886D01*
X99399Y308965D01*
X99429Y309003D01*
X99465Y309035D01*
X99537Y309139D01*
X99615Y309239D01*
X99643Y309293D01*
X99663Y309322D01*
X99681Y309367D01*
X99727Y309456D01*
X99943Y309980D01*
X102516Y312552D01*
X105877Y313945D01*
X122723Y313945D01*
X126084Y312553D01*
X128818Y309819D01*
X128917Y309740D01*
X129011Y309656D01*
X129053Y309632D01*
X129091Y309602D01*
X129205Y309548D01*
X129316Y309487D01*
X129362Y309474D01*
X129406Y309453D01*
X129529Y309427D01*
X129651Y309392D01*
X129712Y309387D01*
X129746Y309380D01*
X129795Y309381D01*
X129895Y309373D01*
X141454Y309373D01*
X141529Y309381D01*
X141606Y309380D01*
X141702Y309401D01*
X141800Y309413D01*
X141872Y309438D01*
X141946Y309455D01*
X142035Y309497D01*
X142128Y309530D01*
X142192Y309572D01*
X142261Y309604D01*
X142338Y309666D01*
X142421Y309719D01*
X142474Y309774D01*
X142534Y309822D01*
X142594Y309899D01*
X142663Y309970D01*
X142702Y310035D01*
X142749Y310095D01*
X142818Y310228D01*
X142842Y310269D01*
X142848Y310287D01*
X142861Y310313D01*
X143140Y310987D01*
X146213Y314060D01*
X150227Y315723D01*
X154573Y315723D01*
X158587Y314060D01*
X161660Y310987D01*
X163323Y306973D01*
X163323Y302627D01*
X161660Y298613D01*
X158587Y295540D01*
X154573Y293877D01*
X150227Y293877D01*
X146213Y295540D01*
X143140Y298613D01*
X142861Y299287D01*
X142824Y299354D01*
X142796Y299425D01*
X142739Y299506D01*
X142692Y299592D01*
X142640Y299648D01*
X142597Y299711D01*
X142524Y299777D01*
X142457Y299850D01*
X142395Y299893D01*
X142338Y299944D01*
X142252Y299992D01*
X142171Y300048D01*
X142100Y300076D01*
X142033Y300113D01*
X141938Y300140D01*
X141847Y300176D01*
X141771Y300187D01*
X141697Y300208D01*
X141549Y300220D01*
X141502Y300227D01*
X141483Y300225D01*
X141454Y300227D01*
X129895Y300227D01*
X129769Y300213D01*
X129643Y300206D01*
X129597Y300193D01*
X129549Y300187D01*
X129430Y300145D01*
X129308Y300110D01*
X129266Y300086D01*
X129220Y300070D01*
X129114Y300001D01*
X129004Y299940D01*
X128958Y299900D01*
X128928Y299881D01*
X128894Y299846D01*
X128818Y299781D01*
X126084Y297047D01*
X122723Y295655D01*
X105877Y295655D01*
X102516Y297047D01*
X102492Y297071D01*
X102472Y297087D01*
X102455Y297107D01*
X102336Y297196D01*
X102219Y297288D01*
X102195Y297299D01*
X102174Y297315D01*
X102038Y297373D01*
X101904Y297437D01*
X101878Y297442D01*
X101854Y297453D01*
X101708Y297479D01*
X101564Y297510D01*
X101537Y297510D01*
X101511Y297514D01*
X101363Y297507D01*
X101215Y297504D01*
X101189Y297498D01*
X101163Y297496D01*
X101021Y297455D01*
X100877Y297419D01*
X100854Y297407D01*
X100828Y297400D01*
X100699Y297328D01*
X100567Y297260D01*
X100547Y297243D01*
X100524Y297230D01*
X100338Y297071D01*
X89855Y286588D01*
X89776Y286489D01*
X89692Y286395D01*
X89668Y286353D01*
X89638Y286315D01*
X89584Y286201D01*
X89523Y286090D01*
X89510Y286044D01*
X89489Y286000D01*
X89463Y285877D01*
X89428Y285755D01*
X89423Y285694D01*
X89416Y285659D01*
X89417Y285611D01*
X89409Y285511D01*
X89409Y119365D01*
X89423Y119239D01*
X89430Y119113D01*
X89443Y119067D01*
X89449Y119019D01*
X89491Y118900D01*
X89526Y118778D01*
X89550Y118736D01*
X89566Y118691D01*
X89635Y118584D01*
X89696Y118474D01*
X89736Y118428D01*
X89755Y118398D01*
X89790Y118364D01*
X89855Y118288D01*
X94359Y113784D01*
X94394Y113756D01*
X94425Y113722D01*
X94531Y113648D01*
X94632Y113567D01*
X94673Y113548D01*
X94710Y113522D01*
X94830Y113474D01*
X94947Y113419D01*
X94991Y113409D01*
X95034Y113392D01*
X95162Y113372D01*
X95288Y113345D01*
X95333Y113346D01*
X95378Y113339D01*
X95507Y113349D01*
X95636Y113351D01*
X95680Y113362D01*
X95726Y113366D01*
X95849Y113405D01*
X95974Y113436D01*
X96014Y113457D01*
X96058Y113471D01*
X96169Y113537D01*
X96284Y113596D01*
X96319Y113625D01*
X96358Y113648D01*
X96451Y113738D01*
X96549Y113822D01*
X96576Y113858D01*
X96609Y113890D01*
X96680Y113998D01*
X96756Y114102D01*
X96774Y114144D01*
X96799Y114182D01*
X96843Y114303D01*
X96894Y114422D01*
X96902Y114467D01*
X96918Y114509D01*
X96923Y114555D01*
X106173Y114555D01*
X106173Y105301D01*
X106154Y105296D01*
X106027Y105272D01*
X105985Y105254D01*
X105941Y105243D01*
X105826Y105184D01*
X105708Y105132D01*
X105672Y105104D01*
X105631Y105083D01*
X105533Y105000D01*
X105430Y104922D01*
X105400Y104887D01*
X105366Y104857D01*
X105289Y104754D01*
X105206Y104654D01*
X105186Y104614D01*
X105159Y104577D01*
X105107Y104459D01*
X105049Y104343D01*
X105039Y104299D01*
X105021Y104257D01*
X104998Y104130D01*
X104967Y104004D01*
X104967Y103959D01*
X104959Y103914D01*
X104966Y103785D01*
X104965Y103656D01*
X104975Y103611D01*
X104977Y103566D01*
X105013Y103442D01*
X105041Y103316D01*
X105061Y103275D01*
X105073Y103231D01*
X105136Y103118D01*
X105193Y103002D01*
X105221Y102967D01*
X105244Y102927D01*
X105402Y102741D01*
X113208Y94935D01*
X113307Y94856D01*
X113401Y94772D01*
X113443Y94748D01*
X113481Y94718D01*
X113595Y94664D01*
X113706Y94603D01*
X113752Y94590D01*
X113796Y94569D01*
X113919Y94543D01*
X114041Y94508D01*
X114102Y94503D01*
X114137Y94496D01*
X114185Y94497D01*
X114285Y94489D01*
X266594Y94489D01*
X268274Y93793D01*
X283277Y78790D01*
X283973Y77110D01*
X283973Y53695D01*
X283987Y53569D01*
X283994Y53443D01*
X284007Y53397D01*
X284013Y53349D01*
X284055Y53230D01*
X284090Y53108D01*
X284114Y53066D01*
X284130Y53021D01*
X284199Y52914D01*
X284260Y52804D01*
X284300Y52758D01*
X284319Y52728D01*
X284354Y52694D01*
X284419Y52618D01*
X287152Y49884D01*
X288545Y46523D01*
X288545Y29677D01*
X287152Y26316D01*
X284580Y23744D01*
X281219Y22351D01*
X277581Y22351D01*
X274220Y23744D01*
X271648Y26316D01*
X270255Y29677D01*
X270255Y46523D01*
X271648Y49884D01*
X274381Y52618D01*
X274460Y52717D01*
X274544Y52811D01*
X274568Y52853D01*
X274598Y52891D01*
X274652Y53005D01*
X274713Y53116D01*
X274726Y53162D01*
X274747Y53206D01*
X274773Y53329D01*
X274808Y53451D01*
X274813Y53512D01*
X274820Y53547D01*
X274819Y53595D01*
X274827Y53695D01*
X274827Y73675D01*
X274813Y73801D01*
X274806Y73927D01*
X274793Y73973D01*
X274787Y74021D01*
X274745Y74140D01*
X274710Y74262D01*
X274686Y74304D01*
X274670Y74349D01*
X274601Y74456D01*
X274540Y74566D01*
X274500Y74612D01*
X274481Y74642D01*
X274446Y74676D01*
X274381Y74752D01*
X264236Y84897D01*
X264137Y84976D01*
X264043Y85060D01*
X264001Y85084D01*
X263963Y85114D01*
X263849Y85168D01*
X263738Y85229D01*
X263692Y85242D01*
X263648Y85263D01*
X263525Y85289D01*
X263403Y85324D01*
X263342Y85329D01*
X263307Y85336D01*
X263259Y85335D01*
X263159Y85343D01*
X242301Y85343D01*
X242201Y85332D01*
X242101Y85330D01*
X242029Y85312D01*
X241955Y85303D01*
X241860Y85270D01*
X241763Y85245D01*
X241697Y85211D01*
X241627Y85186D01*
X241542Y85131D01*
X241453Y85085D01*
X241396Y85037D01*
X241334Y84997D01*
X241264Y84925D01*
X241188Y84860D01*
X241143Y84800D01*
X241092Y84746D01*
X241040Y84660D01*
X240980Y84579D01*
X240951Y84511D01*
X240913Y84447D01*
X240882Y84351D01*
X240842Y84259D01*
X240829Y84186D01*
X240807Y84115D01*
X240799Y84015D01*
X240781Y83916D01*
X240785Y83842D01*
X240779Y83768D01*
X240794Y83668D01*
X240799Y83568D01*
X240819Y83497D01*
X240830Y83423D01*
X240867Y83330D01*
X240895Y83233D01*
X240932Y83168D01*
X240959Y83099D01*
X241016Y83017D01*
X241065Y82929D01*
X241131Y82853D01*
X241158Y82813D01*
X241184Y82789D01*
X241224Y82743D01*
X257877Y66090D01*
X258573Y64410D01*
X258573Y53695D01*
X258587Y53569D01*
X258594Y53443D01*
X258607Y53397D01*
X258613Y53349D01*
X258655Y53230D01*
X258690Y53108D01*
X258714Y53066D01*
X258730Y53021D01*
X258799Y52914D01*
X258860Y52804D01*
X258900Y52758D01*
X258919Y52728D01*
X258954Y52694D01*
X259019Y52618D01*
X261752Y49884D01*
X263145Y46523D01*
X263145Y29677D01*
X261752Y26316D01*
X259180Y23744D01*
X255819Y22351D01*
X252181Y22351D01*
X248820Y23744D01*
X246248Y26316D01*
X244855Y29677D01*
X244855Y46523D01*
X246248Y49884D01*
X248981Y52618D01*
X249060Y52717D01*
X249144Y52811D01*
X249168Y52853D01*
X249198Y52891D01*
X249252Y53005D01*
X249313Y53116D01*
X249326Y53162D01*
X249347Y53206D01*
X249373Y53329D01*
X249408Y53451D01*
X249413Y53512D01*
X249420Y53547D01*
X249419Y53595D01*
X249427Y53695D01*
X249427Y60975D01*
X249413Y61101D01*
X249406Y61227D01*
X249393Y61273D01*
X249387Y61321D01*
X249345Y61440D01*
X249310Y61562D01*
X249286Y61604D01*
X249270Y61649D01*
X249201Y61756D01*
X249140Y61866D01*
X249100Y61912D01*
X249081Y61942D01*
X249046Y61976D01*
X248981Y62052D01*
X234264Y76769D01*
X234165Y76848D01*
X234071Y76932D01*
X234029Y76956D01*
X233991Y76986D01*
X233877Y77040D01*
X233766Y77101D01*
X233720Y77114D01*
X233676Y77135D01*
X233553Y77161D01*
X233431Y77196D01*
X233370Y77201D01*
X233335Y77208D01*
X233287Y77207D01*
X233187Y77215D01*
X225029Y77215D01*
X224929Y77204D01*
X224829Y77202D01*
X224757Y77184D01*
X224683Y77175D01*
X224588Y77142D01*
X224491Y77117D01*
X224425Y77083D01*
X224355Y77058D01*
X224270Y77003D01*
X224181Y76957D01*
X224124Y76909D01*
X224062Y76869D01*
X223992Y76797D01*
X223916Y76732D01*
X223871Y76672D01*
X223820Y76618D01*
X223768Y76532D01*
X223708Y76451D01*
X223679Y76383D01*
X223641Y76319D01*
X223610Y76223D01*
X223570Y76131D01*
X223557Y76058D01*
X223535Y75987D01*
X223527Y75887D01*
X223509Y75788D01*
X223513Y75714D01*
X223507Y75640D01*
X223522Y75540D01*
X223527Y75440D01*
X223547Y75369D01*
X223558Y75295D01*
X223595Y75202D01*
X223623Y75105D01*
X223660Y75040D01*
X223687Y74971D01*
X223744Y74889D01*
X223793Y74801D01*
X223859Y74725D01*
X223886Y74685D01*
X223912Y74662D01*
X223918Y74654D01*
X223924Y74648D01*
X223952Y74615D01*
X232477Y66090D01*
X233173Y64410D01*
X233173Y53695D01*
X233187Y53569D01*
X233194Y53443D01*
X233207Y53397D01*
X233213Y53349D01*
X233255Y53230D01*
X233290Y53108D01*
X233314Y53066D01*
X233330Y53021D01*
X233399Y52914D01*
X233460Y52804D01*
X233500Y52758D01*
X233519Y52728D01*
X233554Y52694D01*
X233619Y52618D01*
X236352Y49884D01*
X237745Y46523D01*
X237745Y29677D01*
X236352Y26316D01*
X233780Y23744D01*
X230419Y22351D01*
X226781Y22351D01*
X223420Y23744D01*
X220848Y26316D01*
X219455Y29677D01*
X219455Y46523D01*
X220848Y49884D01*
X223581Y52618D01*
X223660Y52717D01*
X223744Y52811D01*
X223768Y52853D01*
X223798Y52891D01*
X223852Y53005D01*
X223913Y53116D01*
X223926Y53162D01*
X223947Y53206D01*
X223973Y53329D01*
X224008Y53451D01*
X224013Y53512D01*
X224020Y53547D01*
X224019Y53595D01*
X224027Y53695D01*
X224027Y60975D01*
X224013Y61101D01*
X224006Y61227D01*
X223993Y61273D01*
X223987Y61321D01*
X223945Y61440D01*
X223910Y61562D01*
X223886Y61604D01*
X223870Y61649D01*
X223801Y61756D01*
X223740Y61866D01*
X223700Y61912D01*
X223681Y61942D01*
X223646Y61976D01*
X223581Y62052D01*
X216992Y68641D01*
X216893Y68720D01*
X216799Y68804D01*
X216757Y68828D01*
X216719Y68858D01*
X216605Y68912D01*
X216494Y68973D01*
X216448Y68986D01*
X216404Y69007D01*
X216281Y69033D01*
X216159Y69068D01*
X216098Y69073D01*
X216063Y69080D01*
X216015Y69079D01*
X215915Y69087D01*
X205217Y69087D01*
X205117Y69076D01*
X205017Y69074D01*
X204945Y69056D01*
X204871Y69047D01*
X204776Y69014D01*
X204679Y68989D01*
X204613Y68955D01*
X204543Y68930D01*
X204458Y68875D01*
X204369Y68829D01*
X204312Y68781D01*
X204250Y68741D01*
X204180Y68669D01*
X204104Y68604D01*
X204059Y68544D01*
X204008Y68490D01*
X203956Y68404D01*
X203896Y68323D01*
X203867Y68255D01*
X203829Y68191D01*
X203798Y68095D01*
X203758Y68003D01*
X203745Y67930D01*
X203723Y67859D01*
X203715Y67759D01*
X203697Y67660D01*
X203701Y67586D01*
X203695Y67512D01*
X203710Y67412D01*
X203715Y67312D01*
X203735Y67241D01*
X203746Y67167D01*
X203783Y67074D01*
X203811Y66977D01*
X203848Y66912D01*
X203875Y66843D01*
X203932Y66761D01*
X203981Y66673D01*
X204047Y66597D01*
X204074Y66557D01*
X204100Y66533D01*
X204140Y66487D01*
X207077Y63550D01*
X207773Y61870D01*
X207773Y53695D01*
X207787Y53569D01*
X207794Y53443D01*
X207807Y53397D01*
X207813Y53349D01*
X207855Y53230D01*
X207890Y53108D01*
X207914Y53066D01*
X207930Y53021D01*
X207999Y52914D01*
X208060Y52804D01*
X208100Y52758D01*
X208119Y52728D01*
X208154Y52694D01*
X208219Y52618D01*
X210952Y49884D01*
X212345Y46523D01*
X212345Y29677D01*
X210952Y26316D01*
X208380Y23744D01*
X205019Y22351D01*
X201381Y22351D01*
G37*
%LPD*%
%LPC*%
G36*
X328381Y22351D02*
X328381Y22351D01*
X325020Y23744D01*
X322448Y26316D01*
X321055Y29677D01*
X321055Y46523D01*
X322448Y49884D01*
X325020Y52456D01*
X328381Y53849D01*
X332019Y53849D01*
X335380Y52456D01*
X337952Y49884D01*
X339345Y46523D01*
X339345Y37846D01*
X339348Y37820D01*
X339346Y37794D01*
X339368Y37647D01*
X339385Y37500D01*
X339393Y37475D01*
X339397Y37449D01*
X339452Y37311D01*
X339502Y37172D01*
X339516Y37150D01*
X339526Y37125D01*
X339611Y37004D01*
X339691Y36879D01*
X339710Y36861D01*
X339725Y36839D01*
X339835Y36740D01*
X339942Y36637D01*
X339964Y36623D01*
X339984Y36606D01*
X340114Y36534D01*
X340241Y36458D01*
X340266Y36450D01*
X340289Y36437D01*
X340432Y36397D01*
X340573Y36352D01*
X340599Y36350D01*
X340624Y36342D01*
X340868Y36323D01*
X372125Y36323D01*
X372251Y36337D01*
X372377Y36344D01*
X372423Y36357D01*
X372471Y36363D01*
X372590Y36405D01*
X372712Y36440D01*
X372754Y36464D01*
X372799Y36480D01*
X372905Y36549D01*
X373016Y36610D01*
X373062Y36650D01*
X373092Y36669D01*
X373126Y36704D01*
X373202Y36769D01*
X375533Y39100D01*
X375565Y39140D01*
X375602Y39173D01*
X375673Y39276D01*
X375750Y39373D01*
X375772Y39419D01*
X375800Y39460D01*
X375846Y39576D01*
X375899Y39688D01*
X375910Y39738D01*
X375928Y39784D01*
X375946Y39908D01*
X375972Y40029D01*
X375971Y40079D01*
X375979Y40129D01*
X375968Y40253D01*
X375966Y40377D01*
X375954Y40426D01*
X375950Y40476D01*
X375912Y40595D01*
X375881Y40715D01*
X375858Y40760D01*
X375843Y40808D01*
X375779Y40915D01*
X375722Y41025D01*
X375689Y41064D01*
X375663Y41107D01*
X375577Y41196D01*
X375496Y41291D01*
X375455Y41321D01*
X375420Y41357D01*
X375316Y41424D01*
X375216Y41498D01*
X375169Y41518D01*
X375127Y41545D01*
X375010Y41587D01*
X374896Y41636D01*
X374846Y41645D01*
X374799Y41662D01*
X374675Y41676D01*
X374553Y41698D01*
X374502Y41695D01*
X374452Y41701D01*
X374329Y41686D01*
X374205Y41680D01*
X374156Y41666D01*
X374106Y41660D01*
X373873Y41585D01*
X371591Y40639D01*
X352309Y40639D01*
X348574Y42186D01*
X345716Y45044D01*
X344169Y48779D01*
X344169Y48783D01*
X344155Y48909D01*
X344148Y49035D01*
X344135Y49081D01*
X344129Y49129D01*
X344087Y49248D01*
X344052Y49370D01*
X344028Y49412D01*
X344012Y49457D01*
X343943Y49564D01*
X343882Y49674D01*
X343842Y49720D01*
X343823Y49750D01*
X343788Y49784D01*
X343723Y49860D01*
X300923Y92660D01*
X300227Y94340D01*
X300227Y98705D01*
X300213Y98831D01*
X300206Y98957D01*
X300193Y99003D01*
X300187Y99051D01*
X300145Y99170D01*
X300110Y99292D01*
X300086Y99334D01*
X300070Y99380D01*
X300001Y99486D01*
X299940Y99596D01*
X299900Y99642D01*
X299881Y99672D01*
X299846Y99706D01*
X299781Y99782D01*
X297047Y102516D01*
X295655Y105877D01*
X295655Y122723D01*
X297048Y126084D01*
X299620Y128656D01*
X302981Y130049D01*
X306619Y130049D01*
X309980Y128656D01*
X312552Y126084D01*
X313945Y122723D01*
X313945Y105877D01*
X312553Y102516D01*
X309819Y99782D01*
X309740Y99683D01*
X309656Y99589D01*
X309632Y99547D01*
X309602Y99509D01*
X309548Y99395D01*
X309487Y99284D01*
X309474Y99238D01*
X309453Y99194D01*
X309427Y99071D01*
X309392Y98949D01*
X309387Y98888D01*
X309380Y98854D01*
X309381Y98805D01*
X309373Y98705D01*
X309373Y97775D01*
X309387Y97649D01*
X309394Y97523D01*
X309407Y97477D01*
X309413Y97429D01*
X309455Y97310D01*
X309490Y97188D01*
X309514Y97146D01*
X309530Y97101D01*
X309599Y96994D01*
X309660Y96884D01*
X309700Y96838D01*
X309719Y96808D01*
X309754Y96774D01*
X309819Y96698D01*
X346814Y59703D01*
X346874Y59655D01*
X346927Y59600D01*
X347010Y59547D01*
X347087Y59486D01*
X347156Y59453D01*
X347221Y59412D01*
X347313Y59379D01*
X347402Y59337D01*
X347477Y59321D01*
X347549Y59295D01*
X347647Y59284D01*
X347743Y59264D01*
X347819Y59265D01*
X347895Y59256D01*
X347993Y59268D01*
X348092Y59270D01*
X348166Y59288D01*
X348242Y59297D01*
X348384Y59343D01*
X348430Y59355D01*
X348446Y59363D01*
X348474Y59372D01*
X352309Y60961D01*
X371591Y60961D01*
X375326Y59414D01*
X378184Y56556D01*
X379731Y52821D01*
X379731Y48779D01*
X378785Y46497D01*
X378771Y46448D01*
X378750Y46403D01*
X378724Y46281D01*
X378690Y46161D01*
X378687Y46111D01*
X378677Y46062D01*
X378679Y45937D01*
X378673Y45813D01*
X378682Y45764D01*
X378683Y45713D01*
X378713Y45593D01*
X378735Y45471D01*
X378755Y45424D01*
X378768Y45376D01*
X378825Y45265D01*
X378874Y45151D01*
X378904Y45110D01*
X378927Y45066D01*
X379008Y44971D01*
X379082Y44871D01*
X379120Y44839D01*
X379153Y44800D01*
X379253Y44726D01*
X379348Y44646D01*
X379393Y44623D01*
X379433Y44593D01*
X379548Y44544D01*
X379658Y44487D01*
X379707Y44475D01*
X379753Y44455D01*
X379876Y44433D01*
X379997Y44403D01*
X380047Y44402D01*
X380096Y44393D01*
X380221Y44400D01*
X380345Y44398D01*
X380394Y44409D01*
X380444Y44411D01*
X380564Y44446D01*
X380686Y44472D01*
X380731Y44494D01*
X380779Y44508D01*
X380888Y44569D01*
X381000Y44622D01*
X381040Y44654D01*
X381084Y44678D01*
X381270Y44837D01*
X382331Y45898D01*
X382410Y45997D01*
X382494Y46091D01*
X382518Y46133D01*
X382548Y46171D01*
X382602Y46285D01*
X382663Y46396D01*
X382676Y46442D01*
X382697Y46486D01*
X382723Y46610D01*
X382758Y46731D01*
X382763Y46792D01*
X382770Y46827D01*
X382769Y46875D01*
X382777Y46975D01*
X382777Y99075D01*
X382763Y99201D01*
X382756Y99327D01*
X382743Y99373D01*
X382737Y99421D01*
X382695Y99540D01*
X382660Y99662D01*
X382636Y99704D01*
X382620Y99749D01*
X382551Y99856D01*
X382490Y99966D01*
X382450Y100012D01*
X382431Y100042D01*
X382396Y100076D01*
X382331Y100152D01*
X374711Y107772D01*
X374633Y107834D01*
X374560Y107904D01*
X374496Y107943D01*
X374438Y107989D01*
X374347Y108032D01*
X374261Y108083D01*
X374190Y108106D01*
X374123Y108138D01*
X374025Y108159D01*
X373929Y108189D01*
X373855Y108195D01*
X373782Y108211D01*
X373682Y108209D01*
X373582Y108217D01*
X373508Y108206D01*
X373434Y108205D01*
X373337Y108181D01*
X373237Y108166D01*
X373168Y108138D01*
X373096Y108120D01*
X373006Y108074D01*
X372913Y108037D01*
X372852Y107995D01*
X372786Y107960D01*
X372709Y107895D01*
X372627Y107838D01*
X372577Y107783D01*
X372521Y107735D01*
X372461Y107654D01*
X372394Y107579D01*
X372358Y107514D01*
X372313Y107454D01*
X372274Y107362D01*
X372225Y107274D01*
X372205Y107203D01*
X372175Y107134D01*
X372158Y107036D01*
X372130Y106939D01*
X372122Y106839D01*
X372114Y106791D01*
X372116Y106756D01*
X372111Y106695D01*
X372111Y92928D01*
X370622Y91439D01*
X353278Y91439D01*
X351789Y92928D01*
X351789Y95504D01*
X351788Y95513D01*
X351788Y95515D01*
X351787Y95525D01*
X351786Y95530D01*
X351788Y95556D01*
X351766Y95703D01*
X351749Y95850D01*
X351741Y95875D01*
X351737Y95901D01*
X351682Y96039D01*
X351632Y96178D01*
X351618Y96200D01*
X351608Y96225D01*
X351523Y96346D01*
X351443Y96471D01*
X351424Y96489D01*
X351409Y96511D01*
X351299Y96610D01*
X351192Y96713D01*
X351170Y96727D01*
X351150Y96744D01*
X351020Y96816D01*
X350893Y96892D01*
X350868Y96900D01*
X350845Y96913D01*
X350702Y96953D01*
X350561Y96998D01*
X350535Y97000D01*
X350510Y97008D01*
X350266Y97027D01*
X335640Y97027D01*
X333960Y97723D01*
X333526Y98158D01*
X333466Y98205D01*
X333412Y98260D01*
X333330Y98313D01*
X333253Y98374D01*
X333183Y98407D01*
X333119Y98448D01*
X333026Y98481D01*
X332938Y98523D01*
X332863Y98539D01*
X332791Y98565D01*
X332693Y98576D01*
X332597Y98596D01*
X332520Y98595D01*
X332444Y98604D01*
X332346Y98592D01*
X332248Y98590D01*
X332174Y98572D01*
X332098Y98563D01*
X332062Y98551D01*
X328381Y98551D01*
X325020Y99944D01*
X322448Y102516D01*
X321055Y105877D01*
X321055Y122723D01*
X322448Y126084D01*
X325020Y128656D01*
X328381Y130049D01*
X332019Y130049D01*
X335380Y128656D01*
X337952Y126084D01*
X339345Y122723D01*
X339345Y107696D01*
X339348Y107670D01*
X339346Y107644D01*
X339368Y107497D01*
X339385Y107350D01*
X339393Y107325D01*
X339397Y107299D01*
X339452Y107161D01*
X339502Y107022D01*
X339516Y107000D01*
X339526Y106975D01*
X339611Y106854D01*
X339691Y106729D01*
X339710Y106711D01*
X339725Y106689D01*
X339835Y106590D01*
X339942Y106487D01*
X339964Y106473D01*
X339984Y106456D01*
X340114Y106384D01*
X340241Y106308D01*
X340266Y106300D01*
X340289Y106287D01*
X340432Y106247D01*
X340573Y106202D01*
X340599Y106200D01*
X340624Y106192D01*
X340868Y106173D01*
X350266Y106173D01*
X350292Y106176D01*
X350318Y106174D01*
X350465Y106196D01*
X350612Y106213D01*
X350637Y106221D01*
X350663Y106225D01*
X350801Y106280D01*
X350940Y106330D01*
X350962Y106344D01*
X350987Y106354D01*
X351108Y106439D01*
X351233Y106519D01*
X351251Y106538D01*
X351273Y106553D01*
X351372Y106663D01*
X351475Y106770D01*
X351489Y106792D01*
X351506Y106812D01*
X351578Y106942D01*
X351654Y107069D01*
X351662Y107094D01*
X351675Y107117D01*
X351715Y107260D01*
X351760Y107401D01*
X351762Y107427D01*
X351770Y107452D01*
X351789Y107696D01*
X351789Y110272D01*
X353278Y111761D01*
X367045Y111761D01*
X367145Y111772D01*
X367245Y111774D01*
X367317Y111792D01*
X367391Y111801D01*
X367486Y111834D01*
X367583Y111859D01*
X367649Y111893D01*
X367719Y111918D01*
X367804Y111973D01*
X367893Y112019D01*
X367950Y112067D01*
X368012Y112107D01*
X368082Y112179D01*
X368158Y112244D01*
X368203Y112304D01*
X368254Y112358D01*
X368306Y112444D01*
X368366Y112525D01*
X368395Y112593D01*
X368433Y112657D01*
X368464Y112753D01*
X368504Y112845D01*
X368517Y112918D01*
X368539Y112989D01*
X368547Y113089D01*
X368565Y113188D01*
X368561Y113262D01*
X368567Y113336D01*
X368552Y113436D01*
X368547Y113536D01*
X368527Y113607D01*
X368516Y113681D01*
X368479Y113774D01*
X368451Y113871D01*
X368414Y113936D01*
X368387Y114005D01*
X368330Y114087D01*
X368281Y114175D01*
X368215Y114251D01*
X368188Y114291D01*
X368162Y114315D01*
X368122Y114361D01*
X359574Y122909D01*
X358073Y124410D01*
X357377Y126090D01*
X357377Y159660D01*
X358073Y161340D01*
X365313Y168580D01*
X365392Y168679D01*
X365476Y168773D01*
X365500Y168815D01*
X365530Y168853D01*
X365584Y168967D01*
X365645Y169078D01*
X365658Y169124D01*
X365679Y169168D01*
X365705Y169291D01*
X365740Y169413D01*
X365745Y169474D01*
X365752Y169509D01*
X365751Y169557D01*
X365759Y169657D01*
X365759Y172502D01*
X367248Y173991D01*
X374396Y173991D01*
X374422Y173994D01*
X374448Y173992D01*
X374595Y174014D01*
X374742Y174031D01*
X374767Y174039D01*
X374793Y174043D01*
X374931Y174098D01*
X375070Y174148D01*
X375092Y174162D01*
X375117Y174172D01*
X375238Y174257D01*
X375363Y174337D01*
X375381Y174356D01*
X375403Y174371D01*
X375502Y174481D01*
X375605Y174588D01*
X375619Y174610D01*
X375636Y174630D01*
X375708Y174760D01*
X375784Y174887D01*
X375792Y174912D01*
X375805Y174935D01*
X375845Y175078D01*
X375890Y175219D01*
X375892Y175245D01*
X375900Y175270D01*
X375919Y175514D01*
X375919Y185723D01*
X375902Y185872D01*
X375890Y186022D01*
X375882Y186045D01*
X375879Y186069D01*
X375829Y186210D01*
X375783Y186354D01*
X375770Y186374D01*
X375762Y186397D01*
X375680Y186524D01*
X375603Y186652D01*
X375586Y186670D01*
X375573Y186690D01*
X375465Y186795D01*
X375360Y186902D01*
X375340Y186915D01*
X375322Y186932D01*
X375193Y187009D01*
X375067Y187091D01*
X375044Y187099D01*
X375023Y187111D01*
X374880Y187157D01*
X374738Y187207D01*
X374714Y187210D01*
X374691Y187217D01*
X374542Y187229D01*
X374392Y187246D01*
X374368Y187243D01*
X374344Y187245D01*
X374196Y187223D01*
X374046Y187205D01*
X374018Y187196D01*
X373999Y187194D01*
X373955Y187176D01*
X373813Y187130D01*
X370296Y185673D01*
X366304Y185673D01*
X362616Y187201D01*
X359794Y190023D01*
X358266Y193711D01*
X358266Y212689D01*
X359794Y216377D01*
X362616Y219199D01*
X366304Y220727D01*
X370296Y220727D01*
X373813Y219270D01*
X373958Y219228D01*
X374101Y219183D01*
X374125Y219181D01*
X374148Y219174D01*
X374299Y219167D01*
X374448Y219155D01*
X374472Y219158D01*
X374496Y219157D01*
X374644Y219184D01*
X374793Y219206D01*
X374815Y219215D01*
X374839Y219220D01*
X374977Y219280D01*
X375117Y219335D01*
X375137Y219349D01*
X375159Y219359D01*
X375280Y219448D01*
X375403Y219534D01*
X375419Y219552D01*
X375439Y219567D01*
X375536Y219681D01*
X375636Y219793D01*
X375648Y219814D01*
X375664Y219833D01*
X375732Y219966D01*
X375805Y220098D01*
X375811Y220121D01*
X375822Y220143D01*
X375859Y220288D01*
X375900Y220433D01*
X375902Y220463D01*
X375907Y220481D01*
X375907Y220528D01*
X375919Y220677D01*
X375919Y224108D01*
X375905Y224234D01*
X375898Y224360D01*
X375885Y224407D01*
X375879Y224454D01*
X375837Y224573D01*
X375802Y224695D01*
X375778Y224737D01*
X375762Y224782D01*
X375694Y224887D01*
X374677Y227342D01*
X374677Y229858D01*
X375640Y232182D01*
X377418Y233960D01*
X378462Y234392D01*
X378593Y234465D01*
X378727Y234534D01*
X378746Y234550D01*
X378767Y234562D01*
X378878Y234663D01*
X378993Y234760D01*
X379007Y234780D01*
X379025Y234796D01*
X379110Y234920D01*
X379200Y235040D01*
X379209Y235063D01*
X379223Y235083D01*
X379278Y235222D01*
X379338Y235361D01*
X379342Y235384D01*
X379351Y235407D01*
X379373Y235555D01*
X379399Y235704D01*
X379398Y235728D01*
X379402Y235752D01*
X379389Y235902D01*
X379382Y236052D01*
X379375Y236075D01*
X379373Y236099D01*
X379327Y236242D01*
X379285Y236386D01*
X379273Y236408D01*
X379266Y236431D01*
X379188Y236560D01*
X379115Y236691D01*
X379096Y236713D01*
X379086Y236729D01*
X379053Y236763D01*
X378956Y236877D01*
X347535Y268299D01*
X347475Y268346D01*
X347422Y268401D01*
X347339Y268454D01*
X347262Y268515D01*
X347193Y268548D01*
X347128Y268589D01*
X347036Y268622D01*
X346947Y268664D01*
X346872Y268680D01*
X346800Y268706D01*
X346702Y268717D01*
X346606Y268737D01*
X346530Y268736D01*
X346454Y268745D01*
X346356Y268733D01*
X346257Y268731D01*
X346183Y268713D01*
X346107Y268704D01*
X345965Y268658D01*
X345919Y268646D01*
X345902Y268638D01*
X345875Y268629D01*
X344896Y268223D01*
X340904Y268223D01*
X337216Y269751D01*
X334394Y272573D01*
X332866Y276261D01*
X332866Y295239D01*
X334394Y298927D01*
X337216Y301749D01*
X340904Y303277D01*
X344896Y303277D01*
X348584Y301749D01*
X351406Y298927D01*
X352934Y295239D01*
X352934Y276464D01*
X352948Y276338D01*
X352955Y276212D01*
X352968Y276166D01*
X352974Y276118D01*
X353016Y275999D01*
X353051Y275877D01*
X353075Y275835D01*
X353091Y275790D01*
X353160Y275683D01*
X353221Y275573D01*
X353261Y275527D01*
X353280Y275497D01*
X353315Y275463D01*
X353380Y275387D01*
X356925Y271842D01*
X356964Y271811D01*
X356998Y271774D01*
X357100Y271703D01*
X357198Y271626D01*
X357243Y271604D01*
X357285Y271575D01*
X357400Y271530D01*
X357513Y271477D01*
X357562Y271466D01*
X357609Y271448D01*
X357732Y271429D01*
X357854Y271403D01*
X357904Y271404D01*
X357954Y271397D01*
X358078Y271407D01*
X358202Y271409D01*
X358251Y271421D01*
X358301Y271426D01*
X358419Y271464D01*
X358540Y271494D01*
X358585Y271517D01*
X358633Y271533D01*
X358739Y271597D01*
X358850Y271654D01*
X358888Y271687D01*
X358931Y271712D01*
X359020Y271799D01*
X359115Y271880D01*
X359145Y271920D01*
X359181Y271955D01*
X359248Y272060D01*
X359322Y272160D01*
X359342Y272206D01*
X359369Y272249D01*
X359411Y272366D01*
X359460Y272480D01*
X359469Y272529D01*
X359486Y272577D01*
X359500Y272701D01*
X359522Y272823D01*
X359519Y272873D01*
X359525Y272923D01*
X359510Y273047D01*
X359504Y273171D01*
X359490Y273219D01*
X359484Y273269D01*
X359409Y273502D01*
X358266Y276261D01*
X358266Y295239D01*
X359794Y298927D01*
X362616Y301749D01*
X366304Y303277D01*
X370296Y303277D01*
X373984Y301749D01*
X376806Y298927D01*
X378334Y295239D01*
X378334Y276261D01*
X376738Y272409D01*
X376717Y272335D01*
X376687Y272265D01*
X376669Y272168D01*
X376642Y272074D01*
X376639Y271997D01*
X376625Y271922D01*
X376630Y271824D01*
X376625Y271725D01*
X376639Y271650D01*
X376643Y271574D01*
X376670Y271480D01*
X376688Y271383D01*
X376718Y271312D01*
X376740Y271239D01*
X376788Y271153D01*
X376827Y271063D01*
X376872Y271002D01*
X376910Y270935D01*
X377006Y270821D01*
X377035Y270783D01*
X377049Y270771D01*
X377068Y270749D01*
X418008Y229809D01*
X418107Y229730D01*
X418201Y229646D01*
X418243Y229622D01*
X418281Y229592D01*
X418395Y229538D01*
X418506Y229477D01*
X418552Y229464D01*
X418596Y229443D01*
X418719Y229417D01*
X418841Y229382D01*
X418902Y229377D01*
X418937Y229370D01*
X418985Y229371D01*
X419085Y229363D01*
X449220Y229363D01*
X450900Y228667D01*
X459576Y219991D01*
X461215Y218352D01*
X461236Y218336D01*
X461253Y218315D01*
X461372Y218227D01*
X461488Y218135D01*
X461512Y218124D01*
X461533Y218108D01*
X461669Y218050D01*
X461803Y217986D01*
X461829Y217981D01*
X461853Y217970D01*
X461999Y217944D01*
X462144Y217913D01*
X462170Y217913D01*
X462196Y217909D01*
X462344Y217916D01*
X462492Y217919D01*
X462518Y217925D01*
X462544Y217927D01*
X462687Y217968D01*
X462830Y218004D01*
X462854Y218016D01*
X462879Y218023D01*
X463008Y218096D01*
X463140Y218164D01*
X463160Y218181D01*
X463183Y218194D01*
X463357Y218341D01*
X464641Y219275D01*
X466048Y219992D01*
X467424Y220439D01*
X467424Y204153D01*
X467427Y204127D01*
X467425Y204100D01*
X467447Y203954D01*
X467464Y203806D01*
X467473Y203782D01*
X467477Y203756D01*
X467532Y203618D01*
X467582Y203478D01*
X467596Y203456D01*
X467606Y203432D01*
X467690Y203310D01*
X467762Y203198D01*
X467738Y203174D01*
X467725Y203151D01*
X467707Y203132D01*
X467635Y203002D01*
X467559Y202874D01*
X467551Y202849D01*
X467539Y202826D01*
X467498Y202684D01*
X467453Y202542D01*
X467451Y202516D01*
X467444Y202491D01*
X467424Y202247D01*
X467424Y185961D01*
X466048Y186408D01*
X464641Y187125D01*
X464191Y187452D01*
X464056Y187528D01*
X463923Y187608D01*
X463905Y187614D01*
X463888Y187623D01*
X463738Y187667D01*
X463591Y187714D01*
X463572Y187716D01*
X463553Y187721D01*
X463398Y187730D01*
X463244Y187742D01*
X463225Y187739D01*
X463205Y187740D01*
X463052Y187713D01*
X462899Y187691D01*
X462881Y187683D01*
X462862Y187680D01*
X462719Y187619D01*
X462575Y187562D01*
X462559Y187551D01*
X462542Y187543D01*
X462416Y187451D01*
X462289Y187363D01*
X462276Y187349D01*
X462261Y187337D01*
X462159Y187219D01*
X462056Y187104D01*
X462046Y187087D01*
X462034Y187072D01*
X461962Y186935D01*
X461887Y186799D01*
X461882Y186780D01*
X461873Y186763D01*
X461835Y186614D01*
X461792Y186464D01*
X461790Y186440D01*
X461787Y186426D01*
X461786Y186382D01*
X461773Y186220D01*
X461773Y180325D01*
X461787Y180199D01*
X461794Y180073D01*
X461807Y180027D01*
X461813Y179979D01*
X461855Y179860D01*
X461890Y179738D01*
X461914Y179696D01*
X461930Y179651D01*
X461999Y179544D01*
X462060Y179434D01*
X462100Y179388D01*
X462119Y179358D01*
X462154Y179324D01*
X462219Y179248D01*
X467030Y174437D01*
X467129Y174358D01*
X467223Y174274D01*
X467265Y174250D01*
X467303Y174220D01*
X467417Y174166D01*
X467528Y174105D01*
X467574Y174092D01*
X467618Y174071D01*
X467741Y174045D01*
X467863Y174010D01*
X467924Y174005D01*
X467959Y173998D01*
X468007Y173999D01*
X468107Y173991D01*
X483652Y173991D01*
X485141Y172502D01*
X485141Y157698D01*
X484063Y156620D01*
X483984Y156521D01*
X483900Y156427D01*
X483876Y156385D01*
X483846Y156347D01*
X483792Y156233D01*
X483731Y156122D01*
X483718Y156075D01*
X483697Y156032D01*
X483671Y155908D01*
X483636Y155786D01*
X483631Y155726D01*
X483624Y155691D01*
X483625Y155643D01*
X483617Y155543D01*
X483617Y149257D01*
X483631Y149132D01*
X483638Y149006D01*
X483651Y148959D01*
X483657Y148911D01*
X483699Y148792D01*
X483734Y148671D01*
X483758Y148629D01*
X483774Y148583D01*
X483843Y148477D01*
X483904Y148367D01*
X483944Y148320D01*
X483963Y148290D01*
X483998Y148257D01*
X484063Y148180D01*
X485141Y147102D01*
X485141Y132298D01*
X483652Y130809D01*
X475996Y130809D01*
X475970Y130806D01*
X475944Y130808D01*
X475797Y130786D01*
X475650Y130769D01*
X475625Y130761D01*
X475599Y130757D01*
X475461Y130702D01*
X475322Y130652D01*
X475300Y130638D01*
X475275Y130628D01*
X475154Y130543D01*
X475029Y130463D01*
X475011Y130444D01*
X474989Y130429D01*
X474890Y130319D01*
X474787Y130212D01*
X474773Y130190D01*
X474756Y130170D01*
X474684Y130040D01*
X474608Y129913D01*
X474600Y129888D01*
X474587Y129865D01*
X474547Y129722D01*
X474502Y129581D01*
X474500Y129555D01*
X474492Y129530D01*
X474473Y129286D01*
X474473Y113390D01*
X473777Y111710D01*
X467807Y105740D01*
X467728Y105641D01*
X467644Y105547D01*
X467620Y105505D01*
X467590Y105467D01*
X467536Y105353D01*
X467475Y105242D01*
X467462Y105196D01*
X467441Y105152D01*
X467415Y105029D01*
X467380Y104907D01*
X467375Y104846D01*
X467368Y104811D01*
X467369Y104763D01*
X467361Y104663D01*
X467361Y92928D01*
X465872Y91439D01*
X448528Y91439D01*
X447039Y92928D01*
X447039Y110272D01*
X448528Y111761D01*
X460263Y111761D01*
X460389Y111775D01*
X460515Y111782D01*
X460561Y111795D01*
X460609Y111801D01*
X460728Y111843D01*
X460850Y111878D01*
X460892Y111902D01*
X460937Y111918D01*
X461044Y111987D01*
X461154Y112048D01*
X461200Y112088D01*
X461230Y112107D01*
X461264Y112142D01*
X461340Y112207D01*
X464881Y115748D01*
X464949Y115834D01*
X464977Y115862D01*
X464983Y115873D01*
X465044Y115941D01*
X465068Y115983D01*
X465098Y116021D01*
X465152Y116135D01*
X465213Y116246D01*
X465226Y116292D01*
X465247Y116336D01*
X465273Y116459D01*
X465308Y116581D01*
X465313Y116642D01*
X465320Y116677D01*
X465319Y116725D01*
X465327Y116825D01*
X465327Y129286D01*
X465324Y129312D01*
X465326Y129338D01*
X465304Y129485D01*
X465287Y129632D01*
X465279Y129657D01*
X465275Y129683D01*
X465220Y129821D01*
X465170Y129960D01*
X465156Y129982D01*
X465146Y130007D01*
X465061Y130128D01*
X464981Y130253D01*
X464962Y130271D01*
X464947Y130293D01*
X464837Y130392D01*
X464730Y130495D01*
X464708Y130509D01*
X464688Y130526D01*
X464558Y130598D01*
X464431Y130674D01*
X464406Y130682D01*
X464383Y130695D01*
X464240Y130735D01*
X464099Y130780D01*
X464073Y130782D01*
X464048Y130790D01*
X463804Y130809D01*
X456148Y130809D01*
X454659Y132298D01*
X454659Y133604D01*
X454656Y133630D01*
X454658Y133656D01*
X454636Y133803D01*
X454619Y133950D01*
X454611Y133975D01*
X454607Y134001D01*
X454552Y134139D01*
X454502Y134278D01*
X454488Y134300D01*
X454478Y134325D01*
X454393Y134446D01*
X454313Y134571D01*
X454294Y134589D01*
X454279Y134611D01*
X454169Y134710D01*
X454062Y134813D01*
X454040Y134827D01*
X454020Y134844D01*
X453890Y134916D01*
X453763Y134992D01*
X453738Y135000D01*
X453715Y135013D01*
X453572Y135053D01*
X453431Y135098D01*
X453405Y135100D01*
X453380Y135108D01*
X453136Y135127D01*
X442214Y135127D01*
X442188Y135124D01*
X442162Y135126D01*
X442015Y135104D01*
X441868Y135087D01*
X441843Y135079D01*
X441817Y135075D01*
X441679Y135020D01*
X441540Y134970D01*
X441518Y134956D01*
X441493Y134946D01*
X441372Y134861D01*
X441247Y134781D01*
X441229Y134762D01*
X441207Y134747D01*
X441108Y134637D01*
X441005Y134530D01*
X440991Y134508D01*
X440974Y134488D01*
X440902Y134358D01*
X440826Y134231D01*
X440818Y134206D01*
X440805Y134183D01*
X440765Y134040D01*
X440720Y133899D01*
X440718Y133873D01*
X440710Y133848D01*
X440691Y133604D01*
X440691Y132298D01*
X439202Y130809D01*
X412496Y130809D01*
X412470Y130806D01*
X412444Y130808D01*
X412297Y130786D01*
X412150Y130769D01*
X412125Y130761D01*
X412099Y130757D01*
X411961Y130702D01*
X411822Y130652D01*
X411800Y130638D01*
X411775Y130628D01*
X411654Y130543D01*
X411529Y130463D01*
X411511Y130444D01*
X411489Y130429D01*
X411390Y130319D01*
X411287Y130212D01*
X411273Y130190D01*
X411256Y130170D01*
X411184Y130040D01*
X411108Y129913D01*
X411100Y129888D01*
X411087Y129865D01*
X411047Y129722D01*
X411002Y129581D01*
X411000Y129555D01*
X410992Y129530D01*
X410973Y129286D01*
X410973Y123175D01*
X410987Y123049D01*
X410994Y122923D01*
X411007Y122877D01*
X411013Y122829D01*
X411055Y122710D01*
X411090Y122588D01*
X411114Y122546D01*
X411130Y122501D01*
X411199Y122394D01*
X411260Y122284D01*
X411300Y122238D01*
X411319Y122208D01*
X411354Y122174D01*
X411419Y122098D01*
X421310Y112207D01*
X421409Y112128D01*
X421503Y112044D01*
X421545Y112020D01*
X421583Y111990D01*
X421697Y111936D01*
X421808Y111875D01*
X421854Y111862D01*
X421898Y111841D01*
X422021Y111815D01*
X422143Y111780D01*
X422204Y111775D01*
X422239Y111768D01*
X422287Y111769D01*
X422387Y111761D01*
X427772Y111761D01*
X429261Y110272D01*
X429261Y92928D01*
X427772Y91439D01*
X410428Y91439D01*
X408939Y92928D01*
X408939Y110574D01*
X408956Y110665D01*
X408987Y110809D01*
X408986Y110836D01*
X408991Y110862D01*
X408983Y111010D01*
X408981Y111158D01*
X408974Y111184D01*
X408973Y111210D01*
X408932Y111352D01*
X408896Y111496D01*
X408884Y111519D01*
X408877Y111545D01*
X408804Y111674D01*
X408736Y111806D01*
X408719Y111826D01*
X408706Y111849D01*
X408548Y112035D01*
X402523Y118060D01*
X401827Y119740D01*
X401827Y185967D01*
X401816Y186067D01*
X401814Y186168D01*
X401796Y186240D01*
X401787Y186313D01*
X401753Y186408D01*
X401729Y186506D01*
X401695Y186571D01*
X401670Y186641D01*
X401615Y186726D01*
X401569Y186815D01*
X401521Y186872D01*
X401481Y186934D01*
X401408Y187004D01*
X401343Y187081D01*
X401284Y187125D01*
X401230Y187176D01*
X401144Y187228D01*
X401063Y187288D01*
X400995Y187317D01*
X400931Y187355D01*
X400835Y187386D01*
X400743Y187426D01*
X400670Y187439D01*
X400599Y187461D01*
X400499Y187469D01*
X400400Y187487D01*
X400326Y187483D01*
X400252Y187489D01*
X400152Y187474D01*
X400052Y187469D01*
X399981Y187449D01*
X399907Y187438D01*
X399814Y187400D01*
X399717Y187373D01*
X399652Y187336D01*
X399583Y187309D01*
X399501Y187252D01*
X399485Y187243D01*
X395696Y185673D01*
X391704Y185673D01*
X388187Y187130D01*
X388042Y187172D01*
X387899Y187217D01*
X387875Y187219D01*
X387852Y187226D01*
X387701Y187233D01*
X387552Y187245D01*
X387528Y187242D01*
X387504Y187243D01*
X387356Y187216D01*
X387207Y187194D01*
X387185Y187185D01*
X387161Y187180D01*
X387023Y187120D01*
X386883Y187065D01*
X386863Y187051D01*
X386841Y187041D01*
X386720Y186952D01*
X386597Y186866D01*
X386581Y186848D01*
X386561Y186833D01*
X386464Y186719D01*
X386364Y186607D01*
X386352Y186586D01*
X386336Y186567D01*
X386268Y186434D01*
X386195Y186302D01*
X386189Y186279D01*
X386178Y186257D01*
X386141Y186112D01*
X386100Y185967D01*
X386098Y185937D01*
X386093Y185919D01*
X386093Y185872D01*
X386081Y185723D01*
X386081Y175514D01*
X386084Y175488D01*
X386082Y175462D01*
X386104Y175315D01*
X386121Y175168D01*
X386129Y175143D01*
X386133Y175117D01*
X386188Y174979D01*
X386238Y174840D01*
X386252Y174818D01*
X386262Y174793D01*
X386347Y174672D01*
X386427Y174547D01*
X386446Y174529D01*
X386461Y174507D01*
X386571Y174408D01*
X386678Y174305D01*
X386700Y174291D01*
X386720Y174274D01*
X386850Y174202D01*
X386977Y174126D01*
X387002Y174118D01*
X387025Y174105D01*
X387168Y174065D01*
X387309Y174020D01*
X387335Y174018D01*
X387360Y174010D01*
X387604Y173991D01*
X394752Y173991D01*
X396241Y172502D01*
X396241Y157698D01*
X395163Y156620D01*
X395084Y156521D01*
X395000Y156427D01*
X394976Y156385D01*
X394946Y156347D01*
X394892Y156233D01*
X394831Y156122D01*
X394818Y156075D01*
X394797Y156032D01*
X394771Y155908D01*
X394736Y155786D01*
X394731Y155726D01*
X394724Y155691D01*
X394725Y155643D01*
X394717Y155543D01*
X394717Y149257D01*
X394731Y149132D01*
X394738Y149006D01*
X394751Y148959D01*
X394757Y148911D01*
X394799Y148792D01*
X394834Y148671D01*
X394858Y148629D01*
X394874Y148583D01*
X394943Y148477D01*
X395004Y148367D01*
X395044Y148320D01*
X395063Y148290D01*
X395098Y148257D01*
X395163Y148180D01*
X396241Y147102D01*
X396241Y132298D01*
X394752Y130809D01*
X387335Y130809D01*
X387235Y130798D01*
X387135Y130796D01*
X387063Y130778D01*
X386989Y130769D01*
X386894Y130736D01*
X386797Y130711D01*
X386731Y130677D01*
X386661Y130652D01*
X386576Y130597D01*
X386487Y130551D01*
X386430Y130503D01*
X386368Y130463D01*
X386298Y130391D01*
X386222Y130326D01*
X386177Y130266D01*
X386126Y130212D01*
X386074Y130126D01*
X386014Y130045D01*
X385985Y129977D01*
X385947Y129913D01*
X385916Y129817D01*
X385876Y129725D01*
X385863Y129652D01*
X385841Y129581D01*
X385833Y129481D01*
X385815Y129382D01*
X385819Y129308D01*
X385813Y129234D01*
X385828Y129134D01*
X385833Y129034D01*
X385853Y128963D01*
X385864Y128889D01*
X385901Y128796D01*
X385929Y128699D01*
X385966Y128634D01*
X385993Y128565D01*
X386050Y128483D01*
X386099Y128395D01*
X386165Y128319D01*
X386192Y128279D01*
X386218Y128255D01*
X386258Y128209D01*
X403927Y110540D01*
X404623Y108860D01*
X404623Y91425D01*
X404637Y91299D01*
X404644Y91173D01*
X404657Y91127D01*
X404663Y91079D01*
X404705Y90960D01*
X404740Y90838D01*
X404764Y90796D01*
X404780Y90751D01*
X404849Y90644D01*
X404910Y90534D01*
X404950Y90488D01*
X404969Y90458D01*
X405004Y90424D01*
X405069Y90348D01*
X408610Y86807D01*
X408709Y86728D01*
X408803Y86644D01*
X408845Y86620D01*
X408883Y86590D01*
X408997Y86536D01*
X409108Y86475D01*
X409154Y86462D01*
X409198Y86441D01*
X409321Y86415D01*
X409443Y86380D01*
X409504Y86375D01*
X409539Y86368D01*
X409587Y86369D01*
X409687Y86361D01*
X428741Y86361D01*
X432476Y84814D01*
X435334Y81956D01*
X435434Y81713D01*
X435471Y81646D01*
X435500Y81575D01*
X435556Y81494D01*
X435604Y81408D01*
X435655Y81352D01*
X435699Y81289D01*
X435772Y81223D01*
X435838Y81150D01*
X435901Y81107D01*
X435957Y81056D01*
X436044Y81008D01*
X436124Y80952D01*
X436195Y80924D01*
X436262Y80887D01*
X436357Y80860D01*
X436449Y80824D01*
X436524Y80813D01*
X436598Y80792D01*
X436747Y80780D01*
X436793Y80773D01*
X436813Y80775D01*
X436842Y80773D01*
X439458Y80773D01*
X439534Y80781D01*
X439611Y80780D01*
X439707Y80801D01*
X439805Y80813D01*
X439877Y80838D01*
X439951Y80855D01*
X440040Y80897D01*
X440133Y80930D01*
X440197Y80972D01*
X440266Y81004D01*
X440343Y81066D01*
X440426Y81119D01*
X440479Y81174D01*
X440538Y81222D01*
X440599Y81299D01*
X440668Y81370D01*
X440707Y81435D01*
X440754Y81495D01*
X440822Y81628D01*
X440847Y81669D01*
X440852Y81687D01*
X440866Y81713D01*
X440966Y81956D01*
X443824Y84814D01*
X447559Y86361D01*
X466841Y86361D01*
X470576Y84814D01*
X473434Y81956D01*
X474981Y78221D01*
X474981Y74179D01*
X473434Y70444D01*
X470576Y67586D01*
X466841Y66039D01*
X447559Y66039D01*
X443824Y67586D01*
X440966Y70444D01*
X440866Y70687D01*
X440829Y70754D01*
X440800Y70825D01*
X440744Y70906D01*
X440696Y70992D01*
X440645Y71048D01*
X440601Y71111D01*
X440528Y71177D01*
X440462Y71250D01*
X440399Y71293D01*
X440343Y71344D01*
X440256Y71392D01*
X440176Y71448D01*
X440105Y71476D01*
X440038Y71513D01*
X439943Y71540D01*
X439851Y71576D01*
X439776Y71587D01*
X439702Y71608D01*
X439553Y71620D01*
X439507Y71627D01*
X439487Y71625D01*
X439458Y71627D01*
X436842Y71627D01*
X436766Y71619D01*
X436689Y71620D01*
X436593Y71599D01*
X436495Y71587D01*
X436423Y71562D01*
X436349Y71545D01*
X436260Y71503D01*
X436167Y71470D01*
X436103Y71428D01*
X436034Y71396D01*
X435957Y71334D01*
X435874Y71281D01*
X435821Y71226D01*
X435762Y71178D01*
X435701Y71101D01*
X435632Y71030D01*
X435593Y70965D01*
X435546Y70905D01*
X435478Y70772D01*
X435453Y70731D01*
X435448Y70713D01*
X435434Y70687D01*
X435334Y70444D01*
X432476Y67586D01*
X428741Y66039D01*
X409459Y66039D01*
X405724Y67586D01*
X402866Y70444D01*
X401319Y74179D01*
X401319Y78221D01*
X401792Y79362D01*
X401813Y79435D01*
X401843Y79505D01*
X401860Y79602D01*
X401887Y79697D01*
X401891Y79773D01*
X401905Y79848D01*
X401900Y79947D01*
X401904Y80045D01*
X401891Y80120D01*
X401887Y80196D01*
X401859Y80291D01*
X401842Y80388D01*
X401811Y80458D01*
X401790Y80531D01*
X401742Y80617D01*
X401703Y80707D01*
X401657Y80769D01*
X401620Y80835D01*
X401523Y80949D01*
X401495Y80987D01*
X401480Y80999D01*
X401462Y81022D01*
X397674Y84809D01*
X396173Y86310D01*
X395477Y87990D01*
X395477Y105425D01*
X395463Y105551D01*
X395456Y105677D01*
X395443Y105723D01*
X395437Y105771D01*
X395395Y105890D01*
X395360Y106012D01*
X395336Y106054D01*
X395320Y106099D01*
X395251Y106206D01*
X395190Y106316D01*
X395150Y106362D01*
X395131Y106392D01*
X395096Y106426D01*
X395031Y106502D01*
X377123Y124410D01*
X376427Y126090D01*
X376427Y129286D01*
X376424Y129312D01*
X376426Y129338D01*
X376404Y129485D01*
X376387Y129632D01*
X376379Y129657D01*
X376375Y129683D01*
X376320Y129821D01*
X376270Y129960D01*
X376256Y129982D01*
X376246Y130007D01*
X376161Y130128D01*
X376081Y130253D01*
X376062Y130271D01*
X376047Y130293D01*
X375937Y130392D01*
X375830Y130495D01*
X375808Y130509D01*
X375788Y130526D01*
X375658Y130598D01*
X375531Y130674D01*
X375506Y130682D01*
X375483Y130695D01*
X375340Y130735D01*
X375199Y130780D01*
X375173Y130782D01*
X375148Y130790D01*
X374904Y130809D01*
X368285Y130809D01*
X368185Y130798D01*
X368085Y130796D01*
X368013Y130778D01*
X367939Y130769D01*
X367844Y130736D01*
X367747Y130711D01*
X367681Y130677D01*
X367611Y130652D01*
X367526Y130597D01*
X367437Y130551D01*
X367380Y130503D01*
X367318Y130463D01*
X367248Y130391D01*
X367172Y130326D01*
X367127Y130266D01*
X367076Y130212D01*
X367024Y130126D01*
X366964Y130045D01*
X366935Y129977D01*
X366897Y129913D01*
X366866Y129817D01*
X366826Y129725D01*
X366813Y129652D01*
X366791Y129581D01*
X366783Y129481D01*
X366765Y129382D01*
X366769Y129308D01*
X366763Y129234D01*
X366778Y129134D01*
X366783Y129034D01*
X366803Y128963D01*
X366814Y128889D01*
X366851Y128796D01*
X366879Y128699D01*
X366916Y128634D01*
X366943Y128565D01*
X367000Y128483D01*
X367049Y128395D01*
X367115Y128319D01*
X367142Y128279D01*
X367168Y128255D01*
X367208Y128209D01*
X391227Y104190D01*
X391923Y102510D01*
X391923Y43540D01*
X391227Y41860D01*
X377240Y27873D01*
X375560Y27177D01*
X339327Y27177D01*
X339251Y27169D01*
X339175Y27170D01*
X339079Y27149D01*
X338981Y27137D01*
X338909Y27112D01*
X338834Y27095D01*
X338746Y27053D01*
X338653Y27020D01*
X338588Y26978D01*
X338520Y26946D01*
X338443Y26884D01*
X338360Y26831D01*
X338307Y26776D01*
X338247Y26728D01*
X338186Y26651D01*
X338118Y26580D01*
X338079Y26515D01*
X338031Y26455D01*
X337968Y26332D01*
X335380Y23744D01*
X332019Y22351D01*
X328381Y22351D01*
G37*
%LPD*%
%LPC*%
G36*
X175981Y98551D02*
X175981Y98551D01*
X172620Y99944D01*
X170048Y102516D01*
X168655Y105877D01*
X168655Y122723D01*
X170048Y126084D01*
X172620Y128656D01*
X175981Y130049D01*
X177307Y130049D01*
X177407Y130060D01*
X177507Y130062D01*
X177579Y130080D01*
X177653Y130089D01*
X177748Y130122D01*
X177845Y130147D01*
X177911Y130181D01*
X177981Y130206D01*
X178066Y130261D01*
X178155Y130307D01*
X178212Y130355D01*
X178274Y130395D01*
X178344Y130467D01*
X178420Y130532D01*
X178465Y130592D01*
X178516Y130646D01*
X178568Y130732D01*
X178628Y130813D01*
X178657Y130881D01*
X178695Y130945D01*
X178726Y131041D01*
X178766Y131133D01*
X178779Y131206D01*
X178801Y131277D01*
X178809Y131377D01*
X178827Y131476D01*
X178823Y131550D01*
X178829Y131624D01*
X178814Y131724D01*
X178809Y131824D01*
X178789Y131895D01*
X178778Y131969D01*
X178741Y132062D01*
X178713Y132159D01*
X178676Y132224D01*
X178649Y132293D01*
X178592Y132375D01*
X178543Y132463D01*
X178477Y132539D01*
X178450Y132579D01*
X178424Y132603D01*
X178384Y132649D01*
X175424Y135609D01*
X173923Y137110D01*
X173227Y138790D01*
X173227Y175275D01*
X173213Y175401D01*
X173206Y175527D01*
X173193Y175573D01*
X173187Y175621D01*
X173145Y175740D01*
X173110Y175862D01*
X173086Y175904D01*
X173070Y175949D01*
X173001Y176056D01*
X172940Y176166D01*
X172900Y176212D01*
X172881Y176242D01*
X172846Y176276D01*
X172781Y176352D01*
X156907Y192226D01*
X156847Y192274D01*
X156794Y192329D01*
X156711Y192382D01*
X156634Y192443D01*
X156565Y192476D01*
X156500Y192517D01*
X156408Y192550D01*
X156319Y192592D01*
X156244Y192608D01*
X156172Y192634D01*
X156074Y192645D01*
X155978Y192665D01*
X155902Y192664D01*
X155826Y192672D01*
X155728Y192661D01*
X155630Y192659D01*
X155555Y192641D01*
X155480Y192632D01*
X155338Y192586D01*
X155292Y192574D01*
X155275Y192565D01*
X155247Y192557D01*
X154573Y192277D01*
X150227Y192277D01*
X146213Y193940D01*
X143140Y197013D01*
X142861Y197687D01*
X142824Y197754D01*
X142796Y197825D01*
X142739Y197906D01*
X142692Y197992D01*
X142640Y198048D01*
X142597Y198111D01*
X142524Y198177D01*
X142457Y198250D01*
X142395Y198293D01*
X142338Y198344D01*
X142252Y198392D01*
X142171Y198448D01*
X142100Y198476D01*
X142033Y198513D01*
X141938Y198540D01*
X141847Y198576D01*
X141771Y198587D01*
X141697Y198608D01*
X141549Y198620D01*
X141502Y198627D01*
X141483Y198625D01*
X141454Y198627D01*
X129895Y198627D01*
X129769Y198613D01*
X129643Y198606D01*
X129597Y198593D01*
X129549Y198587D01*
X129430Y198545D01*
X129308Y198510D01*
X129266Y198486D01*
X129221Y198470D01*
X129114Y198401D01*
X129004Y198340D01*
X128958Y198300D01*
X128928Y198281D01*
X128894Y198246D01*
X128818Y198181D01*
X126084Y195448D01*
X122723Y194055D01*
X105877Y194055D01*
X102516Y195448D01*
X99944Y198020D01*
X98551Y201381D01*
X98551Y205019D01*
X99944Y208380D01*
X102516Y210952D01*
X105877Y212345D01*
X122723Y212345D01*
X126084Y210952D01*
X128818Y208219D01*
X128917Y208140D01*
X129011Y208056D01*
X129053Y208032D01*
X129091Y208002D01*
X129205Y207948D01*
X129316Y207887D01*
X129362Y207874D01*
X129406Y207853D01*
X129529Y207827D01*
X129651Y207792D01*
X129712Y207787D01*
X129747Y207780D01*
X129795Y207781D01*
X129895Y207773D01*
X141454Y207773D01*
X141529Y207781D01*
X141606Y207780D01*
X141702Y207801D01*
X141800Y207813D01*
X141872Y207838D01*
X141946Y207855D01*
X142035Y207897D01*
X142128Y207930D01*
X142192Y207972D01*
X142261Y208004D01*
X142338Y208066D01*
X142421Y208119D01*
X142474Y208174D01*
X142534Y208222D01*
X142594Y208299D01*
X142663Y208370D01*
X142702Y208435D01*
X142749Y208495D01*
X142818Y208628D01*
X142842Y208669D01*
X142848Y208687D01*
X142861Y208713D01*
X143140Y209387D01*
X146213Y212460D01*
X150227Y214123D01*
X154573Y214123D01*
X158587Y212460D01*
X161660Y209387D01*
X163323Y205373D01*
X163323Y201027D01*
X163043Y200353D01*
X163022Y200280D01*
X162992Y200209D01*
X162975Y200113D01*
X162948Y200018D01*
X162944Y199942D01*
X162931Y199866D01*
X162936Y199768D01*
X162931Y199670D01*
X162945Y199595D01*
X162948Y199518D01*
X162976Y199424D01*
X162993Y199327D01*
X163024Y199257D01*
X163045Y199184D01*
X163093Y199098D01*
X163132Y199007D01*
X163178Y198946D01*
X163215Y198879D01*
X163312Y198766D01*
X163340Y198728D01*
X163355Y198715D01*
X163374Y198693D01*
X180176Y181891D01*
X181677Y180390D01*
X182373Y178710D01*
X182373Y142225D01*
X182387Y142099D01*
X182394Y141973D01*
X182407Y141927D01*
X182413Y141879D01*
X182455Y141760D01*
X182490Y141638D01*
X182514Y141596D01*
X182530Y141551D01*
X182599Y141444D01*
X182660Y141334D01*
X182700Y141288D01*
X182719Y141258D01*
X182754Y141224D01*
X182819Y141148D01*
X195588Y128379D01*
X195609Y128363D01*
X195626Y128342D01*
X195745Y128254D01*
X195861Y128162D01*
X195885Y128151D01*
X195906Y128135D01*
X196042Y128076D01*
X196176Y128013D01*
X196202Y128008D01*
X196226Y127997D01*
X196372Y127971D01*
X196517Y127940D01*
X196543Y127940D01*
X196569Y127936D01*
X196717Y127943D01*
X196865Y127946D01*
X196891Y127952D01*
X196917Y127954D01*
X197059Y127995D01*
X197203Y128031D01*
X197227Y128043D01*
X197252Y128050D01*
X197381Y128122D01*
X197513Y128190D01*
X197533Y128208D01*
X197556Y128220D01*
X197742Y128379D01*
X198020Y128657D01*
X201381Y130049D01*
X202707Y130049D01*
X202807Y130060D01*
X202907Y130062D01*
X202979Y130080D01*
X203053Y130089D01*
X203148Y130122D01*
X203245Y130147D01*
X203311Y130181D01*
X203381Y130206D01*
X203466Y130261D01*
X203555Y130307D01*
X203612Y130355D01*
X203674Y130395D01*
X203744Y130467D01*
X203820Y130532D01*
X203865Y130592D01*
X203916Y130646D01*
X203968Y130732D01*
X204028Y130813D01*
X204057Y130881D01*
X204095Y130945D01*
X204126Y131041D01*
X204166Y131133D01*
X204179Y131206D01*
X204201Y131277D01*
X204209Y131377D01*
X204227Y131476D01*
X204223Y131550D01*
X204229Y131624D01*
X204214Y131724D01*
X204209Y131824D01*
X204189Y131895D01*
X204178Y131969D01*
X204141Y132062D01*
X204113Y132159D01*
X204076Y132224D01*
X204049Y132293D01*
X203992Y132375D01*
X203943Y132463D01*
X203877Y132539D01*
X203850Y132579D01*
X203824Y132603D01*
X203784Y132649D01*
X186623Y149810D01*
X185927Y151490D01*
X185927Y200675D01*
X185913Y200801D01*
X185906Y200927D01*
X185893Y200973D01*
X185887Y201021D01*
X185845Y201140D01*
X185810Y201262D01*
X185786Y201304D01*
X185770Y201349D01*
X185701Y201456D01*
X185640Y201566D01*
X185600Y201612D01*
X185581Y201642D01*
X185546Y201676D01*
X185481Y201752D01*
X164198Y223036D01*
X164080Y223129D01*
X163965Y223226D01*
X163943Y223237D01*
X163925Y223252D01*
X163789Y223316D01*
X163655Y223385D01*
X163631Y223391D01*
X163609Y223401D01*
X163463Y223433D01*
X163317Y223469D01*
X163292Y223469D01*
X163269Y223475D01*
X163119Y223472D01*
X162968Y223474D01*
X162944Y223469D01*
X162920Y223469D01*
X162775Y223432D01*
X162628Y223400D01*
X162606Y223389D01*
X162582Y223384D01*
X162448Y223315D01*
X162313Y223250D01*
X162294Y223235D01*
X162272Y223224D01*
X162158Y223126D01*
X162040Y223033D01*
X162026Y223014D01*
X162007Y222998D01*
X161918Y222877D01*
X161825Y222759D01*
X161811Y222733D01*
X161800Y222718D01*
X161781Y222674D01*
X161713Y222541D01*
X161660Y222413D01*
X158587Y219340D01*
X154573Y217677D01*
X150227Y217677D01*
X146213Y219340D01*
X143140Y222413D01*
X142861Y223087D01*
X142824Y223154D01*
X142796Y223225D01*
X142739Y223306D01*
X142692Y223392D01*
X142640Y223448D01*
X142597Y223511D01*
X142524Y223577D01*
X142457Y223650D01*
X142395Y223693D01*
X142338Y223744D01*
X142252Y223792D01*
X142171Y223848D01*
X142100Y223876D01*
X142033Y223913D01*
X141938Y223940D01*
X141847Y223976D01*
X141771Y223987D01*
X141697Y224008D01*
X141549Y224020D01*
X141502Y224027D01*
X141483Y224025D01*
X141454Y224027D01*
X129895Y224027D01*
X129769Y224013D01*
X129643Y224006D01*
X129597Y223993D01*
X129549Y223987D01*
X129430Y223945D01*
X129308Y223910D01*
X129266Y223886D01*
X129220Y223870D01*
X129114Y223801D01*
X129004Y223740D01*
X128958Y223700D01*
X128928Y223681D01*
X128894Y223646D01*
X128818Y223581D01*
X126084Y220847D01*
X122723Y219455D01*
X105877Y219455D01*
X102516Y220848D01*
X99944Y223420D01*
X98551Y226781D01*
X98551Y230419D01*
X99944Y233780D01*
X102516Y236352D01*
X105877Y237745D01*
X122723Y237745D01*
X126084Y236353D01*
X128818Y233619D01*
X128917Y233540D01*
X129011Y233456D01*
X129053Y233432D01*
X129091Y233402D01*
X129205Y233348D01*
X129316Y233287D01*
X129362Y233274D01*
X129406Y233253D01*
X129529Y233227D01*
X129651Y233192D01*
X129712Y233187D01*
X129746Y233180D01*
X129795Y233181D01*
X129895Y233173D01*
X141454Y233173D01*
X141529Y233181D01*
X141606Y233180D01*
X141702Y233201D01*
X141800Y233213D01*
X141872Y233238D01*
X141946Y233255D01*
X142035Y233297D01*
X142128Y233330D01*
X142192Y233372D01*
X142261Y233404D01*
X142338Y233466D01*
X142421Y233519D01*
X142474Y233574D01*
X142534Y233622D01*
X142594Y233699D01*
X142663Y233770D01*
X142702Y233835D01*
X142749Y233895D01*
X142818Y234028D01*
X142842Y234069D01*
X142848Y234087D01*
X142861Y234113D01*
X143140Y234787D01*
X146213Y237860D01*
X150227Y239523D01*
X154573Y239523D01*
X158587Y237860D01*
X161660Y234787D01*
X161939Y234113D01*
X161976Y234046D01*
X162004Y233975D01*
X162061Y233894D01*
X162108Y233808D01*
X162160Y233752D01*
X162203Y233689D01*
X162276Y233623D01*
X162343Y233550D01*
X162405Y233507D01*
X162462Y233456D01*
X162548Y233408D01*
X162629Y233352D01*
X162700Y233324D01*
X162767Y233287D01*
X162862Y233260D01*
X162953Y233224D01*
X163029Y233213D01*
X163103Y233192D01*
X163251Y233180D01*
X163298Y233173D01*
X163317Y233175D01*
X163346Y233173D01*
X166010Y233173D01*
X167690Y232477D01*
X194377Y205790D01*
X195073Y204110D01*
X195073Y154925D01*
X195087Y154799D01*
X195094Y154673D01*
X195107Y154627D01*
X195113Y154579D01*
X195155Y154460D01*
X195190Y154338D01*
X195214Y154296D01*
X195230Y154251D01*
X195299Y154144D01*
X195360Y154034D01*
X195400Y153988D01*
X195419Y153958D01*
X195454Y153924D01*
X195519Y153848D01*
X220988Y128379D01*
X221009Y128363D01*
X221026Y128342D01*
X221145Y128254D01*
X221261Y128162D01*
X221285Y128151D01*
X221306Y128135D01*
X221442Y128076D01*
X221576Y128013D01*
X221602Y128008D01*
X221626Y127997D01*
X221772Y127971D01*
X221917Y127940D01*
X221943Y127940D01*
X221969Y127936D01*
X222117Y127943D01*
X222265Y127946D01*
X222291Y127952D01*
X222317Y127954D01*
X222459Y127995D01*
X222603Y128031D01*
X222627Y128043D01*
X222652Y128050D01*
X222781Y128122D01*
X222913Y128190D01*
X222933Y128208D01*
X222956Y128220D01*
X223142Y128379D01*
X223420Y128657D01*
X226781Y130049D01*
X228107Y130049D01*
X228207Y130060D01*
X228307Y130062D01*
X228379Y130080D01*
X228453Y130089D01*
X228548Y130122D01*
X228645Y130147D01*
X228711Y130181D01*
X228781Y130206D01*
X228866Y130261D01*
X228955Y130307D01*
X229012Y130355D01*
X229074Y130395D01*
X229144Y130467D01*
X229220Y130532D01*
X229265Y130592D01*
X229316Y130646D01*
X229368Y130732D01*
X229428Y130813D01*
X229457Y130881D01*
X229495Y130945D01*
X229526Y131041D01*
X229566Y131133D01*
X229579Y131206D01*
X229601Y131277D01*
X229609Y131377D01*
X229627Y131476D01*
X229623Y131550D01*
X229629Y131624D01*
X229614Y131724D01*
X229609Y131824D01*
X229589Y131895D01*
X229578Y131969D01*
X229541Y132062D01*
X229513Y132159D01*
X229476Y132224D01*
X229449Y132293D01*
X229392Y132375D01*
X229343Y132463D01*
X229277Y132539D01*
X229250Y132579D01*
X229224Y132603D01*
X229184Y132649D01*
X200824Y161009D01*
X199323Y162510D01*
X198627Y164190D01*
X198627Y213375D01*
X198613Y213501D01*
X198606Y213627D01*
X198593Y213673D01*
X198587Y213721D01*
X198545Y213840D01*
X198510Y213962D01*
X198486Y214004D01*
X198470Y214049D01*
X198401Y214156D01*
X198340Y214266D01*
X198300Y214312D01*
X198281Y214342D01*
X198246Y214376D01*
X198181Y214452D01*
X164198Y248436D01*
X164080Y248529D01*
X163965Y248626D01*
X163943Y248637D01*
X163925Y248652D01*
X163789Y248716D01*
X163655Y248785D01*
X163631Y248791D01*
X163609Y248801D01*
X163463Y248833D01*
X163317Y248869D01*
X163292Y248869D01*
X163269Y248875D01*
X163119Y248872D01*
X162968Y248874D01*
X162944Y248869D01*
X162920Y248869D01*
X162775Y248832D01*
X162628Y248800D01*
X162606Y248789D01*
X162582Y248784D01*
X162448Y248715D01*
X162313Y248650D01*
X162294Y248635D01*
X162272Y248624D01*
X162158Y248526D01*
X162040Y248433D01*
X162026Y248414D01*
X162007Y248398D01*
X161918Y248277D01*
X161825Y248159D01*
X161811Y248133D01*
X161800Y248118D01*
X161781Y248074D01*
X161713Y247941D01*
X161660Y247813D01*
X158587Y244740D01*
X154573Y243077D01*
X150227Y243077D01*
X146213Y244740D01*
X143140Y247813D01*
X142861Y248487D01*
X142824Y248554D01*
X142796Y248625D01*
X142739Y248706D01*
X142692Y248792D01*
X142640Y248848D01*
X142597Y248911D01*
X142524Y248977D01*
X142457Y249050D01*
X142395Y249093D01*
X142338Y249144D01*
X142252Y249192D01*
X142171Y249248D01*
X142100Y249276D01*
X142033Y249313D01*
X141938Y249340D01*
X141847Y249376D01*
X141771Y249387D01*
X141697Y249408D01*
X141549Y249420D01*
X141502Y249427D01*
X141483Y249425D01*
X141454Y249427D01*
X129895Y249427D01*
X129769Y249413D01*
X129643Y249406D01*
X129597Y249393D01*
X129549Y249387D01*
X129430Y249345D01*
X129308Y249310D01*
X129266Y249286D01*
X129220Y249270D01*
X129114Y249201D01*
X129004Y249140D01*
X128958Y249100D01*
X128928Y249081D01*
X128894Y249046D01*
X128818Y248981D01*
X126084Y246247D01*
X122723Y244855D01*
X105877Y244855D01*
X102516Y246248D01*
X99944Y248820D01*
X98551Y252181D01*
X98551Y255819D01*
X99944Y259180D01*
X102516Y261752D01*
X105877Y263145D01*
X122723Y263145D01*
X126084Y261753D01*
X128818Y259019D01*
X128917Y258940D01*
X129011Y258856D01*
X129053Y258832D01*
X129091Y258802D01*
X129205Y258748D01*
X129316Y258687D01*
X129362Y258674D01*
X129406Y258653D01*
X129529Y258627D01*
X129651Y258592D01*
X129712Y258587D01*
X129746Y258580D01*
X129795Y258581D01*
X129895Y258573D01*
X141454Y258573D01*
X141529Y258581D01*
X141606Y258580D01*
X141702Y258601D01*
X141800Y258613D01*
X141872Y258638D01*
X141946Y258655D01*
X142035Y258697D01*
X142128Y258730D01*
X142192Y258772D01*
X142261Y258804D01*
X142338Y258866D01*
X142421Y258919D01*
X142474Y258974D01*
X142534Y259022D01*
X142594Y259099D01*
X142663Y259170D01*
X142702Y259235D01*
X142749Y259295D01*
X142818Y259428D01*
X142842Y259469D01*
X142848Y259487D01*
X142861Y259513D01*
X143140Y260187D01*
X146213Y263260D01*
X150227Y264923D01*
X154573Y264923D01*
X158587Y263260D01*
X161660Y260187D01*
X161939Y259513D01*
X161976Y259446D01*
X162004Y259375D01*
X162061Y259294D01*
X162108Y259208D01*
X162160Y259152D01*
X162203Y259089D01*
X162276Y259023D01*
X162343Y258950D01*
X162405Y258907D01*
X162462Y258856D01*
X162548Y258808D01*
X162629Y258752D01*
X162700Y258724D01*
X162767Y258687D01*
X162862Y258660D01*
X162953Y258624D01*
X163029Y258613D01*
X163103Y258592D01*
X163251Y258580D01*
X163298Y258573D01*
X163317Y258575D01*
X163346Y258573D01*
X166010Y258573D01*
X167690Y257877D01*
X207077Y218490D01*
X207773Y216810D01*
X207773Y167625D01*
X207787Y167500D01*
X207794Y167373D01*
X207807Y167327D01*
X207813Y167279D01*
X207855Y167160D01*
X207890Y167038D01*
X207914Y166996D01*
X207930Y166951D01*
X207999Y166844D01*
X208060Y166734D01*
X208100Y166688D01*
X208119Y166658D01*
X208154Y166624D01*
X208219Y166548D01*
X208727Y166040D01*
X208805Y165978D01*
X208878Y165908D01*
X208942Y165869D01*
X209000Y165823D01*
X209091Y165780D01*
X209177Y165729D01*
X209248Y165706D01*
X209315Y165674D01*
X209413Y165653D01*
X209509Y165623D01*
X209583Y165617D01*
X209656Y165601D01*
X209756Y165603D01*
X209856Y165595D01*
X209930Y165606D01*
X210004Y165607D01*
X210102Y165631D01*
X210201Y165646D01*
X210270Y165674D01*
X210342Y165692D01*
X210431Y165738D01*
X210525Y165775D01*
X210586Y165817D01*
X210652Y165852D01*
X210728Y165917D01*
X210811Y165974D01*
X210861Y166029D01*
X210917Y166077D01*
X210977Y166158D01*
X211044Y166233D01*
X211080Y166298D01*
X211125Y166358D01*
X211164Y166450D01*
X211213Y166538D01*
X211233Y166609D01*
X211263Y166678D01*
X211280Y166776D01*
X211308Y166873D01*
X211316Y166973D01*
X211324Y167021D01*
X211322Y167056D01*
X211327Y167117D01*
X211327Y226075D01*
X211313Y226201D01*
X211306Y226327D01*
X211293Y226373D01*
X211287Y226421D01*
X211245Y226540D01*
X211210Y226662D01*
X211186Y226704D01*
X211170Y226749D01*
X211101Y226856D01*
X211040Y226966D01*
X211000Y227012D01*
X210981Y227042D01*
X210946Y227076D01*
X210881Y227152D01*
X164198Y273836D01*
X164080Y273929D01*
X163965Y274026D01*
X163943Y274037D01*
X163925Y274052D01*
X163789Y274116D01*
X163655Y274185D01*
X163631Y274191D01*
X163609Y274201D01*
X163463Y274233D01*
X163317Y274269D01*
X163292Y274269D01*
X163269Y274275D01*
X163119Y274272D01*
X162968Y274274D01*
X162944Y274269D01*
X162920Y274269D01*
X162775Y274232D01*
X162628Y274200D01*
X162606Y274189D01*
X162582Y274184D01*
X162448Y274115D01*
X162313Y274050D01*
X162294Y274035D01*
X162272Y274024D01*
X162158Y273926D01*
X162040Y273833D01*
X162026Y273814D01*
X162007Y273798D01*
X161918Y273677D01*
X161825Y273559D01*
X161811Y273533D01*
X161800Y273518D01*
X161781Y273474D01*
X161713Y273341D01*
X161660Y273213D01*
X158587Y270140D01*
X154573Y268477D01*
X150227Y268477D01*
X146213Y270140D01*
X143140Y273213D01*
X142861Y273887D01*
X142824Y273954D01*
X142796Y274025D01*
X142739Y274106D01*
X142692Y274192D01*
X142640Y274248D01*
X142597Y274311D01*
X142524Y274377D01*
X142457Y274450D01*
X142395Y274493D01*
X142338Y274544D01*
X142252Y274592D01*
X142171Y274648D01*
X142100Y274676D01*
X142033Y274713D01*
X141938Y274740D01*
X141847Y274776D01*
X141771Y274787D01*
X141697Y274808D01*
X141549Y274820D01*
X141502Y274827D01*
X141483Y274825D01*
X141454Y274827D01*
X129895Y274827D01*
X129769Y274813D01*
X129643Y274806D01*
X129597Y274793D01*
X129549Y274787D01*
X129430Y274745D01*
X129308Y274710D01*
X129266Y274686D01*
X129221Y274670D01*
X129114Y274601D01*
X129004Y274540D01*
X128958Y274500D01*
X128928Y274481D01*
X128894Y274446D01*
X128818Y274381D01*
X126084Y271648D01*
X122723Y270255D01*
X105877Y270255D01*
X102516Y271648D01*
X99944Y274220D01*
X98551Y277581D01*
X98551Y281219D01*
X99944Y284580D01*
X102516Y287152D01*
X105877Y288545D01*
X122723Y288545D01*
X126084Y287152D01*
X128818Y284419D01*
X128917Y284340D01*
X129011Y284256D01*
X129053Y284232D01*
X129091Y284202D01*
X129205Y284148D01*
X129316Y284087D01*
X129362Y284074D01*
X129406Y284053D01*
X129529Y284027D01*
X129651Y283992D01*
X129712Y283987D01*
X129747Y283980D01*
X129795Y283981D01*
X129895Y283973D01*
X141454Y283973D01*
X141529Y283981D01*
X141606Y283980D01*
X141702Y284001D01*
X141800Y284013D01*
X141872Y284038D01*
X141946Y284055D01*
X142035Y284097D01*
X142128Y284130D01*
X142192Y284172D01*
X142261Y284204D01*
X142338Y284266D01*
X142421Y284319D01*
X142474Y284374D01*
X142534Y284422D01*
X142594Y284499D01*
X142663Y284570D01*
X142702Y284635D01*
X142749Y284695D01*
X142818Y284828D01*
X142842Y284869D01*
X142848Y284887D01*
X142861Y284913D01*
X143140Y285587D01*
X146213Y288660D01*
X150227Y290323D01*
X154573Y290323D01*
X158587Y288660D01*
X161660Y285587D01*
X161939Y284913D01*
X161976Y284846D01*
X162004Y284775D01*
X162061Y284694D01*
X162108Y284608D01*
X162160Y284552D01*
X162203Y284489D01*
X162276Y284423D01*
X162343Y284350D01*
X162405Y284307D01*
X162462Y284256D01*
X162548Y284208D01*
X162629Y284152D01*
X162700Y284124D01*
X162767Y284087D01*
X162862Y284060D01*
X162953Y284024D01*
X163029Y284013D01*
X163103Y283992D01*
X163251Y283980D01*
X163298Y283973D01*
X163317Y283975D01*
X163346Y283973D01*
X166010Y283973D01*
X167690Y283277D01*
X169191Y281776D01*
X208727Y242240D01*
X208805Y242178D01*
X208878Y242108D01*
X208942Y242069D01*
X209000Y242023D01*
X209091Y241980D01*
X209177Y241929D01*
X209248Y241906D01*
X209315Y241874D01*
X209413Y241853D01*
X209509Y241823D01*
X209583Y241817D01*
X209656Y241801D01*
X209756Y241803D01*
X209856Y241795D01*
X209930Y241806D01*
X210004Y241807D01*
X210101Y241831D01*
X210201Y241846D01*
X210270Y241874D01*
X210342Y241892D01*
X210432Y241938D01*
X210525Y241975D01*
X210586Y242017D01*
X210652Y242052D01*
X210729Y242117D01*
X210811Y242174D01*
X210861Y242229D01*
X210917Y242277D01*
X210977Y242358D01*
X211044Y242433D01*
X211080Y242498D01*
X211125Y242558D01*
X211164Y242650D01*
X211213Y242738D01*
X211233Y242809D01*
X211263Y242878D01*
X211280Y242976D01*
X211308Y243073D01*
X211316Y243173D01*
X211324Y243221D01*
X211322Y243256D01*
X211327Y243317D01*
X211327Y333094D01*
X211324Y333118D01*
X211326Y333142D01*
X211315Y333215D01*
X211314Y333294D01*
X211296Y333366D01*
X211287Y333440D01*
X211278Y333467D01*
X211275Y333487D01*
X211250Y333550D01*
X211229Y333632D01*
X211195Y333698D01*
X211170Y333768D01*
X211152Y333796D01*
X211146Y333810D01*
X211111Y333861D01*
X211069Y333942D01*
X211021Y333998D01*
X210981Y334061D01*
X210954Y334087D01*
X210947Y334097D01*
X210905Y334134D01*
X210843Y334207D01*
X210783Y334251D01*
X210730Y334303D01*
X210695Y334324D01*
X210688Y334330D01*
X210643Y334355D01*
X210563Y334414D01*
X210495Y334444D01*
X210431Y334482D01*
X210390Y334495D01*
X210383Y334499D01*
X210341Y334510D01*
X210335Y334512D01*
X210243Y334552D01*
X210170Y334565D01*
X210099Y334588D01*
X210054Y334591D01*
X210048Y334593D01*
X209985Y334598D01*
X209899Y334614D01*
X209836Y334610D01*
X209804Y334613D01*
X209800Y334613D01*
X209795Y334612D01*
X209752Y334616D01*
X209652Y334601D01*
X209551Y334596D01*
X209486Y334577D01*
X209454Y334573D01*
X209445Y334570D01*
X209407Y334564D01*
X209313Y334527D01*
X209217Y334499D01*
X209163Y334469D01*
X209126Y334456D01*
X209113Y334447D01*
X209083Y334435D01*
X209048Y334411D01*
X205205Y332819D01*
X201195Y332819D01*
X197490Y334354D01*
X194654Y337190D01*
X193119Y340895D01*
X193119Y344905D01*
X194654Y348610D01*
X197490Y351446D01*
X201195Y352981D01*
X205205Y352981D01*
X209067Y351381D01*
X209090Y351370D01*
X209177Y351318D01*
X209247Y351296D01*
X209314Y351264D01*
X209413Y351243D01*
X209509Y351212D01*
X209583Y351206D01*
X209655Y351191D01*
X209756Y351192D01*
X209856Y351184D01*
X209929Y351195D01*
X210003Y351196D01*
X210101Y351221D01*
X210201Y351236D01*
X210270Y351263D01*
X210341Y351281D01*
X210431Y351327D01*
X210525Y351365D01*
X210585Y351407D01*
X210651Y351441D01*
X210728Y351506D01*
X210811Y351563D01*
X210860Y351618D01*
X210917Y351666D01*
X210977Y351747D01*
X211044Y351822D01*
X211080Y351887D01*
X211124Y351947D01*
X211164Y352039D01*
X211213Y352127D01*
X211233Y352199D01*
X211262Y352266D01*
X211280Y352366D01*
X211308Y352463D01*
X211316Y352562D01*
X211324Y352609D01*
X211322Y352645D01*
X211327Y352706D01*
X211327Y353075D01*
X211313Y353201D01*
X211306Y353327D01*
X211293Y353373D01*
X211287Y353421D01*
X211245Y353540D01*
X211210Y353662D01*
X211186Y353704D01*
X211170Y353749D01*
X211101Y353856D01*
X211040Y353966D01*
X211000Y354012D01*
X210981Y354042D01*
X210946Y354076D01*
X210881Y354152D01*
X207062Y357971D01*
X207003Y358018D01*
X206949Y358073D01*
X206866Y358126D01*
X206789Y358187D01*
X206720Y358220D01*
X206656Y358261D01*
X206563Y358294D01*
X206474Y358336D01*
X206400Y358352D01*
X206328Y358378D01*
X206230Y358389D01*
X206134Y358410D01*
X206057Y358408D01*
X205981Y358417D01*
X205883Y358405D01*
X205785Y358404D01*
X205711Y358385D01*
X205635Y358376D01*
X205493Y358330D01*
X205447Y358319D01*
X205430Y358310D01*
X205402Y358301D01*
X205205Y358219D01*
X201195Y358219D01*
X197490Y359754D01*
X194654Y362590D01*
X193119Y366295D01*
X193119Y370305D01*
X194654Y374010D01*
X197490Y376846D01*
X201195Y378381D01*
X205205Y378381D01*
X208910Y376846D01*
X211746Y374010D01*
X213281Y370305D01*
X213281Y366295D01*
X213199Y366098D01*
X213178Y366024D01*
X213148Y365954D01*
X213130Y365857D01*
X213103Y365763D01*
X213100Y365686D01*
X213086Y365611D01*
X213091Y365513D01*
X213086Y365414D01*
X213100Y365339D01*
X213104Y365263D01*
X213131Y365168D01*
X213149Y365072D01*
X213179Y365002D01*
X213201Y364928D01*
X213249Y364842D01*
X213288Y364752D01*
X213333Y364691D01*
X213371Y364624D01*
X213467Y364510D01*
X213496Y364472D01*
X213510Y364460D01*
X213529Y364438D01*
X218276Y359691D01*
X219777Y358190D01*
X220473Y356510D01*
X220473Y352706D01*
X220484Y352606D01*
X220486Y352506D01*
X220504Y352434D01*
X220513Y352360D01*
X220547Y352265D01*
X220571Y352168D01*
X220605Y352102D01*
X220630Y352032D01*
X220685Y351947D01*
X220731Y351858D01*
X220779Y351802D01*
X220819Y351739D01*
X220892Y351669D01*
X220957Y351593D01*
X221017Y351549D01*
X221070Y351497D01*
X221156Y351445D01*
X221237Y351386D01*
X221305Y351356D01*
X221369Y351318D01*
X221465Y351288D01*
X221557Y351248D01*
X221630Y351235D01*
X221701Y351212D01*
X221801Y351204D01*
X221901Y351186D01*
X221974Y351190D01*
X222048Y351184D01*
X222148Y351199D01*
X222249Y351204D01*
X222320Y351225D01*
X222393Y351236D01*
X222487Y351273D01*
X222583Y351301D01*
X222648Y351337D01*
X222717Y351365D01*
X222752Y351389D01*
X226595Y352981D01*
X230605Y352981D01*
X234310Y351446D01*
X237146Y348610D01*
X238681Y344905D01*
X238681Y340895D01*
X237146Y337190D01*
X234310Y334354D01*
X230605Y332819D01*
X226595Y332819D01*
X222733Y334419D01*
X222710Y334430D01*
X222623Y334482D01*
X222591Y334492D01*
X222579Y334499D01*
X222543Y334509D01*
X222486Y334536D01*
X222387Y334557D01*
X222291Y334588D01*
X222252Y334591D01*
X222244Y334593D01*
X222205Y334596D01*
X222145Y334609D01*
X222061Y334608D01*
X222000Y334613D01*
X221996Y334613D01*
X221989Y334612D01*
X221944Y334616D01*
X221871Y334605D01*
X221797Y334604D01*
X221699Y334579D01*
X221688Y334578D01*
X221650Y334573D01*
X221643Y334571D01*
X221599Y334564D01*
X221530Y334537D01*
X221459Y334519D01*
X221369Y334473D01*
X221365Y334471D01*
X221322Y334456D01*
X221315Y334451D01*
X221275Y334435D01*
X221215Y334393D01*
X221149Y334359D01*
X221073Y334295D01*
X221029Y334267D01*
X221022Y334259D01*
X220989Y334237D01*
X220940Y334182D01*
X220883Y334134D01*
X220827Y334057D01*
X220787Y334016D01*
X220780Y334005D01*
X220756Y333978D01*
X220720Y333913D01*
X220676Y333853D01*
X220640Y333771D01*
X220608Y333717D01*
X220603Y333701D01*
X220587Y333673D01*
X220567Y333601D01*
X220538Y333534D01*
X220523Y333451D01*
X220502Y333385D01*
X220500Y333364D01*
X220492Y333337D01*
X220484Y333238D01*
X220476Y333191D01*
X220478Y333155D01*
X220473Y333094D01*
X220473Y243825D01*
X220487Y243699D01*
X220494Y243573D01*
X220507Y243527D01*
X220513Y243479D01*
X220555Y243360D01*
X220590Y243238D01*
X220614Y243196D01*
X220630Y243151D01*
X220699Y243044D01*
X220760Y242934D01*
X220800Y242888D01*
X220819Y242858D01*
X220854Y242824D01*
X220919Y242748D01*
X233678Y229989D01*
X233795Y229896D01*
X233910Y229798D01*
X233932Y229787D01*
X233951Y229772D01*
X234087Y229708D01*
X234221Y229640D01*
X234244Y229634D01*
X234266Y229624D01*
X234413Y229592D01*
X234559Y229556D01*
X234583Y229555D01*
X234607Y229550D01*
X234756Y229553D01*
X234907Y229551D01*
X234931Y229556D01*
X234955Y229556D01*
X235101Y229593D01*
X235248Y229625D01*
X235269Y229635D01*
X235293Y229641D01*
X235427Y229710D01*
X235562Y229775D01*
X235581Y229790D01*
X235603Y229801D01*
X235717Y229898D01*
X235835Y229992D01*
X235850Y230011D01*
X235868Y230027D01*
X235957Y230147D01*
X236051Y230265D01*
X236064Y230292D01*
X236075Y230307D01*
X236094Y230350D01*
X236162Y230483D01*
X237766Y234356D01*
X240624Y237214D01*
X244359Y238761D01*
X263641Y238761D01*
X267376Y237214D01*
X270234Y234356D01*
X271781Y230621D01*
X271781Y226579D01*
X270234Y222844D01*
X267376Y219986D01*
X263641Y218439D01*
X248905Y218439D01*
X248805Y218428D01*
X248705Y218426D01*
X248633Y218408D01*
X248559Y218399D01*
X248464Y218366D01*
X248367Y218341D01*
X248301Y218307D01*
X248231Y218282D01*
X248146Y218227D01*
X248057Y218181D01*
X248000Y218133D01*
X247938Y218093D01*
X247868Y218021D01*
X247792Y217956D01*
X247747Y217896D01*
X247696Y217842D01*
X247644Y217756D01*
X247584Y217675D01*
X247555Y217607D01*
X247517Y217543D01*
X247486Y217447D01*
X247446Y217355D01*
X247433Y217282D01*
X247411Y217211D01*
X247403Y217111D01*
X247385Y217012D01*
X247389Y216938D01*
X247383Y216864D01*
X247398Y216764D01*
X247403Y216664D01*
X247423Y216593D01*
X247434Y216519D01*
X247471Y216426D01*
X247499Y216329D01*
X247536Y216264D01*
X247563Y216195D01*
X247620Y216113D01*
X247669Y216025D01*
X247735Y215949D01*
X247762Y215909D01*
X247788Y215885D01*
X247828Y215839D01*
X249860Y213807D01*
X249959Y213728D01*
X250053Y213644D01*
X250095Y213620D01*
X250133Y213590D01*
X250247Y213536D01*
X250358Y213475D01*
X250404Y213462D01*
X250448Y213441D01*
X250571Y213415D01*
X250693Y213380D01*
X250754Y213375D01*
X250789Y213368D01*
X250837Y213369D01*
X250937Y213361D01*
X263641Y213361D01*
X267376Y211814D01*
X270234Y208956D01*
X271781Y205221D01*
X271781Y201179D01*
X270234Y197444D01*
X269305Y196516D01*
X269289Y196495D01*
X269269Y196478D01*
X269181Y196359D01*
X269089Y196243D01*
X269077Y196219D01*
X269062Y196198D01*
X269003Y196062D01*
X268940Y195928D01*
X268934Y195902D01*
X268924Y195878D01*
X268898Y195732D01*
X268866Y195587D01*
X268867Y195561D01*
X268862Y195535D01*
X268870Y195386D01*
X268872Y195239D01*
X268879Y195213D01*
X268880Y195187D01*
X268921Y195044D01*
X268957Y194901D01*
X268969Y194877D01*
X268977Y194852D01*
X269049Y194722D01*
X269117Y194591D01*
X269134Y194571D01*
X269147Y194548D01*
X269305Y194362D01*
X299898Y163769D01*
X299997Y163690D01*
X300091Y163606D01*
X300133Y163582D01*
X300171Y163552D01*
X300285Y163498D01*
X300396Y163437D01*
X300442Y163424D01*
X300486Y163403D01*
X300609Y163377D01*
X300731Y163342D01*
X300792Y163337D01*
X300827Y163330D01*
X300875Y163331D01*
X300975Y163323D01*
X327675Y163323D01*
X327801Y163337D01*
X327927Y163344D01*
X327973Y163357D01*
X328021Y163363D01*
X328140Y163405D01*
X328262Y163440D01*
X328304Y163464D01*
X328349Y163480D01*
X328456Y163549D01*
X328566Y163610D01*
X328612Y163650D01*
X328642Y163669D01*
X328676Y163704D01*
X328752Y163769D01*
X337881Y172898D01*
X337960Y172997D01*
X338044Y173091D01*
X338068Y173133D01*
X338098Y173171D01*
X338152Y173285D01*
X338213Y173396D01*
X338226Y173442D01*
X338247Y173486D01*
X338273Y173609D01*
X338308Y173731D01*
X338313Y173792D01*
X338320Y173827D01*
X338319Y173875D01*
X338327Y173975D01*
X338327Y185723D01*
X338319Y185799D01*
X338320Y185875D01*
X338299Y185971D01*
X338287Y186069D01*
X338262Y186141D01*
X338245Y186216D01*
X338203Y186305D01*
X338170Y186397D01*
X338128Y186461D01*
X338096Y186530D01*
X338034Y186607D01*
X337981Y186690D01*
X337926Y186743D01*
X337878Y186803D01*
X337801Y186864D01*
X337730Y186932D01*
X337665Y186971D01*
X337605Y187019D01*
X337472Y187087D01*
X337431Y187111D01*
X337413Y187117D01*
X337387Y187130D01*
X337216Y187201D01*
X334394Y190023D01*
X332866Y193711D01*
X332866Y212689D01*
X334394Y216377D01*
X337216Y219199D01*
X340904Y220727D01*
X344896Y220727D01*
X348584Y219199D01*
X351406Y216377D01*
X352934Y212689D01*
X352934Y193711D01*
X351406Y190023D01*
X348584Y187201D01*
X348413Y187130D01*
X348346Y187093D01*
X348275Y187065D01*
X348194Y187009D01*
X348109Y186961D01*
X348052Y186910D01*
X347989Y186866D01*
X347923Y186793D01*
X347850Y186727D01*
X347807Y186664D01*
X347756Y186607D01*
X347708Y186521D01*
X347652Y186440D01*
X347624Y186369D01*
X347587Y186302D01*
X347560Y186207D01*
X347524Y186116D01*
X347513Y186040D01*
X347492Y185967D01*
X347480Y185818D01*
X347473Y185771D01*
X347475Y185752D01*
X347473Y185723D01*
X347473Y170540D01*
X346777Y168860D01*
X332790Y154873D01*
X331110Y154177D01*
X297540Y154177D01*
X295860Y154873D01*
X294359Y156374D01*
X274162Y176572D01*
X274040Y176668D01*
X273921Y176767D01*
X273904Y176776D01*
X273889Y176788D01*
X273749Y176854D01*
X273610Y176924D01*
X273591Y176929D01*
X273573Y176937D01*
X273422Y176970D01*
X273299Y176999D01*
X273297Y177036D01*
X273277Y177107D01*
X273266Y177181D01*
X273229Y177274D01*
X273201Y177371D01*
X273164Y177436D01*
X273137Y177505D01*
X273080Y177587D01*
X273031Y177675D01*
X272966Y177751D01*
X272938Y177791D01*
X272912Y177815D01*
X272872Y177861D01*
X270840Y179893D01*
X270741Y179972D01*
X270647Y180056D01*
X270605Y180080D01*
X270567Y180110D01*
X270453Y180164D01*
X270342Y180225D01*
X270296Y180238D01*
X270252Y180259D01*
X270129Y180285D01*
X270007Y180320D01*
X269946Y180325D01*
X269911Y180332D01*
X269863Y180331D01*
X269763Y180339D01*
X256539Y180339D01*
X256539Y187961D01*
X259095Y187961D01*
X259195Y187972D01*
X259295Y187974D01*
X259367Y187992D01*
X259441Y188001D01*
X259536Y188034D01*
X259633Y188059D01*
X259699Y188093D01*
X259769Y188118D01*
X259854Y188173D01*
X259943Y188219D01*
X260000Y188267D01*
X260062Y188307D01*
X260132Y188379D01*
X260208Y188444D01*
X260253Y188504D01*
X260304Y188558D01*
X260356Y188644D01*
X260416Y188725D01*
X260445Y188793D01*
X260483Y188857D01*
X260514Y188952D01*
X260554Y189045D01*
X260567Y189118D01*
X260589Y189189D01*
X260597Y189289D01*
X260615Y189388D01*
X260611Y189462D01*
X260617Y189536D01*
X260602Y189635D01*
X260597Y189736D01*
X260577Y189807D01*
X260566Y189881D01*
X260529Y189974D01*
X260501Y190071D01*
X260464Y190136D01*
X260437Y190205D01*
X260380Y190287D01*
X260331Y190375D01*
X260265Y190451D01*
X260238Y190491D01*
X260212Y190515D01*
X260172Y190561D01*
X258140Y192593D01*
X258041Y192672D01*
X257947Y192756D01*
X257905Y192780D01*
X257867Y192810D01*
X257753Y192864D01*
X257642Y192925D01*
X257596Y192938D01*
X257552Y192959D01*
X257429Y192985D01*
X257307Y193020D01*
X257246Y193025D01*
X257211Y193032D01*
X257163Y193031D01*
X257063Y193039D01*
X244359Y193039D01*
X240624Y194586D01*
X237766Y197444D01*
X236219Y201179D01*
X236219Y205221D01*
X237766Y208956D01*
X238695Y209884D01*
X238711Y209905D01*
X238731Y209922D01*
X238819Y210041D01*
X238911Y210157D01*
X238923Y210181D01*
X238938Y210202D01*
X238997Y210338D01*
X239060Y210472D01*
X239066Y210498D01*
X239076Y210522D01*
X239102Y210668D01*
X239134Y210813D01*
X239133Y210839D01*
X239138Y210865D01*
X239130Y211014D01*
X239128Y211161D01*
X239121Y211187D01*
X239120Y211213D01*
X239079Y211356D01*
X239043Y211499D01*
X239031Y211523D01*
X239023Y211548D01*
X238951Y211677D01*
X238883Y211809D01*
X238866Y211829D01*
X238853Y211852D01*
X238695Y212038D01*
X223073Y227660D01*
X222995Y227722D01*
X222922Y227792D01*
X222858Y227831D01*
X222800Y227877D01*
X222709Y227920D01*
X222623Y227971D01*
X222552Y227994D01*
X222485Y228026D01*
X222387Y228047D01*
X222291Y228077D01*
X222217Y228083D01*
X222144Y228099D01*
X222044Y228097D01*
X221944Y228105D01*
X221870Y228094D01*
X221796Y228093D01*
X221699Y228069D01*
X221599Y228054D01*
X221530Y228026D01*
X221458Y228008D01*
X221368Y227962D01*
X221275Y227925D01*
X221214Y227883D01*
X221148Y227848D01*
X221071Y227783D01*
X220989Y227726D01*
X220939Y227671D01*
X220883Y227623D01*
X220823Y227542D01*
X220756Y227467D01*
X220720Y227402D01*
X220675Y227342D01*
X220636Y227250D01*
X220587Y227162D01*
X220567Y227091D01*
X220537Y227022D01*
X220520Y226924D01*
X220492Y226827D01*
X220484Y226727D01*
X220476Y226679D01*
X220478Y226644D01*
X220473Y226583D01*
X220473Y167625D01*
X220487Y167499D01*
X220494Y167373D01*
X220507Y167327D01*
X220513Y167279D01*
X220555Y167160D01*
X220590Y167038D01*
X220614Y166996D01*
X220630Y166951D01*
X220699Y166844D01*
X220760Y166734D01*
X220800Y166688D01*
X220819Y166658D01*
X220854Y166624D01*
X220919Y166548D01*
X233678Y153789D01*
X233780Y153708D01*
X233867Y153629D01*
X233887Y153618D01*
X233910Y153598D01*
X233932Y153587D01*
X233951Y153572D01*
X234084Y153510D01*
X234172Y153461D01*
X234189Y153456D01*
X234221Y153440D01*
X234244Y153434D01*
X234266Y153424D01*
X234413Y153392D01*
X234437Y153386D01*
X234508Y153366D01*
X234522Y153365D01*
X234559Y153356D01*
X234583Y153355D01*
X234607Y153350D01*
X234686Y153352D01*
X234752Y153346D01*
X234756Y153346D01*
X234806Y153352D01*
X234907Y153351D01*
X234931Y153356D01*
X234955Y153356D01*
X235051Y153380D01*
X235102Y153386D01*
X235153Y153404D01*
X235248Y153425D01*
X235269Y153435D01*
X235293Y153441D01*
X235377Y153485D01*
X235431Y153504D01*
X235479Y153535D01*
X235562Y153575D01*
X235581Y153590D01*
X235603Y153601D01*
X235671Y153659D01*
X235723Y153693D01*
X235767Y153738D01*
X235835Y153792D01*
X235850Y153811D01*
X235868Y153827D01*
X235918Y153894D01*
X235966Y153943D01*
X236001Y154002D01*
X236051Y154065D01*
X236064Y154092D01*
X236075Y154107D01*
X236094Y154150D01*
X236122Y154206D01*
X236144Y154242D01*
X236150Y154259D01*
X236162Y154283D01*
X237766Y158156D01*
X240624Y161014D01*
X244359Y162561D01*
X263641Y162561D01*
X267376Y161014D01*
X270234Y158156D01*
X271781Y154421D01*
X271781Y150379D01*
X270234Y146644D01*
X267376Y143786D01*
X263641Y142239D01*
X248905Y142239D01*
X248805Y142228D01*
X248705Y142226D01*
X248633Y142208D01*
X248559Y142199D01*
X248464Y142165D01*
X248367Y142141D01*
X248301Y142107D01*
X248231Y142082D01*
X248146Y142027D01*
X248057Y141981D01*
X248000Y141933D01*
X247938Y141893D01*
X247868Y141821D01*
X247792Y141756D01*
X247747Y141696D01*
X247696Y141642D01*
X247644Y141556D01*
X247584Y141475D01*
X247555Y141407D01*
X247517Y141343D01*
X247486Y141247D01*
X247446Y141155D01*
X247433Y141082D01*
X247411Y141011D01*
X247403Y140911D01*
X247385Y140812D01*
X247389Y140738D01*
X247383Y140664D01*
X247398Y140564D01*
X247403Y140464D01*
X247423Y140393D01*
X247434Y140319D01*
X247471Y140226D01*
X247499Y140129D01*
X247536Y140064D01*
X247563Y139995D01*
X247620Y139913D01*
X247669Y139825D01*
X247735Y139749D01*
X247762Y139709D01*
X247788Y139685D01*
X247828Y139639D01*
X248844Y138623D01*
X248943Y138544D01*
X249037Y138460D01*
X249079Y138436D01*
X249117Y138406D01*
X249231Y138352D01*
X249342Y138291D01*
X249388Y138278D01*
X249432Y138257D01*
X249556Y138231D01*
X249677Y138196D01*
X249738Y138191D01*
X249773Y138184D01*
X249821Y138185D01*
X249921Y138177D01*
X261658Y138177D01*
X263339Y137481D01*
X272114Y128705D01*
X272135Y128689D01*
X272152Y128669D01*
X272271Y128581D01*
X272387Y128488D01*
X272411Y128477D01*
X272432Y128462D01*
X272568Y128403D01*
X272702Y128339D01*
X272728Y128334D01*
X272752Y128324D01*
X272899Y128297D01*
X273043Y128266D01*
X273069Y128267D01*
X273095Y128262D01*
X273244Y128270D01*
X273391Y128272D01*
X273417Y128278D01*
X273443Y128280D01*
X273586Y128321D01*
X273729Y128357D01*
X273753Y128369D01*
X273778Y128376D01*
X273907Y128449D01*
X274039Y128517D01*
X274059Y128534D01*
X274082Y128547D01*
X274203Y128650D01*
X277581Y130049D01*
X281219Y130049D01*
X284580Y128656D01*
X287152Y126084D01*
X288545Y122723D01*
X288545Y105877D01*
X287152Y102516D01*
X284580Y99944D01*
X281219Y98551D01*
X277581Y98551D01*
X274220Y99944D01*
X271648Y102516D01*
X270255Y105877D01*
X270255Y116999D01*
X270241Y117125D01*
X270234Y117251D01*
X270221Y117298D01*
X270215Y117346D01*
X270173Y117465D01*
X270138Y117586D01*
X270114Y117628D01*
X270098Y117674D01*
X270029Y117780D01*
X269968Y117890D01*
X269928Y117937D01*
X269909Y117967D01*
X269874Y118000D01*
X269809Y118077D01*
X265745Y122141D01*
X265667Y122203D01*
X265594Y122273D01*
X265530Y122311D01*
X265472Y122357D01*
X265381Y122400D01*
X265295Y122452D01*
X265224Y122474D01*
X265157Y122506D01*
X265059Y122527D01*
X264963Y122558D01*
X264889Y122564D01*
X264816Y122579D01*
X264716Y122578D01*
X264616Y122586D01*
X264542Y122575D01*
X264468Y122573D01*
X264371Y122549D01*
X264271Y122534D01*
X264202Y122507D01*
X264130Y122488D01*
X264040Y122442D01*
X263947Y122405D01*
X263886Y122363D01*
X263820Y122329D01*
X263743Y122264D01*
X263661Y122206D01*
X263611Y122151D01*
X263555Y122103D01*
X263495Y122022D01*
X263428Y121948D01*
X263392Y121883D01*
X263347Y121823D01*
X263308Y121731D01*
X263259Y121643D01*
X263239Y121571D01*
X263209Y121503D01*
X263192Y121404D01*
X263164Y121307D01*
X263156Y121207D01*
X263148Y121160D01*
X263150Y121124D01*
X263145Y121063D01*
X263145Y105877D01*
X261752Y102516D01*
X259180Y99944D01*
X255819Y98551D01*
X252181Y98551D01*
X248820Y99944D01*
X246248Y102516D01*
X244855Y105877D01*
X244855Y116347D01*
X244841Y116473D01*
X244834Y116599D01*
X244821Y116645D01*
X244815Y116693D01*
X244773Y116812D01*
X244738Y116934D01*
X244714Y116976D01*
X244698Y117021D01*
X244629Y117128D01*
X244568Y117238D01*
X244528Y117284D01*
X244509Y117314D01*
X244474Y117348D01*
X244409Y117424D01*
X240345Y121488D01*
X240267Y121550D01*
X240194Y121620D01*
X240130Y121659D01*
X240072Y121705D01*
X239981Y121748D01*
X239895Y121799D01*
X239824Y121822D01*
X239757Y121854D01*
X239659Y121875D01*
X239563Y121905D01*
X239489Y121911D01*
X239416Y121927D01*
X239316Y121925D01*
X239216Y121933D01*
X239142Y121922D01*
X239068Y121921D01*
X238971Y121897D01*
X238871Y121882D01*
X238802Y121854D01*
X238730Y121836D01*
X238640Y121790D01*
X238547Y121753D01*
X238486Y121711D01*
X238420Y121676D01*
X238343Y121611D01*
X238261Y121554D01*
X238211Y121499D01*
X238155Y121451D01*
X238095Y121370D01*
X238028Y121295D01*
X237992Y121230D01*
X237947Y121170D01*
X237908Y121078D01*
X237859Y120990D01*
X237839Y120919D01*
X237809Y120850D01*
X237792Y120752D01*
X237764Y120655D01*
X237756Y120555D01*
X237748Y120507D01*
X237750Y120472D01*
X237745Y120411D01*
X237745Y105877D01*
X236352Y102516D01*
X233780Y99944D01*
X230419Y98551D01*
X226781Y98551D01*
X223420Y99944D01*
X220848Y102516D01*
X219455Y105877D01*
X219455Y116347D01*
X219441Y116473D01*
X219434Y116599D01*
X219421Y116645D01*
X219415Y116693D01*
X219373Y116812D01*
X219338Y116934D01*
X219314Y116976D01*
X219298Y117021D01*
X219229Y117128D01*
X219168Y117238D01*
X219128Y117284D01*
X219109Y117314D01*
X219074Y117348D01*
X219009Y117424D01*
X214945Y121488D01*
X214867Y121550D01*
X214794Y121620D01*
X214730Y121659D01*
X214672Y121705D01*
X214581Y121748D01*
X214495Y121799D01*
X214424Y121822D01*
X214357Y121854D01*
X214259Y121875D01*
X214163Y121905D01*
X214089Y121911D01*
X214016Y121927D01*
X213916Y121925D01*
X213816Y121933D01*
X213742Y121922D01*
X213668Y121921D01*
X213571Y121897D01*
X213471Y121882D01*
X213402Y121854D01*
X213330Y121836D01*
X213240Y121790D01*
X213147Y121753D01*
X213086Y121711D01*
X213020Y121676D01*
X212943Y121611D01*
X212861Y121554D01*
X212811Y121499D01*
X212755Y121451D01*
X212695Y121370D01*
X212628Y121295D01*
X212592Y121230D01*
X212547Y121170D01*
X212508Y121078D01*
X212459Y120990D01*
X212439Y120919D01*
X212409Y120850D01*
X212392Y120752D01*
X212364Y120655D01*
X212356Y120555D01*
X212348Y120507D01*
X212350Y120472D01*
X212345Y120411D01*
X212345Y105877D01*
X210952Y102516D01*
X208380Y99944D01*
X205019Y98551D01*
X201381Y98551D01*
X198020Y99944D01*
X195448Y102516D01*
X194055Y105877D01*
X194055Y116347D01*
X194041Y116473D01*
X194034Y116599D01*
X194021Y116645D01*
X194015Y116693D01*
X193973Y116812D01*
X193938Y116934D01*
X193914Y116976D01*
X193898Y117021D01*
X193829Y117128D01*
X193768Y117238D01*
X193728Y117284D01*
X193709Y117314D01*
X193674Y117348D01*
X193609Y117424D01*
X189545Y121488D01*
X189467Y121550D01*
X189394Y121620D01*
X189330Y121659D01*
X189272Y121705D01*
X189181Y121748D01*
X189095Y121799D01*
X189024Y121822D01*
X188957Y121854D01*
X188859Y121875D01*
X188763Y121905D01*
X188689Y121911D01*
X188616Y121927D01*
X188516Y121925D01*
X188416Y121933D01*
X188342Y121922D01*
X188268Y121921D01*
X188171Y121897D01*
X188071Y121882D01*
X188002Y121854D01*
X187930Y121836D01*
X187840Y121790D01*
X187747Y121753D01*
X187686Y121711D01*
X187620Y121676D01*
X187543Y121611D01*
X187461Y121554D01*
X187411Y121499D01*
X187355Y121451D01*
X187295Y121370D01*
X187228Y121295D01*
X187192Y121230D01*
X187147Y121170D01*
X187108Y121078D01*
X187059Y120990D01*
X187039Y120919D01*
X187009Y120850D01*
X186992Y120752D01*
X186964Y120655D01*
X186956Y120555D01*
X186948Y120507D01*
X186950Y120472D01*
X186945Y120411D01*
X186945Y105877D01*
X185552Y102516D01*
X182980Y99944D01*
X179619Y98551D01*
X175981Y98551D01*
G37*
%LPD*%
%LPC*%
G36*
X548662Y54355D02*
X548662Y54355D01*
X543305Y59712D01*
X543305Y67288D01*
X548662Y72645D01*
X556238Y72645D01*
X557062Y71820D01*
X557083Y71804D01*
X557100Y71784D01*
X557219Y71696D01*
X557335Y71604D01*
X557359Y71592D01*
X557380Y71577D01*
X557516Y71518D01*
X557650Y71455D01*
X557676Y71449D01*
X557700Y71439D01*
X557846Y71413D01*
X557991Y71381D01*
X558017Y71382D01*
X558043Y71377D01*
X558192Y71385D01*
X558340Y71387D01*
X558365Y71394D01*
X558391Y71395D01*
X558534Y71436D01*
X558678Y71472D01*
X558701Y71484D01*
X558726Y71492D01*
X558856Y71564D01*
X558987Y71632D01*
X559007Y71649D01*
X559030Y71662D01*
X559217Y71820D01*
X565465Y78069D01*
X565544Y78168D01*
X565628Y78262D01*
X565652Y78304D01*
X565682Y78342D01*
X565736Y78456D01*
X565797Y78567D01*
X565810Y78613D01*
X565831Y78657D01*
X565857Y78780D01*
X565892Y78902D01*
X565897Y78963D01*
X565904Y78998D01*
X565903Y79046D01*
X565911Y79146D01*
X565911Y155804D01*
X565897Y155930D01*
X565890Y156056D01*
X565877Y156102D01*
X565871Y156150D01*
X565829Y156269D01*
X565794Y156391D01*
X565770Y156433D01*
X565754Y156478D01*
X565685Y156585D01*
X565624Y156695D01*
X565584Y156741D01*
X565565Y156771D01*
X565530Y156805D01*
X565465Y156881D01*
X554038Y168308D01*
X554030Y168327D01*
X553986Y168387D01*
X553950Y168452D01*
X553882Y168526D01*
X553822Y168607D01*
X553765Y168655D01*
X553715Y168710D01*
X553633Y168767D01*
X553556Y168832D01*
X553490Y168866D01*
X553429Y168908D01*
X553335Y168945D01*
X553246Y168991D01*
X553174Y169009D01*
X553105Y169036D01*
X553005Y169051D01*
X552908Y169075D01*
X552833Y169076D01*
X552760Y169087D01*
X552660Y169078D01*
X552559Y169080D01*
X552487Y169064D01*
X552412Y169058D01*
X552317Y169027D01*
X552219Y169006D01*
X552152Y168974D01*
X552081Y168951D01*
X551995Y168899D01*
X551904Y168856D01*
X551846Y168809D01*
X551782Y168771D01*
X551710Y168701D01*
X551632Y168638D01*
X551586Y168580D01*
X551532Y168528D01*
X551478Y168444D01*
X551416Y168365D01*
X551370Y168275D01*
X551344Y168235D01*
X551332Y168201D01*
X551304Y168147D01*
X549871Y164687D01*
X546513Y161329D01*
X546279Y161232D01*
X546212Y161195D01*
X546141Y161167D01*
X546060Y161111D01*
X545974Y161063D01*
X545918Y161011D01*
X545855Y160968D01*
X545789Y160895D01*
X545716Y160829D01*
X545673Y160766D01*
X545622Y160709D01*
X545574Y160623D01*
X545518Y160542D01*
X545490Y160471D01*
X545453Y160404D01*
X545426Y160309D01*
X545390Y160218D01*
X545379Y160142D01*
X545358Y160069D01*
X545346Y159920D01*
X545339Y159873D01*
X545341Y159854D01*
X545339Y159825D01*
X545339Y155346D01*
X545353Y155220D01*
X545360Y155094D01*
X545373Y155048D01*
X545379Y155000D01*
X545421Y154881D01*
X545456Y154759D01*
X545480Y154717D01*
X545496Y154672D01*
X545565Y154565D01*
X545626Y154455D01*
X545666Y154409D01*
X545685Y154379D01*
X545720Y154345D01*
X545785Y154269D01*
X550763Y149291D01*
X550862Y149212D01*
X550956Y149128D01*
X550998Y149104D01*
X551036Y149074D01*
X551150Y149020D01*
X551261Y148959D01*
X551307Y148946D01*
X551351Y148925D01*
X551474Y148899D01*
X551596Y148864D01*
X551657Y148859D01*
X551692Y148852D01*
X551740Y148853D01*
X551840Y148845D01*
X556238Y148845D01*
X561595Y143488D01*
X561595Y135912D01*
X556238Y130555D01*
X548662Y130555D01*
X543305Y135912D01*
X543305Y140310D01*
X543291Y140436D01*
X543284Y140562D01*
X543271Y140608D01*
X543265Y140656D01*
X543223Y140775D01*
X543188Y140897D01*
X543164Y140939D01*
X543148Y140984D01*
X543079Y141091D01*
X543018Y141201D01*
X542978Y141247D01*
X542959Y141277D01*
X542924Y141311D01*
X542859Y141387D01*
X535012Y149234D01*
X534161Y151288D01*
X534161Y159825D01*
X534153Y159901D01*
X534154Y159977D01*
X534133Y160073D01*
X534121Y160171D01*
X534096Y160243D01*
X534079Y160318D01*
X534037Y160406D01*
X534004Y160499D01*
X533962Y160563D01*
X533930Y160632D01*
X533868Y160709D01*
X533815Y160792D01*
X533760Y160845D01*
X533712Y160905D01*
X533635Y160966D01*
X533564Y161034D01*
X533499Y161073D01*
X533439Y161121D01*
X533305Y161189D01*
X533265Y161213D01*
X533247Y161219D01*
X533221Y161232D01*
X532987Y161329D01*
X529629Y164687D01*
X528450Y167533D01*
X528372Y167673D01*
X528297Y167814D01*
X528288Y167825D01*
X528281Y167838D01*
X528173Y167956D01*
X528068Y168077D01*
X528056Y168085D01*
X528047Y168096D01*
X527915Y168187D01*
X527785Y168280D01*
X527772Y168286D01*
X527760Y168294D01*
X527611Y168353D01*
X527463Y168414D01*
X527449Y168417D01*
X527436Y168422D01*
X527278Y168445D01*
X527120Y168472D01*
X527105Y168471D01*
X527091Y168473D01*
X526931Y168459D01*
X526772Y168449D01*
X526758Y168445D01*
X526744Y168444D01*
X526591Y168394D01*
X526438Y168348D01*
X526426Y168341D01*
X526412Y168337D01*
X526274Y168254D01*
X526136Y168175D01*
X526126Y168165D01*
X526113Y168157D01*
X525998Y168045D01*
X525882Y167936D01*
X525874Y167924D01*
X525863Y167914D01*
X525777Y167779D01*
X525688Y167647D01*
X525681Y167631D01*
X525675Y167621D01*
X525662Y167585D01*
X525594Y167421D01*
X525414Y166867D01*
X524561Y165193D01*
X523456Y163672D01*
X522128Y162344D01*
X520607Y161239D01*
X518933Y160386D01*
X517146Y159805D01*
X516381Y159684D01*
X516381Y170942D01*
X516378Y170968D01*
X516380Y170994D01*
X516358Y171141D01*
X516341Y171288D01*
X516333Y171313D01*
X516329Y171339D01*
X516286Y171446D01*
X516307Y171522D01*
X516352Y171663D01*
X516354Y171689D01*
X516362Y171714D01*
X516381Y171958D01*
X516381Y183216D01*
X517146Y183095D01*
X518933Y182514D01*
X520607Y181661D01*
X522128Y180556D01*
X523456Y179228D01*
X524561Y177707D01*
X525414Y176033D01*
X525594Y175479D01*
X525660Y175334D01*
X525724Y175187D01*
X525733Y175175D01*
X525739Y175162D01*
X525836Y175036D01*
X525932Y174907D01*
X525943Y174898D01*
X525952Y174886D01*
X526076Y174785D01*
X526198Y174682D01*
X526211Y174675D01*
X526222Y174666D01*
X526366Y174596D01*
X526508Y174523D01*
X526522Y174520D01*
X526535Y174513D01*
X526692Y174478D01*
X526847Y174439D01*
X526861Y174439D01*
X526875Y174436D01*
X527035Y174436D01*
X527195Y174434D01*
X527209Y174437D01*
X527224Y174437D01*
X527379Y174474D01*
X527536Y174508D01*
X527549Y174515D01*
X527563Y174518D01*
X527707Y174590D01*
X527850Y174658D01*
X527861Y174667D01*
X527875Y174674D01*
X527998Y174776D01*
X528123Y174875D01*
X528132Y174887D01*
X528143Y174896D01*
X528240Y175024D01*
X528339Y175149D01*
X528346Y175164D01*
X528354Y175174D01*
X528369Y175209D01*
X528450Y175367D01*
X529629Y178213D01*
X532987Y181571D01*
X537375Y183389D01*
X542125Y183389D01*
X546513Y181571D01*
X549871Y178213D01*
X550281Y177224D01*
X550305Y177180D01*
X550322Y177133D01*
X550390Y177028D01*
X550450Y176919D01*
X550484Y176882D01*
X550511Y176840D01*
X550601Y176753D01*
X550684Y176661D01*
X550725Y176633D01*
X550762Y176598D01*
X550869Y176534D01*
X550971Y176463D01*
X551018Y176445D01*
X551061Y176419D01*
X551179Y176381D01*
X551295Y176335D01*
X551345Y176328D01*
X551393Y176313D01*
X551517Y176303D01*
X551640Y176284D01*
X551690Y176289D01*
X551740Y176285D01*
X551863Y176303D01*
X551987Y176313D01*
X552035Y176329D01*
X552085Y176336D01*
X552201Y176382D01*
X552319Y176420D01*
X552362Y176446D01*
X552409Y176465D01*
X552511Y176536D01*
X552617Y176600D01*
X552654Y176635D01*
X552695Y176664D01*
X552778Y176756D01*
X552867Y176843D01*
X552895Y176885D01*
X552928Y176923D01*
X552988Y177031D01*
X553056Y177136D01*
X553073Y177184D01*
X553097Y177228D01*
X553131Y177348D01*
X553172Y177465D01*
X553178Y177515D01*
X553192Y177563D01*
X553211Y177807D01*
X553211Y244704D01*
X553197Y244830D01*
X553190Y244956D01*
X553177Y245002D01*
X553171Y245050D01*
X553129Y245169D01*
X553094Y245291D01*
X553070Y245333D01*
X553054Y245378D01*
X552985Y245485D01*
X552924Y245595D01*
X552884Y245641D01*
X552865Y245671D01*
X552830Y245705D01*
X552797Y245744D01*
X552794Y245748D01*
X552791Y245751D01*
X552765Y245781D01*
X544329Y254217D01*
X544309Y254233D01*
X544292Y254253D01*
X544172Y254342D01*
X544056Y254434D01*
X544033Y254445D01*
X544012Y254460D01*
X543875Y254519D01*
X543741Y254582D01*
X543716Y254588D01*
X543692Y254598D01*
X543545Y254625D01*
X543401Y254656D01*
X543374Y254655D01*
X543349Y254660D01*
X543200Y254652D01*
X543052Y254650D01*
X543027Y254643D01*
X543000Y254642D01*
X542858Y254601D01*
X542714Y254565D01*
X542691Y254553D01*
X542666Y254546D01*
X542536Y254473D01*
X542404Y254405D01*
X542384Y254388D01*
X542361Y254375D01*
X542175Y254217D01*
X539371Y251413D01*
X535497Y249808D01*
X531303Y249808D01*
X527429Y251413D01*
X524463Y254379D01*
X522858Y258253D01*
X522858Y262447D01*
X524463Y266321D01*
X527267Y269125D01*
X527283Y269146D01*
X527303Y269163D01*
X527392Y269282D01*
X527484Y269398D01*
X527495Y269422D01*
X527510Y269443D01*
X527569Y269579D01*
X527632Y269713D01*
X527638Y269739D01*
X527648Y269763D01*
X527675Y269909D01*
X527706Y270054D01*
X527705Y270080D01*
X527710Y270106D01*
X527702Y270255D01*
X527700Y270402D01*
X527693Y270428D01*
X527692Y270454D01*
X527651Y270597D01*
X527615Y270740D01*
X527603Y270764D01*
X527596Y270789D01*
X527523Y270919D01*
X527455Y271050D01*
X527438Y271070D01*
X527425Y271093D01*
X527267Y271279D01*
X518831Y279715D01*
X518732Y279794D01*
X518638Y279878D01*
X518596Y279902D01*
X518558Y279932D01*
X518444Y279986D01*
X518333Y280047D01*
X518287Y280060D01*
X518243Y280081D01*
X518120Y280107D01*
X517998Y280142D01*
X517937Y280147D01*
X517902Y280154D01*
X517854Y280153D01*
X517754Y280161D01*
X481457Y280161D01*
X481431Y280158D01*
X481405Y280160D01*
X481258Y280138D01*
X481111Y280121D01*
X481086Y280113D01*
X481060Y280109D01*
X480922Y280054D01*
X480783Y280004D01*
X480761Y279990D01*
X480736Y279980D01*
X480615Y279895D01*
X480490Y279815D01*
X480472Y279796D01*
X480450Y279781D01*
X480351Y279671D01*
X480248Y279564D01*
X480234Y279542D01*
X480217Y279522D01*
X480145Y279392D01*
X480069Y279265D01*
X480061Y279240D01*
X480048Y279217D01*
X480008Y279074D01*
X479963Y278933D01*
X479961Y278907D01*
X479953Y278882D01*
X479934Y278638D01*
X479934Y276261D01*
X478406Y272573D01*
X475584Y269751D01*
X471896Y268223D01*
X467904Y268223D01*
X464216Y269751D01*
X461394Y272573D01*
X459866Y276261D01*
X459866Y295239D01*
X461394Y298927D01*
X464216Y301749D01*
X467904Y303277D01*
X471896Y303277D01*
X475584Y301749D01*
X478406Y298927D01*
X479934Y295239D01*
X479934Y292862D01*
X479937Y292836D01*
X479935Y292810D01*
X479957Y292663D01*
X479974Y292516D01*
X479982Y292491D01*
X479986Y292465D01*
X480041Y292327D01*
X480091Y292188D01*
X480105Y292166D01*
X480115Y292141D01*
X480200Y292020D01*
X480280Y291895D01*
X480299Y291877D01*
X480314Y291855D01*
X480424Y291756D01*
X480531Y291653D01*
X480553Y291639D01*
X480573Y291622D01*
X480703Y291550D01*
X480830Y291474D01*
X480855Y291466D01*
X480878Y291453D01*
X481021Y291413D01*
X481162Y291368D01*
X481188Y291366D01*
X481213Y291358D01*
X481457Y291339D01*
X521812Y291339D01*
X523866Y290488D01*
X538138Y276216D01*
X538989Y274162D01*
X538989Y270300D01*
X539003Y270175D01*
X539010Y270049D01*
X539023Y270002D01*
X539029Y269954D01*
X539071Y269835D01*
X539106Y269714D01*
X539130Y269672D01*
X539146Y269626D01*
X539215Y269520D01*
X539276Y269410D01*
X539316Y269363D01*
X539335Y269333D01*
X539370Y269300D01*
X539435Y269223D01*
X542273Y266385D01*
X542372Y266306D01*
X542466Y266222D01*
X542509Y266198D01*
X542546Y266168D01*
X542661Y266114D01*
X542771Y266053D01*
X542818Y266040D01*
X542861Y266019D01*
X542985Y265993D01*
X543107Y265958D01*
X543167Y265953D01*
X543202Y265946D01*
X543250Y265947D01*
X543350Y265939D01*
X547212Y265939D01*
X549266Y265088D01*
X563538Y250816D01*
X564389Y248762D01*
X564389Y185495D01*
X564400Y185395D01*
X564402Y185295D01*
X564420Y185223D01*
X564429Y185149D01*
X564462Y185055D01*
X564487Y184957D01*
X564521Y184891D01*
X564546Y184821D01*
X564601Y184737D01*
X564647Y184647D01*
X564695Y184591D01*
X564735Y184528D01*
X564807Y184458D01*
X564872Y184382D01*
X564932Y184338D01*
X564986Y184286D01*
X565072Y184234D01*
X565153Y184175D01*
X565221Y184145D01*
X565285Y184107D01*
X565381Y184076D01*
X565473Y184037D01*
X565546Y184024D01*
X565617Y184001D01*
X565717Y183993D01*
X565816Y183975D01*
X565890Y183979D01*
X565964Y183973D01*
X566064Y183988D01*
X566164Y183993D01*
X566235Y184014D01*
X566309Y184025D01*
X566402Y184062D01*
X566499Y184089D01*
X566564Y184126D01*
X566633Y184153D01*
X566715Y184211D01*
X566803Y184260D01*
X566879Y184325D01*
X566919Y184352D01*
X566943Y184379D01*
X566989Y184418D01*
X569631Y187060D01*
X573645Y188723D01*
X577088Y188723D01*
X577114Y188726D01*
X577140Y188724D01*
X577287Y188746D01*
X577434Y188763D01*
X577459Y188771D01*
X577485Y188775D01*
X577623Y188830D01*
X577762Y188880D01*
X577784Y188894D01*
X577809Y188904D01*
X577930Y188989D01*
X578055Y189069D01*
X578073Y189088D01*
X578095Y189103D01*
X578194Y189213D01*
X578297Y189320D01*
X578311Y189342D01*
X578328Y189362D01*
X578400Y189492D01*
X578476Y189619D01*
X578484Y189644D01*
X578497Y189667D01*
X578537Y189810D01*
X578582Y189951D01*
X578584Y189977D01*
X578592Y190002D01*
X578611Y190246D01*
X578611Y242412D01*
X579462Y244466D01*
X586293Y251297D01*
X586358Y251379D01*
X586409Y251431D01*
X586419Y251449D01*
X586456Y251490D01*
X586480Y251532D01*
X586510Y251570D01*
X586564Y251684D01*
X586625Y251795D01*
X586638Y251841D01*
X586659Y251885D01*
X586685Y252008D01*
X586720Y252130D01*
X586725Y252191D01*
X586732Y252226D01*
X586731Y252274D01*
X586739Y252374D01*
X586739Y263641D01*
X588286Y267376D01*
X591144Y270234D01*
X594879Y271781D01*
X598921Y271781D01*
X602656Y270234D01*
X605514Y267376D01*
X607061Y263641D01*
X607061Y244359D01*
X605514Y240624D01*
X602656Y237766D01*
X598921Y236219D01*
X594879Y236219D01*
X591895Y237455D01*
X591750Y237497D01*
X591607Y237542D01*
X591583Y237544D01*
X591560Y237551D01*
X591409Y237558D01*
X591260Y237570D01*
X591236Y237567D01*
X591212Y237568D01*
X591064Y237541D01*
X590915Y237519D01*
X590893Y237510D01*
X590869Y237505D01*
X590731Y237445D01*
X590591Y237390D01*
X590571Y237376D01*
X590549Y237366D01*
X590428Y237277D01*
X590305Y237191D01*
X590289Y237173D01*
X590269Y237159D01*
X590172Y237044D01*
X590072Y236932D01*
X590060Y236911D01*
X590044Y236893D01*
X589976Y236759D01*
X589903Y236627D01*
X589897Y236604D01*
X589886Y236582D01*
X589849Y236437D01*
X589808Y236292D01*
X589806Y236263D01*
X589801Y236244D01*
X589801Y236197D01*
X589789Y236048D01*
X589789Y190246D01*
X589792Y190220D01*
X589790Y190194D01*
X589812Y190046D01*
X589829Y189900D01*
X589837Y189875D01*
X589841Y189849D01*
X589896Y189711D01*
X589946Y189572D01*
X589960Y189550D01*
X589970Y189525D01*
X590055Y189404D01*
X590135Y189279D01*
X590154Y189261D01*
X590169Y189239D01*
X590279Y189140D01*
X590386Y189037D01*
X590408Y189023D01*
X590428Y189006D01*
X590558Y188934D01*
X590685Y188858D01*
X590710Y188850D01*
X590733Y188837D01*
X590876Y188797D01*
X591017Y188752D01*
X591043Y188750D01*
X591068Y188742D01*
X591312Y188723D01*
X594755Y188723D01*
X598769Y187060D01*
X601842Y183987D01*
X603505Y179973D01*
X603505Y175627D01*
X601842Y171613D01*
X598769Y168540D01*
X594755Y166877D01*
X591312Y166877D01*
X591286Y166874D01*
X591260Y166876D01*
X591113Y166854D01*
X590966Y166837D01*
X590941Y166829D01*
X590915Y166825D01*
X590777Y166770D01*
X590638Y166720D01*
X590616Y166706D01*
X590591Y166696D01*
X590470Y166611D01*
X590345Y166531D01*
X590327Y166512D01*
X590305Y166497D01*
X590206Y166387D01*
X590103Y166280D01*
X590089Y166258D01*
X590072Y166238D01*
X590000Y166108D01*
X589924Y165981D01*
X589916Y165956D01*
X589903Y165933D01*
X589863Y165790D01*
X589818Y165649D01*
X589816Y165623D01*
X589808Y165598D01*
X589789Y165354D01*
X589789Y119552D01*
X589806Y119403D01*
X589818Y119253D01*
X589826Y119230D01*
X589829Y119206D01*
X589879Y119064D01*
X589925Y118921D01*
X589938Y118900D01*
X589946Y118878D01*
X590028Y118751D01*
X590105Y118623D01*
X590122Y118605D01*
X590135Y118585D01*
X590244Y118480D01*
X590348Y118373D01*
X590368Y118360D01*
X590386Y118343D01*
X590515Y118265D01*
X590641Y118184D01*
X590664Y118176D01*
X590685Y118164D01*
X590828Y118118D01*
X590970Y118068D01*
X590994Y118065D01*
X591017Y118058D01*
X591166Y118046D01*
X591316Y118029D01*
X591340Y118032D01*
X591364Y118030D01*
X591513Y118052D01*
X591662Y118070D01*
X591690Y118079D01*
X591709Y118081D01*
X591753Y118099D01*
X591895Y118145D01*
X594879Y119381D01*
X598921Y119381D01*
X602656Y117834D01*
X605514Y114976D01*
X607061Y111241D01*
X607061Y91959D01*
X605514Y88224D01*
X602656Y85366D01*
X601094Y84719D01*
X601050Y84695D01*
X601002Y84678D01*
X600898Y84610D01*
X600789Y84550D01*
X600752Y84516D01*
X600710Y84489D01*
X600623Y84399D01*
X600531Y84316D01*
X600502Y84274D01*
X600467Y84238D01*
X600404Y84131D01*
X600333Y84029D01*
X600314Y83982D01*
X600289Y83939D01*
X600251Y83821D01*
X600205Y83705D01*
X600198Y83655D01*
X600182Y83607D01*
X600172Y83483D01*
X600154Y83360D01*
X600158Y83310D01*
X600154Y83260D01*
X600173Y83137D01*
X600183Y83013D01*
X600199Y82965D01*
X600206Y82915D01*
X600252Y82800D01*
X600290Y82681D01*
X600316Y82638D01*
X600335Y82591D01*
X600406Y82489D01*
X600470Y82383D01*
X600505Y82346D01*
X600534Y82305D01*
X600626Y82222D01*
X600713Y82133D01*
X600755Y82105D01*
X600793Y82072D01*
X600901Y82012D01*
X601006Y81944D01*
X601054Y81927D01*
X601098Y81903D01*
X601217Y81869D01*
X601335Y81828D01*
X601384Y81822D01*
X601433Y81808D01*
X601677Y81789D01*
X617501Y81789D01*
X617665Y81808D01*
X617828Y81824D01*
X617838Y81827D01*
X617847Y81829D01*
X618003Y81884D01*
X618158Y81938D01*
X618166Y81943D01*
X618175Y81946D01*
X618314Y82036D01*
X618453Y82123D01*
X618460Y82130D01*
X618468Y82135D01*
X618583Y82254D01*
X618698Y82371D01*
X618704Y82379D01*
X618710Y82386D01*
X618795Y82527D01*
X618881Y82667D01*
X618884Y82677D01*
X618889Y82685D01*
X618939Y82839D01*
X618992Y82998D01*
X618992Y83008D01*
X618995Y83017D01*
X619008Y83180D01*
X619024Y83345D01*
X619023Y83355D01*
X619023Y83364D01*
X618999Y83527D01*
X618977Y83690D01*
X618973Y83699D01*
X618972Y83709D01*
X618911Y83863D01*
X618852Y84016D01*
X618847Y84024D01*
X618843Y84033D01*
X618749Y84167D01*
X618657Y84304D01*
X618649Y84311D01*
X618644Y84319D01*
X618523Y84428D01*
X618401Y84541D01*
X618391Y84547D01*
X618385Y84552D01*
X618359Y84567D01*
X618193Y84669D01*
X616975Y85290D01*
X615681Y86230D01*
X614550Y87361D01*
X613610Y88655D01*
X612884Y90080D01*
X612389Y91601D01*
X612139Y93180D01*
X612139Y99061D01*
X621284Y99061D01*
X621310Y99064D01*
X621336Y99062D01*
X621483Y99084D01*
X621630Y99101D01*
X621655Y99109D01*
X621681Y99113D01*
X621818Y99168D01*
X621958Y99218D01*
X621980Y99232D01*
X622005Y99242D01*
X622126Y99327D01*
X622251Y99407D01*
X622269Y99426D01*
X622291Y99441D01*
X622305Y99457D01*
X622390Y99375D01*
X622413Y99361D01*
X622432Y99344D01*
X622562Y99272D01*
X622689Y99196D01*
X622714Y99188D01*
X622737Y99175D01*
X622880Y99135D01*
X623021Y99090D01*
X623047Y99087D01*
X623072Y99080D01*
X623316Y99061D01*
X632461Y99061D01*
X632461Y93180D01*
X632211Y91601D01*
X631716Y90080D01*
X630990Y88655D01*
X630050Y87361D01*
X628919Y86230D01*
X627625Y85290D01*
X626407Y84669D01*
X626271Y84579D01*
X626132Y84489D01*
X626125Y84482D01*
X626117Y84477D01*
X626004Y84357D01*
X625890Y84238D01*
X625885Y84230D01*
X625878Y84223D01*
X625795Y84080D01*
X625711Y83939D01*
X625708Y83930D01*
X625703Y83922D01*
X625654Y83762D01*
X625605Y83607D01*
X625604Y83598D01*
X625601Y83588D01*
X625590Y83423D01*
X625577Y83260D01*
X625578Y83250D01*
X625577Y83241D01*
X625604Y83079D01*
X625628Y82915D01*
X625632Y82906D01*
X625634Y82897D01*
X625696Y82745D01*
X625757Y82591D01*
X625763Y82583D01*
X625766Y82574D01*
X625862Y82440D01*
X625956Y82305D01*
X625963Y82299D01*
X625969Y82291D01*
X626093Y82182D01*
X626215Y82072D01*
X626223Y82067D01*
X626231Y82061D01*
X626376Y81983D01*
X626520Y81903D01*
X626529Y81901D01*
X626538Y81896D01*
X626696Y81853D01*
X626855Y81808D01*
X626867Y81807D01*
X626874Y81805D01*
X626904Y81804D01*
X627099Y81789D01*
X632054Y81789D01*
X632180Y81803D01*
X632306Y81810D01*
X632352Y81823D01*
X632400Y81829D01*
X632519Y81871D01*
X632641Y81906D01*
X632683Y81930D01*
X632728Y81946D01*
X632835Y82015D01*
X632945Y82076D01*
X632991Y82116D01*
X633021Y82135D01*
X633055Y82170D01*
X633131Y82235D01*
X638377Y87480D01*
X638424Y87540D01*
X638479Y87593D01*
X638532Y87676D01*
X638593Y87753D01*
X638626Y87822D01*
X638667Y87887D01*
X638700Y87979D01*
X638742Y88068D01*
X638758Y88143D01*
X638784Y88215D01*
X638795Y88313D01*
X638815Y88409D01*
X638814Y88485D01*
X638823Y88561D01*
X638811Y88659D01*
X638810Y88758D01*
X638791Y88832D01*
X638782Y88908D01*
X638736Y89050D01*
X638725Y89096D01*
X638716Y89112D01*
X638707Y89140D01*
X637539Y91959D01*
X637539Y111241D01*
X639086Y114976D01*
X641944Y117834D01*
X645679Y119381D01*
X649721Y119381D01*
X653456Y117834D01*
X656314Y114976D01*
X657861Y111241D01*
X657861Y91959D01*
X656314Y88224D01*
X653456Y85366D01*
X651370Y84502D01*
X651368Y84501D01*
X651366Y84501D01*
X651218Y84418D01*
X651065Y84333D01*
X651064Y84331D01*
X651062Y84330D01*
X650876Y84172D01*
X650651Y83948D01*
X639952Y73249D01*
X639952Y73248D01*
X638166Y71462D01*
X636112Y70611D01*
X574446Y70611D01*
X574320Y70597D01*
X574194Y70590D01*
X574148Y70577D01*
X574100Y70571D01*
X573981Y70529D01*
X573859Y70494D01*
X573817Y70470D01*
X573772Y70454D01*
X573665Y70385D01*
X573555Y70324D01*
X573509Y70284D01*
X573479Y70265D01*
X573445Y70230D01*
X573369Y70165D01*
X561966Y58762D01*
X559991Y57944D01*
X559989Y57943D01*
X559987Y57942D01*
X559834Y57857D01*
X559686Y57775D01*
X559684Y57773D01*
X559683Y57772D01*
X559496Y57614D01*
X556238Y54355D01*
X548662Y54355D01*
G37*
%LPD*%
%LPC*%
G36*
X315504Y185673D02*
X315504Y185673D01*
X311816Y187201D01*
X308994Y190023D01*
X307466Y193711D01*
X307466Y212689D01*
X308994Y216377D01*
X311816Y219199D01*
X311987Y219270D01*
X312054Y219307D01*
X312125Y219335D01*
X312206Y219391D01*
X312291Y219439D01*
X312348Y219490D01*
X312411Y219534D01*
X312477Y219607D01*
X312550Y219673D01*
X312593Y219736D01*
X312644Y219793D01*
X312692Y219879D01*
X312748Y219960D01*
X312776Y220031D01*
X312813Y220098D01*
X312840Y220193D01*
X312876Y220284D01*
X312887Y220360D01*
X312908Y220433D01*
X312920Y220582D01*
X312927Y220629D01*
X312925Y220648D01*
X312927Y220677D01*
X312927Y245125D01*
X312913Y245251D01*
X312906Y245377D01*
X312893Y245423D01*
X312887Y245471D01*
X312845Y245590D01*
X312810Y245712D01*
X312786Y245754D01*
X312770Y245799D01*
X312701Y245906D01*
X312640Y246016D01*
X312600Y246062D01*
X312581Y246092D01*
X312546Y246126D01*
X312481Y246202D01*
X284302Y274381D01*
X284203Y274460D01*
X284109Y274544D01*
X284067Y274568D01*
X284029Y274598D01*
X283915Y274652D01*
X283804Y274713D01*
X283758Y274726D01*
X283714Y274747D01*
X283591Y274773D01*
X283469Y274808D01*
X283408Y274813D01*
X283373Y274820D01*
X283325Y274819D01*
X283225Y274827D01*
X265684Y274827D01*
X265658Y274824D01*
X265632Y274826D01*
X265485Y274804D01*
X265338Y274787D01*
X265313Y274779D01*
X265287Y274775D01*
X265149Y274720D01*
X265010Y274670D01*
X264988Y274656D01*
X264963Y274646D01*
X264842Y274561D01*
X264717Y274481D01*
X264699Y274462D01*
X264677Y274447D01*
X264578Y274337D01*
X264475Y274230D01*
X264461Y274208D01*
X264444Y274188D01*
X264372Y274058D01*
X264296Y273931D01*
X264288Y273906D01*
X264275Y273883D01*
X264235Y273740D01*
X264190Y273599D01*
X264188Y273573D01*
X264180Y273548D01*
X264161Y273304D01*
X264161Y270728D01*
X262672Y269239D01*
X245328Y269239D01*
X243839Y270728D01*
X243839Y288072D01*
X245328Y289561D01*
X247904Y289561D01*
X247930Y289564D01*
X247956Y289562D01*
X248103Y289584D01*
X248250Y289601D01*
X248275Y289609D01*
X248301Y289613D01*
X248439Y289668D01*
X248578Y289718D01*
X248600Y289732D01*
X248625Y289742D01*
X248746Y289827D01*
X248871Y289907D01*
X248889Y289926D01*
X248911Y289941D01*
X249010Y290051D01*
X249113Y290158D01*
X249127Y290180D01*
X249144Y290200D01*
X249216Y290330D01*
X249292Y290457D01*
X249300Y290482D01*
X249313Y290505D01*
X249353Y290648D01*
X249398Y290789D01*
X249400Y290815D01*
X249408Y290840D01*
X249427Y291084D01*
X249427Y340375D01*
X249413Y340501D01*
X249406Y340627D01*
X249393Y340673D01*
X249387Y340721D01*
X249345Y340840D01*
X249310Y340962D01*
X249286Y341004D01*
X249270Y341049D01*
X249201Y341156D01*
X249140Y341266D01*
X249100Y341312D01*
X249081Y341342D01*
X249046Y341376D01*
X248981Y341452D01*
X232462Y357971D01*
X232403Y358018D01*
X232349Y358073D01*
X232266Y358126D01*
X232189Y358187D01*
X232120Y358220D01*
X232056Y358261D01*
X231963Y358294D01*
X231874Y358336D01*
X231800Y358352D01*
X231728Y358378D01*
X231630Y358389D01*
X231534Y358410D01*
X231457Y358408D01*
X231381Y358417D01*
X231283Y358405D01*
X231185Y358404D01*
X231111Y358385D01*
X231035Y358376D01*
X230893Y358330D01*
X230847Y358319D01*
X230830Y358310D01*
X230802Y358301D01*
X230605Y358219D01*
X226595Y358219D01*
X222890Y359754D01*
X220054Y362590D01*
X218519Y366295D01*
X218519Y370305D01*
X220119Y374167D01*
X220130Y374190D01*
X220182Y374277D01*
X220204Y374347D01*
X220236Y374414D01*
X220257Y374513D01*
X220288Y374609D01*
X220294Y374683D01*
X220309Y374755D01*
X220308Y374856D01*
X220316Y374956D01*
X220305Y375029D01*
X220304Y375103D01*
X220279Y375201D01*
X220264Y375301D01*
X220237Y375370D01*
X220219Y375441D01*
X220173Y375531D01*
X220135Y375625D01*
X220093Y375685D01*
X220059Y375751D01*
X219994Y375828D01*
X219937Y375911D01*
X219882Y375960D01*
X219834Y376017D01*
X219753Y376077D01*
X219678Y376144D01*
X219613Y376180D01*
X219553Y376224D01*
X219461Y376264D01*
X219373Y376313D01*
X219301Y376333D01*
X219234Y376362D01*
X219134Y376380D01*
X219037Y376408D01*
X218938Y376416D01*
X218891Y376424D01*
X218855Y376422D01*
X218794Y376427D01*
X214990Y376427D01*
X213310Y377123D01*
X211809Y378624D01*
X207062Y383371D01*
X207003Y383418D01*
X206949Y383473D01*
X206866Y383526D01*
X206789Y383587D01*
X206720Y383620D01*
X206656Y383661D01*
X206563Y383694D01*
X206474Y383736D01*
X206400Y383752D01*
X206328Y383778D01*
X206230Y383789D01*
X206134Y383810D01*
X206057Y383808D01*
X205981Y383817D01*
X205883Y383805D01*
X205785Y383804D01*
X205711Y383785D01*
X205635Y383776D01*
X205493Y383730D01*
X205447Y383719D01*
X205430Y383710D01*
X205402Y383701D01*
X205205Y383619D01*
X201195Y383619D01*
X197490Y385154D01*
X194654Y387990D01*
X193119Y391695D01*
X193119Y395705D01*
X194654Y399410D01*
X197490Y402246D01*
X201195Y403781D01*
X205205Y403781D01*
X208910Y402246D01*
X211746Y399410D01*
X213281Y395705D01*
X213281Y391695D01*
X213199Y391498D01*
X213178Y391424D01*
X213148Y391354D01*
X213130Y391257D01*
X213103Y391163D01*
X213100Y391086D01*
X213086Y391011D01*
X213091Y390913D01*
X213086Y390814D01*
X213100Y390739D01*
X213104Y390663D01*
X213131Y390568D01*
X213149Y390472D01*
X213179Y390401D01*
X213201Y390328D01*
X213249Y390242D01*
X213288Y390152D01*
X213333Y390091D01*
X213371Y390024D01*
X213467Y389910D01*
X213496Y389872D01*
X213510Y389860D01*
X213529Y389838D01*
X217348Y386019D01*
X217447Y385940D01*
X217541Y385856D01*
X217583Y385832D01*
X217621Y385802D01*
X217735Y385748D01*
X217846Y385687D01*
X217892Y385674D01*
X217936Y385653D01*
X218059Y385627D01*
X218181Y385592D01*
X218242Y385587D01*
X218277Y385580D01*
X218325Y385581D01*
X218425Y385573D01*
X218794Y385573D01*
X218894Y385584D01*
X218994Y385586D01*
X219066Y385604D01*
X219140Y385613D01*
X219235Y385647D01*
X219332Y385671D01*
X219398Y385705D01*
X219468Y385730D01*
X219553Y385785D01*
X219642Y385831D01*
X219698Y385879D01*
X219761Y385919D01*
X219831Y385992D01*
X219907Y386057D01*
X219951Y386117D01*
X220003Y386170D01*
X220055Y386256D01*
X220114Y386337D01*
X220144Y386405D01*
X220182Y386469D01*
X220212Y386565D01*
X220252Y386657D01*
X220265Y386730D01*
X220288Y386801D01*
X220296Y386901D01*
X220314Y387001D01*
X220310Y387074D01*
X220316Y387148D01*
X220301Y387248D01*
X220296Y387349D01*
X220275Y387420D01*
X220264Y387493D01*
X220227Y387587D01*
X220199Y387683D01*
X220163Y387748D01*
X220135Y387817D01*
X220111Y387852D01*
X218519Y391695D01*
X218519Y395705D01*
X220054Y399410D01*
X222890Y402246D01*
X226595Y403781D01*
X230605Y403781D01*
X234310Y402246D01*
X237146Y399410D01*
X237228Y399213D01*
X237265Y399146D01*
X237293Y399075D01*
X237349Y398995D01*
X237397Y398908D01*
X237448Y398852D01*
X237492Y398789D01*
X237565Y398723D01*
X237631Y398650D01*
X237694Y398607D01*
X237751Y398556D01*
X237837Y398508D01*
X237918Y398452D01*
X237989Y398424D01*
X238056Y398387D01*
X238150Y398360D01*
X238242Y398324D01*
X238318Y398313D01*
X238391Y398292D01*
X238540Y398280D01*
X238587Y398273D01*
X238606Y398275D01*
X238635Y398273D01*
X244750Y398273D01*
X246430Y397577D01*
X318948Y325059D01*
X319047Y324980D01*
X319141Y324896D01*
X319183Y324872D01*
X319221Y324842D01*
X319335Y324788D01*
X319446Y324727D01*
X319492Y324714D01*
X319536Y324693D01*
X319659Y324667D01*
X319781Y324632D01*
X319842Y324627D01*
X319877Y324620D01*
X319925Y324621D01*
X320025Y324613D01*
X420010Y324613D01*
X421690Y323917D01*
X441884Y303723D01*
X441983Y303644D01*
X442077Y303560D01*
X442119Y303536D01*
X442157Y303506D01*
X442271Y303452D01*
X442382Y303391D01*
X442428Y303378D01*
X442472Y303357D01*
X442595Y303331D01*
X442717Y303296D01*
X442778Y303291D01*
X442813Y303284D01*
X442861Y303285D01*
X442961Y303277D01*
X446496Y303277D01*
X450184Y301749D01*
X453006Y298927D01*
X454534Y295239D01*
X454534Y276261D01*
X453006Y272573D01*
X450184Y269751D01*
X446496Y268223D01*
X442504Y268223D01*
X438816Y269751D01*
X435994Y272573D01*
X434466Y276261D01*
X434466Y295239D01*
X434946Y296397D01*
X434967Y296471D01*
X434997Y296541D01*
X435015Y296638D01*
X435042Y296732D01*
X435045Y296809D01*
X435059Y296884D01*
X435054Y296982D01*
X435059Y297080D01*
X435045Y297156D01*
X435041Y297232D01*
X435014Y297326D01*
X434996Y297423D01*
X434966Y297493D01*
X434945Y297567D01*
X434897Y297653D01*
X434857Y297743D01*
X434812Y297804D01*
X434774Y297871D01*
X434677Y297985D01*
X434649Y298023D01*
X434635Y298035D01*
X434616Y298057D01*
X417652Y315021D01*
X417553Y315100D01*
X417459Y315184D01*
X417417Y315208D01*
X417379Y315238D01*
X417265Y315292D01*
X417154Y315353D01*
X417108Y315366D01*
X417064Y315387D01*
X416941Y315413D01*
X416819Y315448D01*
X416758Y315453D01*
X416723Y315460D01*
X416675Y315459D01*
X416575Y315467D01*
X405877Y315467D01*
X405777Y315456D01*
X405677Y315454D01*
X405605Y315436D01*
X405531Y315427D01*
X405436Y315394D01*
X405339Y315369D01*
X405273Y315335D01*
X405203Y315310D01*
X405118Y315255D01*
X405029Y315209D01*
X404972Y315161D01*
X404910Y315121D01*
X404840Y315049D01*
X404764Y314984D01*
X404719Y314924D01*
X404668Y314870D01*
X404616Y314784D01*
X404556Y314703D01*
X404527Y314635D01*
X404489Y314571D01*
X404458Y314475D01*
X404418Y314383D01*
X404405Y314310D01*
X404383Y314239D01*
X404375Y314139D01*
X404357Y314040D01*
X404361Y313966D01*
X404355Y313892D01*
X404370Y313792D01*
X404375Y313692D01*
X404395Y313621D01*
X404406Y313547D01*
X404443Y313454D01*
X404471Y313357D01*
X404508Y313292D01*
X404535Y313223D01*
X404592Y313141D01*
X404641Y313053D01*
X404707Y312977D01*
X404734Y312937D01*
X404760Y312913D01*
X404800Y312867D01*
X414465Y303201D01*
X414525Y303154D01*
X414578Y303099D01*
X414661Y303046D01*
X414738Y302985D01*
X414807Y302952D01*
X414872Y302911D01*
X414964Y302878D01*
X415053Y302836D01*
X415128Y302820D01*
X415200Y302794D01*
X415298Y302783D01*
X415394Y302763D01*
X415470Y302764D01*
X415546Y302755D01*
X415644Y302767D01*
X415743Y302769D01*
X415817Y302787D01*
X415893Y302796D01*
X416035Y302842D01*
X416081Y302854D01*
X416098Y302862D01*
X416125Y302871D01*
X417104Y303277D01*
X421096Y303277D01*
X424784Y301749D01*
X427606Y298927D01*
X429134Y295239D01*
X429134Y276261D01*
X427606Y272573D01*
X424784Y269751D01*
X421096Y268223D01*
X417104Y268223D01*
X413416Y269751D01*
X410594Y272573D01*
X409066Y276261D01*
X409066Y295036D01*
X409065Y295051D01*
X409065Y295061D01*
X409057Y295116D01*
X409052Y295162D01*
X409045Y295288D01*
X409032Y295334D01*
X409026Y295382D01*
X408984Y295501D01*
X408949Y295623D01*
X408925Y295665D01*
X408909Y295710D01*
X408840Y295817D01*
X408779Y295927D01*
X408739Y295973D01*
X408720Y296003D01*
X408685Y296037D01*
X408620Y296113D01*
X405075Y299658D01*
X405036Y299689D01*
X405002Y299726D01*
X404900Y299797D01*
X404802Y299875D01*
X404757Y299896D01*
X404715Y299925D01*
X404600Y299970D01*
X404487Y300023D01*
X404438Y300034D01*
X404391Y300052D01*
X404268Y300071D01*
X404146Y300097D01*
X404096Y300096D01*
X404046Y300103D01*
X403922Y300093D01*
X403798Y300091D01*
X403749Y300079D01*
X403699Y300074D01*
X403581Y300036D01*
X403460Y300006D01*
X403415Y299983D01*
X403367Y299967D01*
X403261Y299903D01*
X403150Y299846D01*
X403112Y299814D01*
X403069Y299788D01*
X402980Y299701D01*
X402885Y299620D01*
X402855Y299580D01*
X402819Y299545D01*
X402752Y299440D01*
X402678Y299340D01*
X402658Y299294D01*
X402631Y299251D01*
X402589Y299134D01*
X402540Y299020D01*
X402531Y298971D01*
X402514Y298923D01*
X402500Y298799D01*
X402478Y298677D01*
X402481Y298627D01*
X402475Y298577D01*
X402490Y298453D01*
X402496Y298329D01*
X402510Y298281D01*
X402516Y298231D01*
X402591Y297998D01*
X403734Y295239D01*
X403734Y276261D01*
X402206Y272573D01*
X399384Y269751D01*
X395696Y268223D01*
X391704Y268223D01*
X388016Y269751D01*
X385194Y272573D01*
X383666Y276261D01*
X383666Y295239D01*
X385194Y298927D01*
X388016Y301749D01*
X391704Y303277D01*
X395696Y303277D01*
X398455Y302134D01*
X398503Y302120D01*
X398549Y302099D01*
X398670Y302072D01*
X398790Y302038D01*
X398840Y302036D01*
X398890Y302025D01*
X399014Y302027D01*
X399138Y302021D01*
X399188Y302030D01*
X399238Y302031D01*
X399359Y302061D01*
X399481Y302084D01*
X399527Y302104D01*
X399576Y302116D01*
X399687Y302173D01*
X399801Y302223D01*
X399841Y302253D01*
X399886Y302276D01*
X399981Y302357D01*
X400080Y302431D01*
X400113Y302469D01*
X400151Y302502D01*
X400225Y302602D01*
X400305Y302697D01*
X400328Y302741D01*
X400358Y302782D01*
X400408Y302896D01*
X400464Y303007D01*
X400476Y303056D01*
X400496Y303102D01*
X400518Y303224D01*
X400548Y303345D01*
X400549Y303395D01*
X400558Y303445D01*
X400552Y303569D01*
X400553Y303694D01*
X400543Y303743D01*
X400540Y303793D01*
X400506Y303912D01*
X400479Y304034D01*
X400458Y304079D01*
X400444Y304128D01*
X400383Y304236D01*
X400329Y304349D01*
X400298Y304388D01*
X400273Y304432D01*
X400115Y304618D01*
X398602Y306131D01*
X398503Y306210D01*
X398409Y306294D01*
X398367Y306318D01*
X398329Y306348D01*
X398215Y306402D01*
X398104Y306463D01*
X398058Y306476D01*
X398014Y306497D01*
X397890Y306523D01*
X397769Y306558D01*
X397708Y306563D01*
X397673Y306570D01*
X397625Y306569D01*
X397525Y306577D01*
X310240Y306577D01*
X308560Y307273D01*
X307059Y308774D01*
X239852Y375981D01*
X239753Y376060D01*
X239659Y376144D01*
X239617Y376168D01*
X239579Y376198D01*
X239465Y376252D01*
X239354Y376313D01*
X239308Y376326D01*
X239264Y376347D01*
X239141Y376373D01*
X239019Y376408D01*
X238958Y376413D01*
X238923Y376420D01*
X238875Y376419D01*
X238775Y376427D01*
X238406Y376427D01*
X238306Y376416D01*
X238206Y376414D01*
X238134Y376396D01*
X238060Y376387D01*
X237965Y376353D01*
X237868Y376329D01*
X237802Y376295D01*
X237732Y376270D01*
X237647Y376215D01*
X237558Y376169D01*
X237502Y376121D01*
X237439Y376081D01*
X237369Y376008D01*
X237293Y375943D01*
X237249Y375883D01*
X237197Y375830D01*
X237145Y375744D01*
X237086Y375663D01*
X237056Y375595D01*
X237018Y375531D01*
X236988Y375435D01*
X236948Y375343D01*
X236935Y375270D01*
X236912Y375199D01*
X236904Y375099D01*
X236886Y374999D01*
X236890Y374926D01*
X236884Y374852D01*
X236899Y374752D01*
X236904Y374651D01*
X236925Y374580D01*
X236936Y374507D01*
X236973Y374413D01*
X237001Y374317D01*
X237037Y374252D01*
X237065Y374183D01*
X237089Y374148D01*
X238681Y370305D01*
X238681Y366295D01*
X238599Y366098D01*
X238578Y366024D01*
X238548Y365954D01*
X238530Y365857D01*
X238503Y365763D01*
X238500Y365686D01*
X238486Y365611D01*
X238491Y365513D01*
X238486Y365414D01*
X238500Y365339D01*
X238504Y365263D01*
X238531Y365168D01*
X238549Y365072D01*
X238579Y365001D01*
X238601Y364928D01*
X238649Y364842D01*
X238688Y364752D01*
X238733Y364691D01*
X238771Y364624D01*
X238867Y364510D01*
X238896Y364472D01*
X238910Y364460D01*
X238929Y364438D01*
X256376Y346991D01*
X257877Y345490D01*
X258573Y343810D01*
X258573Y291084D01*
X258576Y291058D01*
X258574Y291032D01*
X258596Y290885D01*
X258613Y290738D01*
X258621Y290713D01*
X258625Y290687D01*
X258680Y290549D01*
X258730Y290410D01*
X258744Y290388D01*
X258754Y290363D01*
X258839Y290242D01*
X258919Y290117D01*
X258938Y290099D01*
X258953Y290077D01*
X259063Y289978D01*
X259170Y289875D01*
X259192Y289861D01*
X259212Y289844D01*
X259342Y289772D01*
X259469Y289696D01*
X259494Y289688D01*
X259517Y289675D01*
X259660Y289635D01*
X259801Y289590D01*
X259827Y289588D01*
X259852Y289580D01*
X260096Y289561D01*
X262672Y289561D01*
X264161Y288072D01*
X264161Y285496D01*
X264164Y285470D01*
X264162Y285444D01*
X264184Y285297D01*
X264201Y285150D01*
X264209Y285125D01*
X264213Y285099D01*
X264268Y284961D01*
X264318Y284822D01*
X264332Y284800D01*
X264342Y284775D01*
X264427Y284654D01*
X264507Y284529D01*
X264526Y284511D01*
X264541Y284489D01*
X264651Y284390D01*
X264758Y284287D01*
X264780Y284273D01*
X264800Y284256D01*
X264930Y284184D01*
X265057Y284108D01*
X265082Y284100D01*
X265105Y284087D01*
X265248Y284047D01*
X265389Y284002D01*
X265415Y284000D01*
X265440Y283992D01*
X265684Y283973D01*
X286660Y283973D01*
X288340Y283277D01*
X321377Y250240D01*
X322073Y248560D01*
X322073Y220677D01*
X322081Y220601D01*
X322080Y220525D01*
X322101Y220429D01*
X322113Y220331D01*
X322138Y220259D01*
X322155Y220184D01*
X322197Y220095D01*
X322230Y220003D01*
X322272Y219939D01*
X322304Y219870D01*
X322366Y219793D01*
X322419Y219710D01*
X322474Y219657D01*
X322522Y219597D01*
X322599Y219536D01*
X322670Y219468D01*
X322735Y219429D01*
X322795Y219381D01*
X322928Y219313D01*
X322969Y219289D01*
X322987Y219283D01*
X323013Y219270D01*
X323184Y219199D01*
X326006Y216377D01*
X327534Y212689D01*
X327534Y193711D01*
X326006Y190023D01*
X323184Y187201D01*
X319496Y185673D01*
X315504Y185673D01*
G37*
%LPD*%
%LPC*%
G36*
X620279Y236219D02*
X620279Y236219D01*
X616544Y237766D01*
X613686Y240624D01*
X612139Y244359D01*
X612139Y263641D01*
X613686Y267376D01*
X616265Y269955D01*
X616344Y270054D01*
X616428Y270147D01*
X616452Y270190D01*
X616482Y270228D01*
X616536Y270342D01*
X616597Y270452D01*
X616610Y270499D01*
X616631Y270543D01*
X616657Y270666D01*
X616692Y270788D01*
X616697Y270849D01*
X616704Y270883D01*
X616703Y270931D01*
X616711Y271032D01*
X616711Y352654D01*
X616697Y352780D01*
X616690Y352906D01*
X616677Y352952D01*
X616671Y353000D01*
X616629Y353119D01*
X616594Y353241D01*
X616570Y353283D01*
X616554Y353328D01*
X616485Y353435D01*
X616424Y353545D01*
X616384Y353591D01*
X616365Y353621D01*
X616330Y353655D01*
X616265Y353731D01*
X531531Y438465D01*
X531432Y438544D01*
X531338Y438628D01*
X531296Y438652D01*
X531258Y438682D01*
X531144Y438736D01*
X531033Y438797D01*
X530987Y438810D01*
X530943Y438831D01*
X530820Y438857D01*
X530698Y438892D01*
X530637Y438897D01*
X530602Y438904D01*
X530554Y438903D01*
X530454Y438911D01*
X235712Y438911D01*
X235686Y438908D01*
X235660Y438910D01*
X235513Y438888D01*
X235366Y438871D01*
X235341Y438863D01*
X235315Y438859D01*
X235177Y438804D01*
X235038Y438754D01*
X235016Y438740D01*
X234991Y438730D01*
X234870Y438645D01*
X234745Y438565D01*
X234727Y438546D01*
X234705Y438531D01*
X234606Y438421D01*
X234503Y438314D01*
X234489Y438292D01*
X234472Y438272D01*
X234400Y438142D01*
X234324Y438015D01*
X234316Y437990D01*
X234303Y437967D01*
X234263Y437824D01*
X234218Y437683D01*
X234216Y437657D01*
X234208Y437632D01*
X234189Y437388D01*
X234189Y428399D01*
X234203Y428273D01*
X234210Y428147D01*
X234223Y428100D01*
X234229Y428052D01*
X234271Y427933D01*
X234306Y427812D01*
X234330Y427770D01*
X234346Y427724D01*
X234415Y427618D01*
X234476Y427508D01*
X234516Y427461D01*
X234535Y427431D01*
X234570Y427398D01*
X234635Y427321D01*
X237146Y424810D01*
X238681Y421105D01*
X238681Y417095D01*
X237146Y413390D01*
X234310Y410554D01*
X230605Y409019D01*
X226595Y409019D01*
X222890Y410554D01*
X220054Y413390D01*
X218519Y417095D01*
X218519Y421105D01*
X220054Y424810D01*
X222565Y427321D01*
X222644Y427420D01*
X222728Y427514D01*
X222752Y427557D01*
X222782Y427594D01*
X222836Y427709D01*
X222897Y427819D01*
X222910Y427866D01*
X222931Y427910D01*
X222957Y428033D01*
X222992Y428155D01*
X222997Y428216D01*
X223004Y428250D01*
X223003Y428298D01*
X223011Y428399D01*
X223011Y441554D01*
X222997Y441680D01*
X222990Y441806D01*
X222977Y441852D01*
X222971Y441900D01*
X222929Y442019D01*
X222894Y442141D01*
X222870Y442183D01*
X222854Y442228D01*
X222785Y442335D01*
X222724Y442445D01*
X222684Y442491D01*
X222665Y442521D01*
X222630Y442555D01*
X222565Y442631D01*
X201331Y463865D01*
X201232Y463944D01*
X201138Y464028D01*
X201096Y464052D01*
X201058Y464082D01*
X200944Y464136D01*
X200833Y464197D01*
X200787Y464210D01*
X200743Y464231D01*
X200620Y464257D01*
X200498Y464292D01*
X200437Y464297D01*
X200402Y464304D01*
X200354Y464303D01*
X200254Y464311D01*
X149650Y464311D01*
X149525Y464297D01*
X149399Y464290D01*
X149352Y464277D01*
X149304Y464271D01*
X149185Y464229D01*
X149064Y464194D01*
X149022Y464170D01*
X148976Y464154D01*
X148870Y464085D01*
X148760Y464024D01*
X148713Y463984D01*
X148683Y463965D01*
X148650Y463930D01*
X148573Y463865D01*
X145671Y460963D01*
X141797Y459358D01*
X137603Y459358D01*
X133729Y460963D01*
X130763Y463929D01*
X129158Y467803D01*
X129158Y471997D01*
X130763Y475871D01*
X133729Y478837D01*
X137603Y480442D01*
X141797Y480442D01*
X145671Y478837D01*
X148573Y475935D01*
X148672Y475856D01*
X148766Y475772D01*
X148809Y475748D01*
X148846Y475718D01*
X148961Y475664D01*
X149071Y475603D01*
X149118Y475590D01*
X149161Y475569D01*
X149285Y475543D01*
X149407Y475508D01*
X149467Y475503D01*
X149502Y475496D01*
X149550Y475497D01*
X149650Y475489D01*
X204312Y475489D01*
X206366Y474638D01*
X208152Y472852D01*
X208152Y472851D01*
X230469Y450535D01*
X230568Y450456D01*
X230662Y450372D01*
X230704Y450348D01*
X230742Y450318D01*
X230856Y450264D01*
X230967Y450203D01*
X231013Y450190D01*
X231057Y450169D01*
X231180Y450143D01*
X231302Y450108D01*
X231363Y450103D01*
X231398Y450096D01*
X231446Y450097D01*
X231546Y450089D01*
X534512Y450089D01*
X536566Y449238D01*
X538352Y447452D01*
X538352Y447451D01*
X625251Y360552D01*
X625252Y360552D01*
X627038Y358766D01*
X627889Y356712D01*
X627889Y271032D01*
X627903Y270906D01*
X627910Y270780D01*
X627923Y270733D01*
X627929Y270685D01*
X627971Y270567D01*
X628006Y270445D01*
X628030Y270403D01*
X628046Y270357D01*
X628115Y270251D01*
X628176Y270141D01*
X628216Y270095D01*
X628235Y270065D01*
X628270Y270031D01*
X628335Y269955D01*
X630914Y267376D01*
X632461Y263641D01*
X632461Y244359D01*
X630914Y240624D01*
X628056Y237766D01*
X624321Y236219D01*
X620279Y236219D01*
G37*
%LPD*%
%LPC*%
G36*
X771956Y165048D02*
X771956Y165048D01*
X767346Y166958D01*
X763818Y170485D01*
X763493Y171271D01*
X763456Y171338D01*
X763428Y171409D01*
X763372Y171490D01*
X763324Y171576D01*
X763272Y171632D01*
X763229Y171695D01*
X763156Y171761D01*
X763090Y171834D01*
X763027Y171877D01*
X762970Y171928D01*
X762884Y171976D01*
X762803Y172032D01*
X762732Y172060D01*
X762665Y172097D01*
X762570Y172124D01*
X762479Y172160D01*
X762403Y172171D01*
X762330Y172192D01*
X762181Y172204D01*
X762134Y172211D01*
X762115Y172209D01*
X762086Y172211D01*
X730071Y172211D01*
X729946Y172197D01*
X729819Y172190D01*
X729773Y172177D01*
X729725Y172171D01*
X729606Y172129D01*
X729485Y172094D01*
X729442Y172070D01*
X729397Y172054D01*
X729291Y171985D01*
X729180Y171924D01*
X729134Y171884D01*
X729104Y171865D01*
X729071Y171830D01*
X728994Y171765D01*
X725769Y168540D01*
X721755Y166877D01*
X700645Y166877D01*
X696631Y168540D01*
X693558Y171613D01*
X691895Y175627D01*
X691895Y179973D01*
X693558Y183987D01*
X696631Y187060D01*
X700645Y188723D01*
X721755Y188723D01*
X725769Y187060D01*
X728994Y183835D01*
X729093Y183756D01*
X729187Y183672D01*
X729229Y183648D01*
X729267Y183618D01*
X729381Y183564D01*
X729492Y183503D01*
X729539Y183490D01*
X729582Y183469D01*
X729706Y183443D01*
X729828Y183408D01*
X729888Y183403D01*
X729923Y183396D01*
X729971Y183397D01*
X730071Y183389D01*
X762261Y183389D01*
X762336Y183397D01*
X762413Y183396D01*
X762509Y183417D01*
X762607Y183429D01*
X762679Y183454D01*
X762753Y183471D01*
X762842Y183513D01*
X762935Y183546D01*
X762999Y183588D01*
X763068Y183620D01*
X763145Y183682D01*
X763228Y183735D01*
X763281Y183790D01*
X763341Y183838D01*
X763401Y183915D01*
X763470Y183986D01*
X763509Y184051D01*
X763556Y184111D01*
X763625Y184244D01*
X763649Y184285D01*
X763655Y184303D01*
X763668Y184329D01*
X763819Y184693D01*
X767346Y188220D01*
X771956Y190130D01*
X776944Y190130D01*
X781554Y188220D01*
X785081Y184693D01*
X786991Y180083D01*
X786991Y175095D01*
X785081Y170485D01*
X781554Y166958D01*
X776944Y165048D01*
X771956Y165048D01*
G37*
%LPD*%
%LPC*%
G36*
X352309Y66039D02*
X352309Y66039D01*
X348574Y67586D01*
X345716Y70444D01*
X344169Y74179D01*
X344169Y78221D01*
X345716Y81956D01*
X348574Y84814D01*
X352309Y86361D01*
X371591Y86361D01*
X375326Y84814D01*
X378184Y81956D01*
X379731Y78221D01*
X379731Y74179D01*
X378184Y70444D01*
X375326Y67586D01*
X371591Y66039D01*
X352309Y66039D01*
G37*
%LPD*%
%LPC*%
G36*
X244359Y243839D02*
X244359Y243839D01*
X240624Y245386D01*
X237766Y248244D01*
X236219Y251979D01*
X236219Y256021D01*
X237766Y259756D01*
X240624Y262614D01*
X244359Y264161D01*
X263641Y264161D01*
X267376Y262614D01*
X270234Y259756D01*
X271781Y256021D01*
X271781Y251979D01*
X270234Y248244D01*
X267376Y245386D01*
X263641Y243839D01*
X244359Y243839D01*
G37*
%LPD*%
%LPC*%
G36*
X315504Y268223D02*
X315504Y268223D01*
X311816Y269751D01*
X308994Y272573D01*
X307466Y276261D01*
X307466Y295239D01*
X308994Y298927D01*
X311816Y301749D01*
X315504Y303277D01*
X319496Y303277D01*
X323184Y301749D01*
X326006Y298927D01*
X327534Y295239D01*
X327534Y276261D01*
X326006Y272573D01*
X323184Y269751D01*
X319496Y268223D01*
X315504Y268223D01*
G37*
%LPD*%
%LPC*%
G36*
X29677Y371855D02*
X29677Y371855D01*
X26316Y373248D01*
X23744Y375820D01*
X22351Y379181D01*
X22351Y382819D01*
X23744Y386180D01*
X26316Y388752D01*
X29677Y390145D01*
X46523Y390145D01*
X49884Y388752D01*
X52456Y386180D01*
X53849Y382819D01*
X53849Y379181D01*
X52456Y375820D01*
X49884Y373248D01*
X46523Y371855D01*
X29677Y371855D01*
G37*
%LPD*%
%LPC*%
G36*
X175981Y22351D02*
X175981Y22351D01*
X172620Y23744D01*
X170048Y26316D01*
X168655Y29677D01*
X168655Y46523D01*
X170048Y49884D01*
X172620Y52456D01*
X175981Y53849D01*
X179619Y53849D01*
X182980Y52456D01*
X185552Y49884D01*
X186945Y46523D01*
X186945Y29677D01*
X185552Y26316D01*
X182980Y23744D01*
X179619Y22351D01*
X175981Y22351D01*
G37*
%LPD*%
%LPC*%
G36*
X29677Y346455D02*
X29677Y346455D01*
X26316Y347848D01*
X23744Y350420D01*
X22351Y353781D01*
X22351Y357419D01*
X23744Y360780D01*
X26316Y363352D01*
X29677Y364745D01*
X46523Y364745D01*
X49884Y363352D01*
X52456Y360780D01*
X53849Y357419D01*
X53849Y353781D01*
X52456Y350420D01*
X49884Y347848D01*
X46523Y346455D01*
X29677Y346455D01*
G37*
%LPD*%
%LPC*%
G36*
X150581Y22351D02*
X150581Y22351D01*
X147220Y23744D01*
X144648Y26316D01*
X143255Y29677D01*
X143255Y46523D01*
X144648Y49884D01*
X147220Y52456D01*
X150581Y53849D01*
X154219Y53849D01*
X157580Y52456D01*
X160152Y49884D01*
X161545Y46523D01*
X161545Y29677D01*
X160152Y26316D01*
X157580Y23744D01*
X154219Y22351D01*
X150581Y22351D01*
G37*
%LPD*%
%LPC*%
G36*
X106337Y150367D02*
X106337Y150367D01*
X101949Y152185D01*
X98591Y155543D01*
X96773Y159931D01*
X96773Y164681D01*
X98591Y169069D01*
X101949Y172427D01*
X106337Y174245D01*
X111087Y174245D01*
X115475Y172427D01*
X118833Y169069D01*
X120651Y164681D01*
X120651Y159931D01*
X118833Y155543D01*
X115475Y152185D01*
X111087Y150367D01*
X106337Y150367D01*
G37*
%LPD*%
%LPC*%
G36*
X624839Y104139D02*
X624839Y104139D01*
X624839Y119079D01*
X626200Y118636D01*
X627625Y117910D01*
X628919Y116970D01*
X630050Y115839D01*
X630990Y114545D01*
X631716Y113120D01*
X632211Y111599D01*
X632461Y110020D01*
X632461Y104139D01*
X624839Y104139D01*
G37*
%LPD*%
%LPC*%
G36*
X650239Y256539D02*
X650239Y256539D01*
X650239Y271479D01*
X651600Y271036D01*
X653025Y270310D01*
X654319Y269370D01*
X655450Y268239D01*
X656390Y266945D01*
X657116Y265520D01*
X657611Y263999D01*
X657861Y262420D01*
X657861Y256539D01*
X650239Y256539D01*
G37*
%LPD*%
%LPC*%
G36*
X459739Y53339D02*
X459739Y53339D01*
X459739Y60961D01*
X465620Y60961D01*
X467199Y60711D01*
X468720Y60216D01*
X470145Y59490D01*
X471439Y58550D01*
X472570Y57419D01*
X473510Y56125D01*
X474236Y54700D01*
X474679Y53339D01*
X459739Y53339D01*
G37*
%LPD*%
%LPC*%
G36*
X421639Y53339D02*
X421639Y53339D01*
X421639Y60961D01*
X427520Y60961D01*
X429099Y60711D01*
X430620Y60216D01*
X432045Y59490D01*
X433339Y58550D01*
X434470Y57419D01*
X435410Y56125D01*
X436136Y54700D01*
X436579Y53339D01*
X421639Y53339D01*
G37*
%LPD*%
%LPC*%
G36*
X236521Y180339D02*
X236521Y180339D01*
X236964Y181700D01*
X237690Y183125D01*
X238630Y184419D01*
X239761Y185550D01*
X241055Y186490D01*
X242480Y187216D01*
X244001Y187711D01*
X245580Y187961D01*
X251461Y187961D01*
X251461Y180339D01*
X236521Y180339D01*
G37*
%LPD*%
%LPC*%
G36*
X401621Y53339D02*
X401621Y53339D01*
X402064Y54700D01*
X402790Y56125D01*
X403730Y57419D01*
X404861Y58550D01*
X406155Y59490D01*
X407580Y60216D01*
X409101Y60711D01*
X410680Y60961D01*
X416561Y60961D01*
X416561Y53339D01*
X401621Y53339D01*
G37*
%LPD*%
%LPC*%
G36*
X439721Y53339D02*
X439721Y53339D01*
X440164Y54700D01*
X440890Y56125D01*
X441830Y57419D01*
X442961Y58550D01*
X444255Y59490D01*
X445680Y60216D01*
X447201Y60711D01*
X448780Y60961D01*
X454661Y60961D01*
X454661Y53339D01*
X439721Y53339D01*
G37*
%LPD*%
%LPC*%
G36*
X650239Y251461D02*
X650239Y251461D01*
X657861Y251461D01*
X657861Y245580D01*
X657611Y244001D01*
X657116Y242480D01*
X656390Y241055D01*
X655450Y239761D01*
X654319Y238630D01*
X653025Y237690D01*
X651600Y236964D01*
X650239Y236521D01*
X650239Y251461D01*
G37*
%LPD*%
%LPC*%
G36*
X256539Y167639D02*
X256539Y167639D01*
X256539Y175261D01*
X271479Y175261D01*
X271036Y173900D01*
X270310Y172475D01*
X269370Y171181D01*
X268239Y170050D01*
X266945Y169110D01*
X265520Y168384D01*
X263999Y167889D01*
X262420Y167639D01*
X256539Y167639D01*
G37*
%LPD*%
%LPC*%
G36*
X421639Y40639D02*
X421639Y40639D01*
X421639Y48261D01*
X436579Y48261D01*
X436136Y46900D01*
X435410Y45475D01*
X434470Y44181D01*
X433339Y43050D01*
X432045Y42110D01*
X430620Y41384D01*
X429099Y40889D01*
X427520Y40639D01*
X421639Y40639D01*
G37*
%LPD*%
%LPC*%
G36*
X459739Y40639D02*
X459739Y40639D01*
X459739Y48261D01*
X474679Y48261D01*
X474236Y46900D01*
X473510Y45475D01*
X472570Y44181D01*
X471439Y43050D01*
X470145Y42110D01*
X468720Y41384D01*
X467199Y40889D01*
X465620Y40639D01*
X459739Y40639D01*
G37*
%LPD*%
%LPC*%
G36*
X637539Y256539D02*
X637539Y256539D01*
X637539Y262420D01*
X637789Y263999D01*
X638284Y265520D01*
X639010Y266945D01*
X639950Y268239D01*
X641081Y269370D01*
X642375Y270310D01*
X643800Y271036D01*
X645161Y271479D01*
X645161Y256539D01*
X637539Y256539D01*
G37*
%LPD*%
%LPC*%
G36*
X612139Y104139D02*
X612139Y104139D01*
X612139Y110020D01*
X612389Y111599D01*
X612884Y113120D01*
X613610Y114545D01*
X614550Y115839D01*
X615681Y116970D01*
X616975Y117910D01*
X618400Y118636D01*
X619761Y119079D01*
X619761Y104139D01*
X612139Y104139D01*
G37*
%LPD*%
%LPC*%
G36*
X643800Y236964D02*
X643800Y236964D01*
X642375Y237690D01*
X641081Y238630D01*
X639950Y239761D01*
X639010Y241055D01*
X638284Y242480D01*
X637789Y244001D01*
X637539Y245580D01*
X637539Y251461D01*
X645161Y251461D01*
X645161Y236521D01*
X643800Y236964D01*
G37*
%LPD*%
%LPC*%
G36*
X245580Y167639D02*
X245580Y167639D01*
X244001Y167889D01*
X242480Y168384D01*
X241055Y169110D01*
X239761Y170050D01*
X238630Y171181D01*
X237690Y172475D01*
X236964Y173900D01*
X236521Y175261D01*
X251461Y175261D01*
X251461Y167639D01*
X245580Y167639D01*
G37*
%LPD*%
%LPC*%
G36*
X448780Y40639D02*
X448780Y40639D01*
X447201Y40889D01*
X445680Y41384D01*
X444255Y42110D01*
X442961Y43050D01*
X441830Y44181D01*
X440890Y45475D01*
X440164Y46900D01*
X439721Y48261D01*
X454661Y48261D01*
X454661Y40639D01*
X448780Y40639D01*
G37*
%LPD*%
%LPC*%
G36*
X410680Y40639D02*
X410680Y40639D01*
X409101Y40889D01*
X407580Y41384D01*
X406155Y42110D01*
X404861Y43050D01*
X403730Y44181D01*
X402790Y45475D01*
X402064Y46900D01*
X401621Y48261D01*
X416561Y48261D01*
X416561Y40639D01*
X410680Y40639D01*
G37*
%LPD*%
%LPC*%
G36*
X472376Y205676D02*
X472376Y205676D01*
X472376Y220439D01*
X473752Y219992D01*
X475159Y219275D01*
X476437Y218346D01*
X477553Y217230D01*
X478482Y215952D01*
X479199Y214545D01*
X479687Y213043D01*
X479934Y211483D01*
X479934Y205676D01*
X472376Y205676D01*
G37*
%LPD*%
%LPC*%
G36*
X472376Y200724D02*
X472376Y200724D01*
X479934Y200724D01*
X479934Y194917D01*
X479687Y193357D01*
X479199Y191855D01*
X478482Y190448D01*
X477553Y189170D01*
X476437Y188054D01*
X475159Y187125D01*
X473752Y186408D01*
X472376Y185961D01*
X472376Y200724D01*
G37*
%LPD*%
%LPC*%
G36*
X306831Y40131D02*
X306831Y40131D01*
X306831Y53641D01*
X306942Y53624D01*
X308310Y53179D01*
X309593Y52525D01*
X310757Y51679D01*
X311775Y50661D01*
X312621Y49497D01*
X313275Y48214D01*
X313720Y46846D01*
X313945Y45424D01*
X313945Y40131D01*
X306831Y40131D01*
G37*
%LPD*%
%LPC*%
G36*
X154431Y116331D02*
X154431Y116331D01*
X154431Y129841D01*
X154542Y129824D01*
X155910Y129379D01*
X157193Y128725D01*
X158357Y127879D01*
X159375Y126861D01*
X160221Y125697D01*
X160875Y124414D01*
X161320Y123046D01*
X161545Y121624D01*
X161545Y116331D01*
X154431Y116331D01*
G37*
%LPD*%
%LPC*%
G36*
X306831Y36069D02*
X306831Y36069D01*
X313945Y36069D01*
X313945Y30776D01*
X313720Y29354D01*
X313275Y27986D01*
X312621Y26703D01*
X311775Y25539D01*
X310757Y24521D01*
X309593Y23675D01*
X308310Y23021D01*
X306942Y22576D01*
X306831Y22559D01*
X306831Y36069D01*
G37*
%LPD*%
%LPC*%
G36*
X154431Y112269D02*
X154431Y112269D01*
X161545Y112269D01*
X161545Y106976D01*
X161320Y105554D01*
X160875Y104186D01*
X160221Y102903D01*
X159375Y101739D01*
X158357Y100721D01*
X157193Y99875D01*
X155910Y99221D01*
X154542Y98776D01*
X154431Y98759D01*
X154431Y112269D01*
G37*
%LPD*%
%LPC*%
G36*
X295655Y40131D02*
X295655Y40131D01*
X295655Y45424D01*
X295880Y46846D01*
X296325Y48214D01*
X296979Y49497D01*
X297825Y50661D01*
X298843Y51679D01*
X300007Y52525D01*
X301290Y53179D01*
X302658Y53624D01*
X302769Y53641D01*
X302769Y40131D01*
X295655Y40131D01*
G37*
%LPD*%
%LPC*%
G36*
X143255Y116331D02*
X143255Y116331D01*
X143255Y121624D01*
X143480Y123046D01*
X143925Y124414D01*
X144579Y125697D01*
X145425Y126861D01*
X146443Y127879D01*
X147607Y128725D01*
X148890Y129379D01*
X150258Y129824D01*
X150369Y129841D01*
X150369Y116331D01*
X143255Y116331D01*
G37*
%LPD*%
%LPC*%
G36*
X302658Y22576D02*
X302658Y22576D01*
X301290Y23021D01*
X300007Y23675D01*
X298843Y24521D01*
X297825Y25539D01*
X296979Y26703D01*
X296325Y27986D01*
X295880Y29354D01*
X295655Y30776D01*
X295655Y36069D01*
X302769Y36069D01*
X302769Y22559D01*
X302658Y22576D01*
G37*
%LPD*%
%LPC*%
G36*
X150258Y98776D02*
X150258Y98776D01*
X148890Y99221D01*
X147607Y99875D01*
X146443Y100721D01*
X145425Y101739D01*
X144579Y102903D01*
X143925Y104186D01*
X143480Y105554D01*
X143255Y106976D01*
X143255Y112269D01*
X150369Y112269D01*
X150369Y98759D01*
X150258Y98776D01*
G37*
%LPD*%
%LPC*%
G36*
X154399Y408399D02*
X154399Y408399D01*
X154399Y417323D01*
X161117Y417323D01*
X161763Y417150D01*
X162342Y416815D01*
X162815Y416342D01*
X163150Y415763D01*
X163323Y415117D01*
X163323Y408399D01*
X154399Y408399D01*
G37*
%LPD*%
%LPC*%
G36*
X141477Y408399D02*
X141477Y408399D01*
X141477Y415117D01*
X141650Y415763D01*
X141985Y416342D01*
X142458Y416815D01*
X143037Y417150D01*
X143683Y417323D01*
X150401Y417323D01*
X150401Y408399D01*
X141477Y408399D01*
G37*
%LPD*%
%LPC*%
G36*
X154399Y395477D02*
X154399Y395477D01*
X154399Y404401D01*
X163323Y404401D01*
X163323Y397683D01*
X163150Y397037D01*
X162815Y396458D01*
X162342Y395985D01*
X161763Y395650D01*
X161117Y395477D01*
X154399Y395477D01*
G37*
%LPD*%
%LPC*%
G36*
X143683Y395477D02*
X143683Y395477D01*
X143037Y395650D01*
X142458Y395985D01*
X141985Y396458D01*
X141650Y397037D01*
X141477Y397683D01*
X141477Y404401D01*
X150401Y404401D01*
X150401Y395477D01*
X143683Y395477D01*
G37*
%LPD*%
%LPC*%
G36*
X502584Y173481D02*
X502584Y173481D01*
X502705Y174246D01*
X503286Y176033D01*
X504139Y177707D01*
X505244Y179228D01*
X506572Y180556D01*
X508093Y181661D01*
X509767Y182514D01*
X511554Y183095D01*
X512319Y183216D01*
X512319Y173481D01*
X502584Y173481D01*
G37*
%LPD*%
%LPC*%
G36*
X511554Y159805D02*
X511554Y159805D01*
X509767Y160386D01*
X508093Y161239D01*
X506572Y162344D01*
X505244Y163672D01*
X504139Y165193D01*
X503286Y166867D01*
X502705Y168654D01*
X502584Y169419D01*
X512319Y169419D01*
X512319Y159684D01*
X511554Y159805D01*
G37*
%LPD*%
%LPC*%
G36*
X111251Y119633D02*
X111251Y119633D01*
X111251Y128779D01*
X111508Y128739D01*
X113295Y128158D01*
X114969Y127305D01*
X116490Y126200D01*
X117818Y124872D01*
X118923Y123351D01*
X119776Y121677D01*
X120357Y119890D01*
X120397Y119633D01*
X111251Y119633D01*
G37*
%LPD*%
%LPC*%
G36*
X111251Y114555D02*
X111251Y114555D01*
X120397Y114555D01*
X120357Y114298D01*
X119776Y112511D01*
X118923Y110837D01*
X117818Y109316D01*
X116490Y107988D01*
X114969Y106883D01*
X113295Y106030D01*
X111508Y105449D01*
X111251Y105409D01*
X111251Y114555D01*
G37*
%LPD*%
%LPC*%
G36*
X97027Y119633D02*
X97027Y119633D01*
X97067Y119890D01*
X97648Y121677D01*
X98501Y123351D01*
X99606Y124872D01*
X100934Y126200D01*
X102455Y127305D01*
X104129Y128158D01*
X105916Y128739D01*
X106173Y128779D01*
X106173Y119633D01*
X97027Y119633D01*
G37*
%LPD*%
%LPC*%
G36*
X777497Y231436D02*
X777497Y231436D01*
X777497Y240585D01*
X779264Y240011D01*
X781023Y239115D01*
X782620Y237954D01*
X784015Y236559D01*
X785176Y234962D01*
X786072Y233203D01*
X786646Y231436D01*
X777497Y231436D01*
G37*
%LPD*%
%LPC*%
G36*
X762254Y231436D02*
X762254Y231436D01*
X762828Y233203D01*
X763724Y234962D01*
X764885Y236559D01*
X766280Y237954D01*
X767877Y239115D01*
X769636Y240011D01*
X771403Y240585D01*
X771403Y231436D01*
X762254Y231436D01*
G37*
%LPD*%
%LPC*%
G36*
X777497Y225342D02*
X777497Y225342D01*
X786646Y225342D01*
X786072Y223575D01*
X785176Y221816D01*
X784015Y220219D01*
X782620Y218824D01*
X781023Y217663D01*
X779264Y216767D01*
X777497Y216193D01*
X777497Y225342D01*
G37*
%LPD*%
%LPC*%
G36*
X769636Y216767D02*
X769636Y216767D01*
X767877Y217663D01*
X766280Y218824D01*
X764885Y220219D01*
X763724Y221816D01*
X762828Y223575D01*
X762254Y225342D01*
X771403Y225342D01*
X771403Y216193D01*
X769636Y216767D01*
G37*
%LPD*%
%LPC*%
G36*
X205699Y421599D02*
X205699Y421599D01*
X205699Y429181D01*
X211075Y429181D01*
X211721Y429008D01*
X212300Y428673D01*
X212773Y428200D01*
X213108Y427621D01*
X213281Y426975D01*
X213281Y421599D01*
X205699Y421599D01*
G37*
%LPD*%
%LPC*%
G36*
X193119Y421599D02*
X193119Y421599D01*
X193119Y426975D01*
X193292Y427621D01*
X193627Y428200D01*
X194100Y428673D01*
X194679Y429008D01*
X195325Y429181D01*
X200701Y429181D01*
X200701Y421599D01*
X193119Y421599D01*
G37*
%LPD*%
%LPC*%
G36*
X205699Y409019D02*
X205699Y409019D01*
X205699Y416601D01*
X213281Y416601D01*
X213281Y411225D01*
X213108Y410579D01*
X212773Y410000D01*
X212300Y409527D01*
X211721Y409192D01*
X211075Y409019D01*
X205699Y409019D01*
G37*
%LPD*%
%LPC*%
G36*
X195325Y409019D02*
X195325Y409019D01*
X194679Y409192D01*
X194100Y409527D01*
X193627Y410000D01*
X193292Y410579D01*
X193119Y411225D01*
X193119Y416601D01*
X200701Y416601D01*
X200701Y409019D01*
X195325Y409019D01*
G37*
%LPD*%
%LPC*%
G36*
X141731Y446531D02*
X141731Y446531D01*
X141731Y455042D01*
X144067Y455042D01*
X150242Y448867D01*
X150242Y446531D01*
X141731Y446531D01*
G37*
%LPD*%
%LPC*%
G36*
X535431Y236981D02*
X535431Y236981D01*
X535431Y245492D01*
X537767Y245492D01*
X543942Y239317D01*
X543942Y236981D01*
X535431Y236981D01*
G37*
%LPD*%
%LPC*%
G36*
X522858Y236981D02*
X522858Y236981D01*
X522858Y239317D01*
X529033Y245492D01*
X531369Y245492D01*
X531369Y236981D01*
X522858Y236981D01*
G37*
%LPD*%
%LPC*%
G36*
X129158Y446531D02*
X129158Y446531D01*
X129158Y448867D01*
X135333Y455042D01*
X137669Y455042D01*
X137669Y446531D01*
X129158Y446531D01*
G37*
%LPD*%
%LPC*%
G36*
X535431Y224408D02*
X535431Y224408D01*
X535431Y232919D01*
X543942Y232919D01*
X543942Y230583D01*
X537767Y224408D01*
X535431Y224408D01*
G37*
%LPD*%
%LPC*%
G36*
X141731Y433958D02*
X141731Y433958D01*
X141731Y442469D01*
X150242Y442469D01*
X150242Y440133D01*
X144067Y433958D01*
X141731Y433958D01*
G37*
%LPD*%
%LPC*%
G36*
X529033Y224408D02*
X529033Y224408D01*
X522858Y230583D01*
X522858Y232919D01*
X531369Y232919D01*
X531369Y224408D01*
X529033Y224408D01*
G37*
%LPD*%
%LPC*%
G36*
X135333Y433958D02*
X135333Y433958D01*
X129158Y440133D01*
X129158Y442469D01*
X137669Y442469D01*
X137669Y433958D01*
X135333Y433958D01*
G37*
%LPD*%
%LPC*%
G36*
X774449Y228388D02*
X774449Y228388D01*
X774449Y228390D01*
X774451Y228390D01*
X774451Y228388D01*
X774449Y228388D01*
G37*
%LPD*%
D10*
X203200Y419100D03*
D11*
X228600Y342900D03*
X228600Y368300D03*
X228600Y393700D03*
X228600Y419100D03*
X203200Y393700D03*
X203200Y368300D03*
X203200Y342900D03*
D12*
X419100Y101600D03*
D13*
X411480Y76200D02*
X426720Y76200D01*
X426720Y50800D02*
X411480Y50800D01*
D12*
X457200Y101600D03*
D13*
X449580Y76200D02*
X464820Y76200D01*
X464820Y50800D02*
X449580Y50800D01*
D14*
X774450Y177589D03*
X774450Y228389D03*
D13*
X647700Y246380D02*
X647700Y261620D01*
X622300Y261620D02*
X622300Y246380D01*
X596900Y246380D02*
X596900Y261620D01*
X596900Y109220D02*
X596900Y93980D01*
X622300Y93980D02*
X622300Y109220D01*
X647700Y109220D02*
X647700Y93980D01*
D15*
X592582Y177800D02*
X575818Y177800D01*
X702818Y177800D02*
X719582Y177800D01*
D16*
X139700Y444500D03*
D17*
X139700Y469900D03*
D16*
X533400Y234950D03*
D17*
X533400Y260350D03*
D18*
X469900Y278257D02*
X469900Y293243D01*
X444500Y293243D02*
X444500Y278257D01*
X419100Y278257D02*
X419100Y293243D01*
X393700Y293243D02*
X393700Y278257D01*
X368300Y278257D02*
X368300Y293243D01*
X342900Y293243D02*
X342900Y278257D01*
X317500Y278257D02*
X317500Y293243D01*
X317500Y210693D02*
X317500Y195707D01*
X342900Y195707D02*
X342900Y210693D01*
X368300Y210693D02*
X368300Y195707D01*
X393700Y195707D02*
X393700Y210693D01*
X419100Y210693D02*
X419100Y195707D01*
X444500Y195707D02*
X444500Y210693D01*
X469900Y210693D02*
X469900Y195707D01*
D12*
X254000Y279400D03*
D13*
X246380Y254000D02*
X261620Y254000D01*
X261620Y228600D02*
X246380Y228600D01*
X246380Y203200D02*
X261620Y203200D01*
X261620Y177800D02*
X246380Y177800D01*
X246380Y152400D02*
X261620Y152400D01*
D19*
X381000Y165100D03*
X381000Y139700D03*
X469900Y165100D03*
X469900Y139700D03*
X425450Y165100D03*
X425450Y139700D03*
D20*
X152400Y406400D03*
D21*
X152400Y381000D03*
X152400Y355600D03*
X152400Y330200D03*
X152400Y304800D03*
X152400Y279400D03*
X152400Y254000D03*
X152400Y228600D03*
X152400Y203200D03*
D22*
X330200Y120904D02*
X330200Y107696D01*
X304800Y107696D02*
X304800Y120904D01*
X177800Y120904D02*
X177800Y107696D01*
X152400Y107696D02*
X152400Y120904D01*
X279400Y120904D02*
X279400Y107696D01*
X254000Y107696D02*
X254000Y120904D01*
X203200Y120904D02*
X203200Y107696D01*
X228600Y107696D02*
X228600Y120904D01*
X152400Y44704D02*
X152400Y31496D01*
X177800Y31496D02*
X177800Y44704D01*
X203200Y44704D02*
X203200Y31496D01*
X228600Y31496D02*
X228600Y44704D01*
X254000Y44704D02*
X254000Y31496D01*
X279400Y31496D02*
X279400Y44704D01*
X304800Y44704D02*
X304800Y31496D01*
X330200Y31496D02*
X330200Y44704D01*
X44704Y381000D02*
X31496Y381000D01*
X31496Y355600D02*
X44704Y355600D01*
X44704Y228600D02*
X31496Y228600D01*
X31496Y203200D02*
X44704Y203200D01*
X44704Y330200D02*
X31496Y330200D01*
X31496Y304800D02*
X44704Y304800D01*
X44704Y254000D02*
X31496Y254000D01*
X31496Y279400D02*
X44704Y279400D01*
X107696Y203200D02*
X120904Y203200D01*
X120904Y228600D02*
X107696Y228600D01*
X107696Y254000D02*
X120904Y254000D01*
X120904Y279400D02*
X107696Y279400D01*
X107696Y304800D02*
X120904Y304800D01*
X120904Y330200D02*
X107696Y330200D01*
X107696Y355600D02*
X120904Y355600D01*
X120904Y381000D02*
X107696Y381000D01*
D23*
X108712Y117094D03*
X43688Y117094D03*
X108712Y162306D03*
X43688Y162306D03*
D24*
X552450Y63500D03*
X552450Y139700D03*
D23*
X539750Y171450D03*
X514350Y171450D03*
D12*
X361950Y101600D03*
D13*
X354330Y76200D02*
X369570Y76200D01*
X369570Y50800D02*
X354330Y50800D01*
D25*
X298450Y158750D02*
X254000Y203200D01*
X298450Y158750D02*
X330200Y158750D01*
X215900Y355600D02*
X203200Y368300D01*
X342900Y171450D02*
X330200Y158750D01*
X342900Y171450D02*
X342900Y203200D01*
X215900Y241300D02*
X215900Y355600D01*
X215900Y241300D02*
X254000Y203200D01*
D26*
X50800Y457200D03*
X50800Y50800D03*
X774700Y50800D03*
X774700Y457200D03*
D25*
X152400Y114300D02*
X152400Y101600D01*
D26*
X482600Y381000D03*
D25*
X149606Y117094D02*
X108712Y117094D01*
X149606Y117094D02*
X152400Y114300D01*
X254000Y177800D02*
X266700Y177800D01*
X304800Y85344D02*
X304800Y38100D01*
X157480Y96520D02*
X152400Y101600D01*
X157480Y96520D02*
X293624Y96520D01*
X293624Y150876D01*
X266700Y177800D01*
X293624Y96520D02*
X304800Y85344D01*
D27*
X622300Y254000D02*
X622300Y355600D01*
X533400Y444500D01*
X228600Y444500D01*
X203200Y469900D01*
X139700Y469900D01*
X228600Y444500D02*
X228600Y419100D01*
X711200Y177800D02*
X774239Y177800D01*
X774450Y177589D01*
X596900Y254000D02*
X584200Y241300D01*
X584200Y177800D01*
X584200Y114300D01*
X596900Y101600D01*
D28*
X381000Y228600D03*
D27*
X533400Y260350D02*
X533400Y273050D01*
X520700Y285750D01*
X469900Y285750D01*
X533400Y260350D02*
X546100Y260350D01*
X558800Y247650D01*
X647700Y88900D02*
X635000Y76200D01*
X647700Y88900D02*
X647700Y101600D01*
X558800Y171450D02*
X558800Y247650D01*
X558800Y171450D02*
X571500Y158750D01*
D25*
X336550Y31750D02*
X330200Y38100D01*
X336550Y31750D02*
X374650Y31750D01*
X387350Y44450D01*
X387350Y101600D01*
D27*
X571500Y76200D02*
X571500Y158750D01*
X571500Y76200D02*
X635000Y76200D01*
X558800Y63500D02*
X552450Y63500D01*
X558800Y63500D02*
X571500Y76200D01*
D25*
X387350Y101600D02*
X361950Y127000D01*
X361950Y158750D02*
X368300Y165100D01*
X381000Y165100D01*
X361950Y158750D02*
X361950Y127000D01*
D29*
X381000Y165100D02*
X381000Y228600D01*
D25*
X317500Y247650D02*
X317500Y203200D01*
X317500Y247650D02*
X285750Y279400D01*
X254000Y279400D01*
X254000Y342900D02*
X228600Y368300D01*
X254000Y342900D02*
X254000Y279400D01*
X215900Y381000D02*
X203200Y393700D01*
X241300Y381000D02*
X311150Y311150D01*
X400050Y311150D01*
X419100Y292100D02*
X419100Y285750D01*
X419100Y292100D02*
X400050Y311150D01*
X241300Y381000D02*
X215900Y381000D01*
X228600Y393700D02*
X243840Y393700D01*
X317500Y320040D02*
X419100Y320040D01*
X444500Y294640D02*
X444500Y285750D01*
X444500Y294640D02*
X419100Y320040D01*
X317500Y320040D02*
X243840Y393700D01*
X412750Y76200D02*
X419100Y76200D01*
X412750Y76200D02*
X400050Y88900D01*
X400050Y107950D01*
X419100Y76200D02*
X457200Y76200D01*
X400050Y107950D02*
X381000Y127000D01*
X381000Y139700D01*
X368300Y273050D02*
X368300Y285750D01*
X368300Y273050D02*
X416560Y224790D01*
X448310Y224790D01*
X457200Y215900D01*
X457200Y177800D01*
X469900Y165100D01*
X419100Y107950D02*
X419100Y101600D01*
X419100Y107950D02*
X406400Y120650D01*
X406400Y215900D01*
X342900Y279400D02*
X342900Y285750D01*
X342900Y279400D02*
X406400Y215900D01*
X444500Y203200D02*
X444500Y196850D01*
X425450Y177800D01*
X425450Y165100D01*
X469900Y114300D02*
X457200Y101600D01*
X469900Y114300D02*
X469900Y139700D01*
X425450Y139700D01*
X152400Y203200D02*
X114300Y203200D01*
X177800Y139700D02*
X203200Y114300D01*
X177800Y177800D02*
X152400Y203200D01*
X177800Y177800D02*
X177800Y139700D01*
X152400Y381000D02*
X114300Y381000D01*
X203200Y60960D02*
X203200Y38100D01*
X203200Y60960D02*
X198628Y65532D01*
X60452Y339852D02*
X101600Y381000D01*
X114300Y381000D01*
X60452Y339852D02*
X60452Y101543D01*
X96463Y65532D01*
X198628Y65532D01*
X152400Y355600D02*
X114300Y355600D01*
X101600Y355600D01*
X228600Y63500D02*
X228600Y38100D01*
X228600Y63500D02*
X218440Y73660D01*
X68580Y322580D02*
X101600Y355600D01*
X101317Y73660D02*
X218440Y73660D01*
X101317Y73660D02*
X68580Y106397D01*
X68580Y322580D01*
X114300Y330200D02*
X152400Y330200D01*
X114300Y330200D02*
X101600Y330200D01*
X254000Y63500D02*
X254000Y38100D01*
X254000Y63500D02*
X235712Y81788D01*
X76708Y305308D02*
X101600Y330200D01*
X106905Y81788D02*
X235712Y81788D01*
X106905Y81788D02*
X76708Y111985D01*
X76708Y305308D01*
X114300Y304800D02*
X152400Y304800D01*
X114300Y304800D02*
X101600Y304800D01*
X279400Y76200D02*
X279400Y38100D01*
X279400Y76200D02*
X265684Y89916D01*
X84836Y288036D02*
X101600Y304800D01*
X111760Y89916D02*
X265684Y89916D01*
X111760Y89916D02*
X84836Y116840D01*
X84836Y288036D01*
X114300Y279400D02*
X152400Y279400D01*
X165100Y279400D02*
X215900Y228600D01*
X165100Y279400D02*
X152400Y279400D01*
X247396Y133604D02*
X260748Y133604D01*
X247396Y133604D02*
X215900Y165100D01*
X279400Y114952D02*
X279400Y114300D01*
X279400Y114952D02*
X260748Y133604D01*
X215900Y165100D02*
X215900Y228600D01*
X152400Y254000D02*
X114300Y254000D01*
X203200Y165100D02*
X254000Y114300D01*
X203200Y165100D02*
X203200Y215900D01*
X165100Y254000D01*
X152400Y254000D01*
X152400Y228600D02*
X114300Y228600D01*
X165100Y228600D02*
X190500Y203200D01*
X165100Y228600D02*
X152400Y228600D01*
X190500Y203200D02*
X190500Y152400D01*
X228600Y114300D01*
X304800Y114300D02*
X304800Y95250D01*
X349250Y50800D02*
X361950Y50800D01*
X349250Y50800D02*
X304800Y95250D01*
X330200Y107950D02*
X330200Y114300D01*
X336550Y101600D02*
X361950Y101600D01*
X336550Y101600D02*
X330200Y107950D01*
D27*
X539750Y152400D02*
X539750Y171450D01*
X539750Y152400D02*
X552450Y139700D01*
M02*
