M48
;GenerationSoftware,Autodesk,EAGLE,9.5.1*%
;CreationDate,2019-11-27T22:53:18Z*%
FMAT,2
ICI,OFF
METRIC,TZ,000.000
T9C0.350
T8C0.800
T7C0.813
T6C0.991
T5C1.000
T4C1.016
T3C1.118
T2C1.300
T1C5.080
%
G90
M71
T1
X5080Y45720
X5080Y5080
X77470Y5080
X77470Y45720
X48260Y38100
T2
X77445Y17759
X77445Y22839
T3
X71120Y17780
X58420Y17780
T4
X4369Y16231
X25400Y27940
X25400Y25400
X25400Y22860
X36195Y10160
X36195Y7620
X62230Y10160
X41910Y10160
X41910Y7620
X45720Y10160
X45720Y7620
X45720Y5080
X41910Y5080
X64770Y25400
X62230Y25400
X59690Y25400
X59690Y10160
X64770Y10160
X10871Y16231
X4369Y11709
X10871Y11709
X36195Y5080
X25400Y15240
X25400Y20320
X25400Y17780
T5
X20320Y41910
X22860Y34290
X22860Y36830
X22860Y39370
X22860Y41910
X20320Y34290
X20320Y36830
X20320Y39370
T6
X41910Y28575
X39370Y28575
X36830Y28575
X34290Y28575
X31750Y20320
X34290Y20320
X36830Y20320
X39370Y20320
X41910Y20320
X44450Y20320
X46990Y20320
X31750Y28575
X46990Y28575
X44450Y28575
T7
X25400Y11430
X13970Y46990
X13970Y44450
X55245Y13970
X53975Y17145
X51435Y17145
X3810Y22860
X33020Y11430
X30480Y11430
X17780Y11430
X15240Y11430
X27940Y11430
X11430Y33020
X20320Y11430
X22860Y11430
X15240Y3810
X17780Y3810
X20320Y3810
X22860Y3810
X25400Y3810
X27940Y3810
X30480Y3810
X33020Y3810
X53340Y26035
X3810Y35560
X55245Y6350
X3810Y20320
X3810Y33020
X3810Y30480
X3810Y25400
X3810Y27940
X11430Y20320
X11430Y22860
X11430Y25400
X11430Y27940
X11430Y30480
X3810Y38100
X11430Y35560
X11430Y38100
X53340Y23495
T8
X15240Y33020
X15240Y30480
X15240Y27940
X15240Y25400
X15240Y22860
X15240Y20320
X15240Y40640
X15240Y38100
X15240Y35560
T9
X38100Y22860
M30