G04 EAGLE Gerber RS-274X export*
G75*
%MOMM*%
%FSLAX34Y34*%
%LPD*%
%INSoldermask Top*%
%IPPOS*%
%AMOC8*
5,1,8,0,0,1.08239X$1,22.5*%
G01*
%ADD10R,1.711200X1.711200*%
%ADD11C,1.711200*%
%ADD12R,1.727200X1.727200*%
%ADD13C,1.727200*%
%ADD14C,2.203200*%
%ADD15C,1.879600*%
%ADD16P,1.951982X8X292.500000*%
%ADD17C,1.803400*%
%ADD18C,1.701800*%
%ADD19R,2.743200X1.473200*%
%ADD20R,1.879600X1.879600*%
%ADD21C,1.879600*%
%ADD22C,1.524000*%
%ADD23C,2.082800*%
%ADD24P,1.649562X8X112.500000*%
%ADD25P,6.818191X8X22.500000*%
%ADD26C,0.959600*%


D10*
X203200Y419100D03*
D11*
X228600Y342900D03*
X228600Y368300D03*
X228600Y393700D03*
X228600Y419100D03*
X203200Y393700D03*
X203200Y368300D03*
X203200Y342900D03*
D12*
X419100Y101600D03*
D13*
X411480Y76200D02*
X426720Y76200D01*
X426720Y50800D02*
X411480Y50800D01*
D12*
X457200Y101600D03*
D13*
X449580Y76200D02*
X464820Y76200D01*
X464820Y50800D02*
X449580Y50800D01*
D14*
X774450Y177589D03*
X774450Y228389D03*
D13*
X647700Y246380D02*
X647700Y261620D01*
X622300Y261620D02*
X622300Y246380D01*
X596900Y246380D02*
X596900Y261620D01*
X596900Y109220D02*
X596900Y93980D01*
X622300Y93980D02*
X622300Y109220D01*
X647700Y109220D02*
X647700Y93980D01*
D15*
X592582Y177800D02*
X575818Y177800D01*
X702818Y177800D02*
X719582Y177800D01*
D16*
X139700Y444500D03*
D17*
X139700Y469900D03*
D16*
X533400Y234950D03*
D17*
X533400Y260350D03*
D18*
X469900Y278257D02*
X469900Y293243D01*
X444500Y293243D02*
X444500Y278257D01*
X419100Y278257D02*
X419100Y293243D01*
X393700Y293243D02*
X393700Y278257D01*
X368300Y278257D02*
X368300Y293243D01*
X342900Y293243D02*
X342900Y278257D01*
X317500Y278257D02*
X317500Y293243D01*
X317500Y210693D02*
X317500Y195707D01*
X342900Y195707D02*
X342900Y210693D01*
X368300Y210693D02*
X368300Y195707D01*
X393700Y195707D02*
X393700Y210693D01*
X419100Y210693D02*
X419100Y195707D01*
X444500Y195707D02*
X444500Y210693D01*
X469900Y210693D02*
X469900Y195707D01*
D12*
X254000Y279400D03*
D13*
X246380Y254000D02*
X261620Y254000D01*
X261620Y228600D02*
X246380Y228600D01*
X246380Y203200D02*
X261620Y203200D01*
X261620Y177800D02*
X246380Y177800D01*
X246380Y152400D02*
X261620Y152400D01*
D19*
X381000Y165100D03*
X381000Y139700D03*
X469900Y165100D03*
X469900Y139700D03*
X425450Y165100D03*
X425450Y139700D03*
D20*
X152400Y406400D03*
D21*
X152400Y381000D03*
X152400Y355600D03*
X152400Y330200D03*
X152400Y304800D03*
X152400Y279400D03*
X152400Y254000D03*
X152400Y228600D03*
X152400Y203200D03*
D22*
X330200Y120904D02*
X330200Y107696D01*
X304800Y107696D02*
X304800Y120904D01*
X177800Y120904D02*
X177800Y107696D01*
X152400Y107696D02*
X152400Y120904D01*
X279400Y120904D02*
X279400Y107696D01*
X254000Y107696D02*
X254000Y120904D01*
X203200Y120904D02*
X203200Y107696D01*
X228600Y107696D02*
X228600Y120904D01*
X152400Y44704D02*
X152400Y31496D01*
X177800Y31496D02*
X177800Y44704D01*
X203200Y44704D02*
X203200Y31496D01*
X228600Y31496D02*
X228600Y44704D01*
X254000Y44704D02*
X254000Y31496D01*
X279400Y31496D02*
X279400Y44704D01*
X304800Y44704D02*
X304800Y31496D01*
X330200Y31496D02*
X330200Y44704D01*
X44704Y381000D02*
X31496Y381000D01*
X31496Y355600D02*
X44704Y355600D01*
X44704Y228600D02*
X31496Y228600D01*
X31496Y203200D02*
X44704Y203200D01*
X44704Y330200D02*
X31496Y330200D01*
X31496Y304800D02*
X44704Y304800D01*
X44704Y254000D02*
X31496Y254000D01*
X31496Y279400D02*
X44704Y279400D01*
X107696Y203200D02*
X120904Y203200D01*
X120904Y228600D02*
X107696Y228600D01*
X107696Y254000D02*
X120904Y254000D01*
X120904Y279400D02*
X107696Y279400D01*
X107696Y304800D02*
X120904Y304800D01*
X120904Y330200D02*
X107696Y330200D01*
X107696Y355600D02*
X120904Y355600D01*
X120904Y381000D02*
X107696Y381000D01*
D23*
X108712Y117094D03*
X43688Y117094D03*
X108712Y162306D03*
X43688Y162306D03*
D24*
X552450Y63500D03*
X552450Y139700D03*
D23*
X539750Y171450D03*
X514350Y171450D03*
D12*
X361950Y101600D03*
D13*
X354330Y76200D02*
X369570Y76200D01*
X369570Y50800D02*
X354330Y50800D01*
D25*
X50800Y457200D03*
X50800Y50800D03*
X774700Y50800D03*
X774700Y457200D03*
X482600Y381000D03*
D26*
X381000Y228600D03*
M02*
